<svg width="192" height="120" viewBox="0 0 192 120" fill="none" xmlns="http://www.w3.org/2000/svg">
<path d="M116.664 26.136C117.504 26.424 118.344 26.76 119.184 27.072C121.224 27.888 123.24 28.752 125.256 29.592C130.632 31.824 136.008 33.9841 141.264 36.5041C148.224 39.84 154.872 43.608 161.4 47.736C167.064 51.336 173.544 53.856 178.488 58.44C179.544 59.424 181.032 58.272 180.768 57.168C182.736 53.376 184.536 49.512 186.216 45.6C186.744 44.352 185.4 43.2241 184.488 43.6081C172.08 40.4401 160.032 36.0961 147.816 32.2801C141.672 30.3841 135.72 28.056 129.624 26.04C128.592 25.704 127.512 25.44 126.456 25.2C133.992 25.32 141.72 23.208 149.112 22.608C161.592 21.576 174.12 22.2001 186.624 22.2241C186.768 22.2241 186.912 22.2001 187.032 22.1521C187.752 22.2241 188.496 21.792 188.424 20.856C188.136 16.128 186.936 11.4241 184.872 7.15205C184.416 6.21605 183.384 6.33605 182.808 6.93605C182.64 6.91205 182.448 6.93605 182.232 6.98405C161.04 13.2721 139.08 16.44 117.264 19.728C116.616 19.176 115.776 18.816 114.984 18.72C113.328 18.552 111.048 19.4641 110.328 21.0721C110.136 21.504 110.04 21.936 110.04 22.368C101.688 18.288 92.76 15.552 84.024 12.408C72.912 8.40005 61.68 4.80005 50.52 0.912051C49.92 0.696051 49.32 1.05605 49.008 1.53605C47.088 4.34405 46.392 7.82405 45.504 11.0641C45.24 12.0481 46.032 12.696 46.8 12.72C46.944 12.7441 47.088 12.768 47.232 12.768C52.224 12.408 57.192 13.68 61.944 15.048C66.984 16.488 71.976 18.048 77.088 19.2241C85.944 21.2401 94.896 22.896 103.728 25.056C83.952 29.376 63.936 32.4961 43.632 32.5441C42.744 32.5441 42.312 33.24 42.336 33.912C42.048 34.2 41.904 34.608 42.12 35.136C43.344 38.304 44.688 41.4241 46.296 44.4481C46.704 45.2401 47.52 45.264 48.12 44.8801C53.04 44.8321 57.792 43.272 62.448 41.832C67.752 40.176 73.176 39.264 78.6 38.136C89.904 35.76 101.112 32.9281 112.224 29.784C112.392 32.0881 112.512 34.392 112.536 36.696C108.576 37.4641 105.384 40.0561 103.344 43.4881C103.176 43.5121 103.008 43.5601 102.864 43.584C95.616 43.8 88.392 44.712 81.288 46.152C75.288 47.376 69.456 49.2001 63.504 50.64C58.536 51.84 53.376 52.728 48.24 52.512C43.536 52.32 37.704 51.1921 35.184 46.7041C37.728 43.8721 38.448 40.08 35.232 37.032C34.008 35.88 32.616 34.944 31.152 34.1281C30.6 32.9521 30.048 31.8 29.4 30.696C26.736 24.912 22.152 16.296 15.024 19.128C14.928 19.176 14.832 19.224 14.76 19.272C10.896 13.92 5.59196 9.12005 1.79996 14.496C0.575961 16.248 -0.528039 18.9121 0.335961 21.024C1.12796 22.9921 2.71196 24.3601 4.55996 25.344C8.23196 27.312 12.288 28.08 16.152 29.496C15.864 30.912 16.344 32.5201 17.472 33.48C17.952 33.8881 18.48 34.1281 18.984 34.2481C18.96 34.3441 18.96 34.4401 18.96 34.5601C18.96 34.7041 18.984 34.8241 19.008 34.944C19.032 35.0881 19.032 35.232 19.032 35.28C19.056 35.784 19.08 36.312 19.104 36.816C19.128 37.584 19.056 38.448 19.224 39.192C19.992 42.648 21.456 45.9121 22.176 49.3441C23.28 54.528 23.928 60.432 27.408 64.704C30.768 68.808 36.552 70.4641 41.568 71.328C47.232 72.312 52.968 72.504 58.68 72.84C62.664 73.08 66.6 73.512 70.536 74.112C75.216 74.808 79.56 76.08 83.424 78.912C87.888 82.2 91.104 86.736 94.8 90.72C92.28 91.2 89.28 92.424 89.88 94.968C90.312 96.768 93.168 97.464 94.68 97.656C97.464 98.016 100.296 97.344 103.08 97.8C103.008 99.888 103.152 101.976 103.248 104.064C101.712 103.68 100.152 103.296 98.592 103.008C96.312 102.6 93.552 102.024 91.344 103.008C90 103.608 88.968 105.216 89.928 106.584C90.744 107.736 92.232 108.336 93.528 108.816C98.4 110.64 103.68 111.576 108.768 112.488C113.28 113.304 117.816 114.024 122.352 114.72C131.784 116.208 141.264 117.624 150.792 118.416C152.904 118.584 154.992 118.776 157.104 118.968C158.448 119.088 159.84 119.016 160.824 117.984C161.832 116.928 161.664 115.08 160.656 114.072C160.248 113.664 159.768 113.328 159.288 113.04C159.168 112.872 159 112.704 158.76 112.608C158.184 112.344 157.584 112.08 156.984 111.84C156.96 111.816 156.912 111.816 156.888 111.792C153 110.256 148.92 109.464 144.768 108.984C144.552 107.904 144.648 106.8 144.72 105.72C149.328 107.616 154.224 108.672 159.144 109.368C161.736 109.728 164.448 110.52 167.088 110.256C168.24 110.136 169.728 109.896 170.376 108.768C170.952 107.736 170.952 106.392 170.232 105.408C169.704 104.712 169.032 104.064 168.288 103.488C168.312 103.488 168.36 103.488 168.384 103.464C171.552 103.032 174.72 102.576 177.792 101.736C183.504 100.2 189.36 97.2 191.256 91.152C193.344 84.504 190.584 77.832 186.144 72.792C182.016 68.088 176.016 64.128 169.584 64.656C164.016 54.888 156.288 45.864 145.2 42.432C138.504 40.344 131.208 40.32 124.272 40.656H124.152C124.104 40.608 124.056 40.5361 124.008 40.4881C121.584 38.1361 118.512 36.5521 115.176 36.4081M51.888 4.29605C51.144 4.89605 50.4 5.49605 49.704 6.14405C49.992 5.37605 50.328 4.60805 50.736 3.88805C51.12 4.03205 51.504 4.17605 51.888 4.29605ZM53.616 4.89605C51.912 6.55205 50.184 8.13605 48.6 9.91205C48.816 9.12005 49.008 8.32805 49.248 7.56005C50.304 6.48005 51.456 5.52005 52.656 4.58405C52.968 4.65605 53.28 4.77605 53.616 4.89605ZM55.92 5.68805C54.336 7.20005 52.656 8.61605 51.096 10.1521C50.496 10.1041 49.92 10.08 49.32 10.08C50.904 8.35205 52.632 6.76805 54.312 5.13605C54.864 5.30405 55.392 5.49605 55.92 5.68805ZM58.536 6.57605C57.192 7.89605 55.848 9.19205 54.6 10.608C53.736 10.464 52.872 10.344 52.008 10.248C53.52 8.78405 55.152 7.41605 56.664 5.95205C57.288 6.14405 57.912 6.36005 58.536 6.57605ZM61.344 7.51205C60.072 8.85605 58.536 9.93605 57.048 11.0641C56.496 10.9441 55.92 10.824 55.368 10.728C56.616 9.36005 57.936 8.08805 59.256 6.81605C59.952 7.05605 60.648 7.29605 61.344 7.51205ZM64.104 8.44805C62.808 9.62405 61.44 10.704 60.072 11.808C59.352 11.616 58.632 11.448 57.912 11.28C59.352 10.2 60.84 9.12005 62.04 7.77605C62.736 7.99205 63.408 8.20805 64.104 8.44805ZM66.624 9.31205C65.208 10.3201 63.864 11.448 62.472 12.456C62.184 12.384 61.872 12.288 61.584 12.216C61.368 12.144 61.128 12.0961 60.912 12.0241C62.256 10.9441 63.6 9.88805 64.848 8.71205C65.424 8.90405 66.024 9.09605 66.624 9.31205ZM68.352 9.88805C67.0799 10.92 65.832 12.024 64.512 13.0321C64.104 12.9121 63.696 12.792 63.264 12.696C64.656 11.664 65.976 10.56 67.392 9.57605C67.728 9.67205 68.04 9.79205 68.352 9.88805ZM70.632 10.656C69.408 11.664 68.184 12.72 66.84 13.608L66.768 13.68C66.288 13.536 65.808 13.392 65.328 13.272C66.624 12.264 67.824 11.1601 69.12 10.1521C69.6 10.3201 70.128 10.488 70.632 10.656ZM73.248 11.5441C71.88 12.4321 70.656 13.512 69.288 14.4C68.712 14.232 68.136 14.064 67.584 13.896C68.904 12.984 70.128 11.904 71.376 10.896C72 11.136 72.624 11.3281 73.248 11.5441ZM75.576 12.336C74.328 13.248 73.152 14.2321 71.904 15.1441C71.304 14.9761 70.728 14.8081 70.128 14.64C71.448 13.7041 72.672 12.672 74.064 11.808C74.568 12 75.072 12.168 75.576 12.336ZM77.448 12.9841C76.272 13.8481 75.24 14.8561 74.088 15.7441C73.632 15.6241 73.2 15.5041 72.744 15.3841C73.944 14.4721 75.12 13.5121 76.368 12.6241C76.704 12.7441 77.064 12.8641 77.448 12.9841ZM79.152 13.5841C78.072 14.4241 77.04 15.3601 75.96 16.2241L74.88 15.936C75.984 15.024 77.04 14.04 78.216 13.248C78.528 13.368 78.84 13.4881 79.152 13.5841ZM81.072 14.256C79.992 15.048 78.96 15.888 77.88 16.68C77.64 16.632 77.424 16.584 77.184 16.512C77.04 16.488 76.92 16.44 76.776 16.416C77.808 15.552 78.816 14.6401 79.896 13.8241C80.28 13.9921 80.664 14.136 81.072 14.256ZM82.8 14.88C81.84 15.672 80.88 16.392 79.896 17.136C79.512 17.04 79.128 16.9681 78.744 16.872C79.776 16.08 80.784 15.288 81.84 14.52C82.152 14.64 82.464 14.736 82.776 14.856C82.776 14.88 82.776 14.88 82.8 14.88ZM84.312 15.432C83.424 16.128 82.5359 16.824 81.672 17.5441L80.736 17.328C81.672 16.608 82.608 15.8881 83.52 15.1441L84.312 15.432ZM86.352 16.1521C85.56 16.8 84.72 17.424 83.904 18.024C83.448 17.928 82.992 17.8321 82.512 17.712C83.352 17.0161 84.192 16.3441 85.056 15.6721C85.488 15.8401 85.92 15.984 86.352 16.1521ZM88.488 16.896C87.72 17.448 86.976 17.976 86.208 18.528C85.728 18.432 85.248 18.312 84.768 18.216C85.56 17.616 86.328 17.016 87.096 16.416C87.552 16.56 88.008 16.728 88.488 16.896ZM89.928 17.4C89.328 17.928 88.68 18.4321 88.032 18.9121C87.72 18.84 87.408 18.792 87.096 18.72C87.816 18.216 88.536 17.6881 89.256 17.1841C89.496 17.2561 89.712 17.328 89.928 17.4ZM91.776 18.048C91.344 18.552 90.84 18.9841 90.312 19.392C89.8319 19.296 89.376 19.2001 88.896 19.104C89.496 18.6481 90.096 18.1681 90.648 17.6641C91.032 17.7841 91.416 17.928 91.776 18.048ZM93.96 18.816C93.576 19.2 93.192 19.56 92.784 19.896C92.256 19.776 91.704 19.68 91.176 19.56C91.656 19.176 92.088 18.768 92.472 18.288C92.952 18.456 93.456 18.648 93.96 18.816ZM95.568 19.392C95.232 19.68 94.896 19.968 94.584 20.28L93.576 20.0641L94.656 19.056C94.9679 19.176 95.28 19.272 95.568 19.392ZM97.392 20.04C97.128 20.28 96.864 20.496 96.576 20.712C96.168 20.616 95.784 20.544 95.376 20.448C95.664 20.16 95.976 19.896 96.312 19.632C96.672 19.776 97.032 19.92 97.392 20.04ZM98.592 20.496C98.424 20.688 98.256 20.88 98.088 21.048C97.872 21 97.656 20.9521 97.416 20.9041C97.656 20.7121 97.872 20.5201 98.088 20.3041C98.256 20.3761 98.424 20.424 98.592 20.496ZM100.176 21.096C100.08 21.216 99.96 21.336 99.864 21.432C99.528 21.36 99.216 21.288 98.88 21.216C99.024 21.072 99.144 20.904 99.288 20.736C99.576 20.856 99.864 20.976 100.176 21.096ZM102.624 22.08C101.952 21.9121 101.28 21.768 100.608 21.6241C100.68 21.552 100.752 21.456 100.824 21.36L102.624 22.08ZM47.64 35.2081C47.088 36.0481 46.56 36.912 46.104 37.8C45.744 36.96 45.384 36.096 45.048 35.256C45.888 35.256 46.776 35.2321 47.64 35.2081ZM49.824 35.16C48.768 36.648 47.952 38.3041 47.016 39.8641C46.824 39.4561 46.632 39.024 46.464 38.616C47.064 37.44 47.76 36.3121 48.48 35.2081C48.912 35.1841 49.368 35.16 49.824 35.16ZM51.936 35.0881C50.688 37.3921 49.368 39.6721 47.976 41.904C47.76 41.472 47.544 41.0401 47.328 40.584C48.384 38.8801 49.248 37.104 50.4 35.472C50.496 35.352 50.472 35.232 50.424 35.136C50.928 35.112 51.432 35.112 51.936 35.0881ZM54.36 34.9681C53.088 37.5121 51.648 39.9841 49.824 42.1441C49.416 42.168 48.984 42.216 48.576 42.216C50.016 39.8881 51.384 37.536 52.68 35.112C52.704 35.088 52.704 35.064 52.704 35.0401L54.36 34.9681ZM57 34.8C55.68 37.032 54.528 39.384 53.256 41.64C52.44 41.808 51.6 41.9521 50.784 42.0481C52.512 39.8641 53.928 37.416 55.152 34.92C55.752 34.872 56.376 34.848 57 34.8ZM58.824 34.68C57.84 36.8881 56.784 39.072 55.512 41.136C55.056 41.256 54.6 41.352 54.144 41.472C55.392 39.24 56.496 36.9361 57.84 34.752C58.152 34.7281 58.488 34.704 58.824 34.68ZM60.96 34.512C60.12 36.672 59.112 38.784 57.6 40.5601C57.216 40.68 56.808 40.7761 56.424 40.896C57.6 38.8801 58.608 36.768 59.568 34.632C60.024 34.584 60.504 34.536 60.96 34.512ZM62.568 34.3681C61.704 36.1921 61.008 38.0881 59.952 39.84C59.544 39.96 59.136 40.1041 58.728 40.2241C60.024 38.4721 60.936 36.5041 61.704 34.4641C61.992 34.416 62.28 34.3921 62.568 34.3681ZM64.632 34.176C63.672 35.712 63.072 37.464 62.28 39.096L60.912 39.5281C61.848 37.8481 62.52 36.024 63.36 34.296C63.792 34.248 64.2 34.224 64.632 34.176ZM66.432 34.0081C65.808 35.4961 65.28 37.032 64.536 38.472C64.08 38.592 63.624 38.736 63.168 38.856C63.864 37.296 64.44 35.6881 65.4 34.2481C65.424 34.2001 65.448 34.1521 65.448 34.104C65.76 34.056 66.096 34.0321 66.432 34.0081ZM68.088 33.816C67.488 35.232 66.96 36.6721 66.24 38.016C65.952 38.088 65.688 38.16 65.4 38.232C66.048 36.888 66.528 35.4481 67.128 34.0801C67.152 34.0321 67.152 33.984 67.152 33.936C67.464 33.888 67.776 33.864 68.088 33.816ZM69.72 33.6481C69.096 34.9441 68.64 36.288 68.064 37.584C67.752 37.656 67.416 37.7281 67.104 37.8C67.752 36.48 68.256 35.0881 68.856 33.7441C69.144 33.6961 69.432 33.6721 69.72 33.6481ZM71.712 33.4081C71.184 34.6561 70.656 35.928 70.032 37.152C69.6479 37.224 69.24 37.32 68.856 37.416C69.384 36.12 69.864 34.8 70.512 33.552C70.92 33.504 71.3279 33.4561 71.712 33.4081ZM73.68 33.1681C73.2 34.3441 72.768 35.5681 72.216 36.7201C71.784 36.8161 71.328 36.8881 70.896 36.9841C71.472 35.784 71.976 34.56 72.504 33.312C72.888 33.264 73.272 33.2161 73.68 33.1681ZM75.312 32.952C74.4959 34.056 73.992 35.328 73.296 36.48C73.2 36.504 73.104 36.5281 73.008 36.5281C73.536 35.4001 73.944 34.2001 74.424 33.0481C74.736 33.0241 75.0239 32.976 75.312 32.952ZM76.968 32.712C76.392 33.84 75.816 34.992 75.216 36.096C74.856 36.168 74.496 36.24 74.16 36.312C74.736 35.256 75.24 34.1281 75.984 33.1681C76.08 33.0721 76.08 32.928 76.056 32.832C76.344 32.808 76.656 32.76 76.968 32.712ZM79.032 32.4C78.2879 33.48 77.664 34.6081 77.016 35.736C76.704 35.808 76.368 35.8561 76.056 35.9281C76.632 34.8481 77.184 33.744 77.736 32.64C77.736 32.616 77.736 32.616 77.76 32.592C78.192 32.544 78.624 32.472 79.032 32.4ZM80.52 32.1841C79.896 33.2161 79.32 34.2961 78.768 35.376C78.672 35.4 78.6 35.424 78.504 35.424C78.288 35.472 78.096 35.4961 77.88 35.5441C78.456 34.5601 79.0079 33.576 79.656 32.64C79.752 32.52 79.728 32.4001 79.656 32.3041C79.9679 32.2801 80.256 32.2321 80.52 32.1841ZM82.752 31.8241C82.152 32.8081 81.744 33.936 81.096 34.872C80.616 34.992 80.112 35.0881 79.632 35.1841C80.184 34.104 80.76 33.048 81.408 32.0401C81.864 31.9681 82.296 31.8961 82.752 31.8241ZM84.432 31.56C83.904 32.544 83.448 33.5521 82.848 34.4881C82.56 34.5601 82.296 34.6081 82.008 34.68C82.584 33.696 82.992 32.6161 83.664 31.68C83.928 31.632 84.168 31.608 84.432 31.56ZM86.736 31.176C86.184 32.112 85.7039 33.1441 85.032 34.0081C84.624 34.1041 84.192 34.2 83.784 34.296C84.312 33.36 84.768 32.376 85.296 31.44C85.776 31.344 86.256 31.248 86.736 31.176ZM88.56 30.84C87.984 31.704 87.504 32.6161 87 33.5281C86.664 33.6001 86.3279 33.6721 85.992 33.7681C86.5679 32.8801 87.024 31.92 87.6 31.032C87.6 31.032 87.6 31.0081 87.624 31.0081C87.936 30.9601 88.248 30.912 88.56 30.84ZM90.36 30.5281C89.856 31.4401 89.352 32.3281 88.704 33.1441C88.44 33.216 88.152 33.264 87.888 33.336C88.392 32.424 88.872 31.512 89.52 30.672C89.784 30.624 90.072 30.5761 90.36 30.5281ZM92.28 30.1681C91.7999 31.0081 91.344 31.872 90.768 32.64C90.408 32.736 90.048 32.8081 89.712 32.9041C90.264 32.0881 90.744 31.224 91.224 30.36C91.584 30.288 91.92 30.2401 92.28 30.1681ZM94.608 29.712C94.248 30.504 93.864 31.368 93.336 32.016C92.808 32.136 92.28 32.28 91.752 32.4C92.256 31.608 92.688 30.792 93.168 29.976C93.648 29.904 94.128 29.808 94.608 29.712ZM96.24 29.4C95.832 30.144 95.424 30.8881 94.992 31.6081C94.752 31.6561 94.512 31.728 94.296 31.776C94.728 31.08 95.04 30.264 95.424 29.5441C95.688 29.496 95.976 29.448 96.24 29.4ZM97.632 29.112C97.1759 29.808 96.768 30.5041 96.408 31.2481C96.24 31.2961 96.072 31.3201 95.904 31.3681C96.312 30.6481 96.696 29.9281 97.104 29.2081C97.272 29.1841 97.464 29.16 97.632 29.112ZM99.792 28.68C99.36 29.352 98.976 30.048 98.52 30.72C98.112 30.816 97.6799 30.936 97.2719 31.032C97.656 30.312 98.088 29.592 98.568 28.92C98.976 28.848 99.384 28.752 99.792 28.68ZM101.784 28.272C101.4 28.896 101.016 29.5441 100.632 30.1681C100.248 30.2641 99.84 30.36 99.456 30.48C99.864 29.808 100.272 29.1361 100.704 28.4881C101.088 28.416 101.448 28.344 101.784 28.272ZM103.68 27.864C103.32 28.4401 103.032 29.064 102.648 29.64L101.568 29.9281C101.928 29.3041 102.312 28.68 102.72 28.08C103.032 27.984 103.368 27.9361 103.68 27.864ZM105.144 27.552C104.88 28.128 104.568 28.704 104.232 29.232C104.016 29.28 103.8 29.352 103.584 29.4C103.92 28.8 104.232 28.2 104.616 27.672C104.784 27.624 104.976 27.576 105.144 27.552ZM106.896 27.1681C106.584 27.7441 106.224 28.296 105.816 28.8C105.6 28.848 105.384 28.9201 105.168 28.9681C105.456 28.4401 105.72 27.912 105.96 27.36C106.272 27.288 106.584 27.2161 106.896 27.1681ZM108.528 26.784C108.24 27.288 107.952 27.792 107.64 28.272C107.376 28.344 107.112 28.416 106.872 28.4881C107.208 28.0081 107.496 27.504 107.736 26.952C108 26.904 108.264 26.8561 108.528 26.784ZM110.328 26.832C110.184 27.12 110.016 27.408 109.848 27.672C109.416 27.792 109.008 27.912 108.576 28.032C108.864 27.552 109.128 27.072 109.416 26.592H109.44C109.728 26.664 110.016 26.76 110.328 26.832ZM111.576 27.192C111.312 27.264 111.048 27.3361 110.76 27.4081C110.832 27.288 110.904 27.1441 110.976 27.024C111.168 27.0721 111.384 27.144 111.576 27.192ZM178.128 54.6481C178.56 54.3601 179.016 54.096 179.472 53.856C179.256 54.288 179.04 54.744 178.8 55.176C178.56 54.984 178.344 54.8161 178.128 54.6481ZM176.616 53.544C178.032 52.752 179.472 51.9361 180.816 51.048C180.528 51.6721 180.216 52.272 179.928 52.872C179.088 53.208 178.296 53.688 177.528 54.192C177.24 53.976 176.928 53.76 176.616 53.544ZM174.456 52.152C177.36 50.568 179.976 48.504 182.808 46.752C182.352 47.784 181.872 48.8161 181.392 49.8481C179.688 51.0961 177.84 52.104 175.992 53.16C175.488 52.8 174.984 52.464 174.456 52.152ZM172.464 50.952C175.344 48.96 178.44 47.16 181.68 45.816C181.752 45.792 181.8 45.744 181.824 45.696C182.136 45.792 182.472 45.864 182.784 45.96C179.736 47.808 176.952 50.064 173.808 51.744C173.352 51.48 172.92 51.216 172.464 50.952ZM170.976 50.112C173.784 48.48 176.664 46.992 179.4 45.216C179.472 45.168 179.496 45.12 179.52 45.072C179.976 45.192 180.408 45.312 180.864 45.432C177.696 46.824 174.648 48.6001 171.816 50.5681C171.528 50.424 171.264 50.256 170.976 50.112ZM168.768 48.8881C171.384 47.3041 174.168 46.0321 176.712 44.3281C176.736 44.3281 176.736 44.304 176.76 44.28C177.408 44.472 178.08 44.664 178.728 44.856C175.992 46.584 173.112 48.0961 170.304 49.7281C169.776 49.4401 169.272 49.1521 168.768 48.8881ZM166.776 47.784C169.368 46.7281 171.648 45.096 173.904 43.44C174.552 43.632 175.224 43.848 175.872 44.0401C173.376 45.648 170.664 46.896 168.144 48.456L168.072 48.5281C167.664 48.2641 167.232 48.0241 166.776 47.784ZM164.808 46.656C167.184 45.576 169.32 44.064 171.552 42.744C172.08 42.912 172.584 43.056 173.112 43.224C170.88 44.832 168.624 46.416 166.032 47.376L164.808 46.656ZM163.152 45.6481C165.384 44.7121 167.328 43.224 169.512 42.192C169.56 42.168 169.584 42.144 169.608 42.12C169.968 42.24 170.328 42.36 170.688 42.456C168.528 43.776 166.44 45.24 164.088 46.224L163.152 45.6481ZM161.376 44.5441C163.416 43.6561 165.24 42.336 167.4 41.76C167.544 41.712 167.616 41.616 167.64 41.496C168 41.616 168.336 41.712 168.696 41.832C166.584 42.912 164.664 44.352 162.432 45.216C162.096 45 161.736 44.7841 161.376 44.5441ZM159.288 43.272C161.016 42.432 162.744 41.616 164.28 40.44C165.12 40.704 165.984 40.992 166.824 41.256C164.64 41.928 162.792 43.32 160.68 44.136C160.224 43.824 159.744 43.536 159.288 43.272ZM157.488 42.192C159.096 41.448 160.632 40.5601 162.24 39.7681C162.672 39.9121 163.08 40.032 163.512 40.176C162.072 41.232 160.44 41.952 158.856 42.7201C158.76 42.7681 158.736 42.8161 158.712 42.8881C158.304 42.648 157.896 42.432 157.488 42.192ZM156.024 41.3041C157.44 40.68 158.808 39.8881 160.248 39.2881C160.32 39.2641 160.368 39.216 160.416 39.1441C160.728 39.2401 161.04 39.336 161.352 39.456C159.84 40.224 158.376 41.064 156.816 41.76C156.528 41.616 156.264 41.472 156.024 41.3041ZM154.296 40.3441C155.592 39.7441 156.912 39.168 158.184 38.472C158.616 38.616 159.072 38.76 159.504 38.904C158.088 39.552 156.72 40.32 155.28 40.92C154.968 40.704 154.632 40.5121 154.296 40.3441ZM152.328 39.216C153.432 38.5681 154.56 38.016 155.784 37.656C156.288 37.824 156.792 37.9921 157.32 38.16C156.096 38.784 154.848 39.336 153.6 39.912C153.168 39.696 152.736 39.4561 152.328 39.216ZM150.72 38.352C151.584 37.944 152.472 37.536 153.36 37.152C153.456 37.104 153.504 37.032 153.528 36.96C153.912 37.08 154.32 37.2001 154.704 37.3441C153.648 37.7521 152.616 38.28 151.632 38.856C151.32 38.664 151.032 38.52 150.72 38.352ZM149.136 37.4881C149.928 37.1041 150.672 36.7201 151.44 36.264C151.872 36.4081 152.304 36.528 152.736 36.672C151.824 37.08 150.912 37.488 150 37.92C149.712 37.8 149.424 37.6321 149.136 37.4881ZM147.336 36.552C147.984 36.24 148.632 35.928 149.28 35.592C149.712 35.736 150.144 35.856 150.552 36C149.856 36.4081 149.136 36.7681 148.392 37.104C148.056 36.912 147.696 36.72 147.336 36.552ZM145.488 35.592C145.944 35.352 146.376 35.0881 146.832 34.8241C147.336 34.9921 147.864 35.1361 148.368 35.3041C147.792 35.592 147.192 35.8801 146.592 36.1681C146.232 35.9761 145.848 35.784 145.488 35.592ZM143.856 34.776C144.216 34.584 144.6 34.4161 144.96 34.2241L145.896 34.512C145.92 34.512 145.944 34.536 145.968 34.536C145.56 34.7761 145.176 34.9921 144.768 35.2081C144.456 35.0881 144.168 34.92 143.856 34.776ZM142.488 34.104C142.728 33.96 142.968 33.84 143.208 33.696C143.472 33.792 143.76 33.864 144.024 33.96C143.712 34.104 143.424 34.272 143.112 34.416C142.896 34.2961 142.68 34.2001 142.488 34.104ZM140.208 33.0481L140.568 32.832C141.168 33.024 141.744 33.2161 142.344 33.4081C142.128 33.5281 141.936 33.6241 141.72 33.7441C141.648 33.6961 141.576 33.6721 141.504 33.6241L140.208 33.0481ZM137.016 31.6081C137.904 31.9441 138.816 32.2561 139.704 32.5441C139.632 32.5921 139.536 32.6401 139.464 32.6881L137.016 31.6081ZM184.488 19.56C184.824 19.176 185.136 18.768 185.448 18.36C185.496 18.768 185.544 19.176 185.592 19.56H184.488ZM182.568 19.536C183.48 18.456 184.296 17.304 185.088 16.128C185.184 16.56 185.256 16.9921 185.328 17.4241C184.8 18.1441 184.224 18.864 183.624 19.536H182.568ZM180.432 19.5121C181.848 17.784 183.24 16.032 184.656 14.328C184.728 14.64 184.824 14.928 184.896 15.24C183.888 16.728 182.904 18.216 181.704 19.536C181.272 19.512 180.84 19.5121 180.432 19.5121ZM178.224 19.488C180.24 17.208 182.28 14.976 184.128 12.576C184.224 12.912 184.344 13.2241 184.44 13.5601C184.416 13.5841 184.392 13.584 184.368 13.608C182.76 15.552 181.176 17.5441 179.568 19.5121C179.112 19.4881 178.68 19.488 178.224 19.488ZM175.104 19.44C178.128 16.824 180.912 13.944 183.576 10.968L183.936 11.976C183.84 11.976 183.72 12.024 183.648 12.12C181.68 14.688 179.472 17.064 177.36 19.488C176.592 19.464 175.848 19.44 175.104 19.44ZM171.432 19.392C172.776 18.048 174.792 17.0161 176.16 15.84C178.512 13.8481 180.696 11.688 183.024 9.69605C183.096 9.88805 183.192 10.0801 183.264 10.2721C180.384 13.5121 177.36 16.608 174.048 19.44C173.208 19.392 172.32 19.392 171.432 19.392ZM169.224 19.368C172.392 16.824 175.08 13.728 178.104 11.016C179.304 10.68 180.48 10.368 181.68 10.008C179.376 12.048 177.192 14.2561 174.768 16.1521C173.472 17.184 171.696 18.0961 170.568 19.392C170.112 19.368 169.656 19.368 169.224 19.368ZM166.296 19.3441C168.816 17.1361 171.12 14.712 173.376 12.24C174.48 11.952 175.584 11.664 176.712 11.376C173.856 14.04 171.264 16.9921 168.144 19.3441H166.296ZM163.176 19.3441C165.312 17.2561 167.544 15.288 169.632 13.1521C170.472 12.96 171.336 12.744 172.176 12.528C169.992 14.904 167.76 17.232 165.288 19.32C165.288 19.32 165.288 19.3441 165.264 19.3441H163.176ZM160.824 19.392C162.648 17.5921 164.448 15.7681 166.248 13.9441L168.408 13.44C166.392 15.432 164.256 17.3281 162.24 19.3441C161.76 19.3681 161.28 19.368 160.824 19.392ZM158.184 19.44C159.84 17.832 161.496 16.224 163.176 14.616C163.8 14.472 164.4 14.352 165.024 14.208C163.296 15.936 161.592 17.688 159.84 19.392C159.288 19.416 158.736 19.44 158.184 19.44ZM155.616 19.536C157.176 18.144 158.592 16.584 160.2 15.24L161.928 14.88L157.2 19.4641L155.616 19.536ZM153.528 19.656C154.728 18.432 155.832 17.112 157.032 15.888L158.832 15.528C157.368 16.872 156.024 18.3361 154.512 19.5841C154.2 19.6081 153.864 19.632 153.528 19.656ZM151.296 19.8C152.352 18.768 153.264 17.6161 154.176 16.4641C154.752 16.3441 155.328 16.248 155.904 16.128C154.776 17.328 153.72 18.6 152.544 19.728C152.112 19.728 151.704 19.752 151.296 19.8ZM148.656 19.9921C149.592 19.0321 150.48 18.024 151.32 16.968C151.944 16.848 152.544 16.7521 153.168 16.6321C152.256 17.784 151.32 18.9121 150.24 19.872C149.856 19.896 149.496 19.92 149.112 19.968C148.968 19.968 148.824 19.9921 148.656 19.9921ZM146.496 20.232C147.216 19.344 147.888 18.432 148.536 17.496C149.136 17.4 149.712 17.2801 150.312 17.1841C149.472 18.2161 148.56 19.176 147.6 20.112C147.24 20.136 146.856 20.184 146.496 20.232ZM143.28 20.64C144.096 19.728 144.96 18.84 145.824 17.952C146.4 17.856 147 17.736 147.576 17.64C146.904 18.552 146.232 19.464 145.512 20.328C144.768 20.448 144.024 20.544 143.28 20.64ZM141.12 20.952C141.936 20.112 142.728 19.248 143.52 18.36C143.904 18.288 144.312 18.24 144.696 18.168C143.856 19.008 143.064 19.896 142.296 20.784C141.888 20.8321 141.504 20.904 141.12 20.952ZM138.576 21.336C139.344 20.52 140.04 19.656 140.76 18.816C141.312 18.72 141.888 18.624 142.44 18.528C141.648 19.416 140.832 20.28 139.968 21.12C139.512 21.192 139.056 21.264 138.576 21.336ZM135.624 21.7441C136.392 20.8321 137.232 19.992 138.168 19.248C138.696 19.152 139.224 19.0801 139.752 18.9841C139.032 19.8481 138.312 20.712 137.496 21.48C136.872 21.576 136.248 21.6481 135.624 21.7441ZM133.632 21.9841C134.424 21.1681 135.192 20.3761 135.984 19.5841C136.272 19.5361 136.584 19.488 136.872 19.44C136.056 20.184 135.336 21 134.64 21.864C134.544 21.8881 134.424 21.8881 134.328 21.9121C134.112 21.9361 133.872 21.9601 133.632 21.9841ZM131.304 22.248C131.928 21.552 132.504 20.8081 133.08 20.0641L134.88 19.776C134.112 20.544 133.344 21.3361 132.6 22.104L131.304 22.248ZM129.408 22.392C129.96 21.6961 130.512 21 131.136 20.352C131.472 20.304 131.784 20.256 132.12 20.208C131.544 20.952 130.968 21.6721 130.296 22.344C130.008 22.344 129.72 22.368 129.408 22.392ZM126.456 22.488C126.984 21.936 127.536 21.3841 128.088 20.8321C128.736 20.736 129.408 20.64 130.056 20.52C129.528 21.144 129.024 21.792 128.496 22.44C127.824 22.464 127.152 22.488 126.456 22.488ZM124.8 22.416C125.136 22.008 125.448 21.6 125.76 21.192C126.168 21.12 126.576 21.0721 126.96 21C126.48 21.48 126 21.96 125.544 22.44C125.304 22.464 125.064 22.44 124.8 22.416ZM123.096 22.272C123.312 22.008 123.528 21.744 123.768 21.48C124.104 21.432 124.464 21.3841 124.8 21.312C124.536 21.6721 124.248 22.008 123.96 22.344C123.696 22.344 123.384 22.32 123.096 22.272ZM120.912 21.936C121.512 21.84 122.112 21.744 122.736 21.648C122.592 21.816 122.472 22.008 122.328 22.176C121.872 22.104 121.392 22.032 120.912 21.936ZM28.296 35.6641C27.312 37.5121 26.544 39.456 25.512 41.256C25.368 40.968 25.248 40.6801 25.128 40.3681C26.232 38.8321 26.808 37.0321 27.744 35.4001C27.912 35.4961 28.104 35.5921 28.296 35.6641ZM25.032 34.296C25.32 34.416 25.584 34.512 25.872 34.632C25.296 35.736 24.744 36.84 24.192 37.944L23.832 36.936C24.264 36.072 24.648 35.184 25.032 34.296ZM23.52 36C23.4 35.64 23.304 35.3041 23.184 34.944C23.328 34.536 23.472 34.1521 23.64 33.7681C23.88 33.8641 24.144 33.96 24.384 34.056C24.12 34.704 23.832 35.376 23.52 36ZM26.496 34.872C26.712 34.968 26.904 35.04 27.12 35.136C26.28 36.6 25.728 38.208 24.816 39.6241C24.696 39.3361 24.6 39.048 24.48 38.76C25.152 37.488 25.8 36.168 26.496 34.872ZM29.352 36.192C28.512 38.52 27.528 40.776 26.352 42.96C26.184 42.6241 26.016 42.312 25.872 42C27.024 40.056 27.84 37.944 28.92 35.952C29.04 36.048 29.208 36.12 29.352 36.192ZM30.384 36.792C29.472 39.336 28.224 41.7121 27 44.0881C26.904 43.944 26.832 43.8 26.736 43.656C28.008 41.376 29.04 38.9761 29.928 36.5281C30.096 36.6241 30.24 36.696 30.384 36.792ZM31.44 37.4641C30.36 40.0321 29.808 43.224 27.936 45.336C27.744 45.144 27.576 44.928 27.432 44.712C28.704 42.24 30 39.768 30.96 37.152C31.128 37.248 31.296 37.3441 31.44 37.4641ZM32.304 38.112C31.92 40.848 31.104 44.0881 29.568 46.4881C29.16 46.3441 28.776 46.104 28.44 45.816C30.336 43.68 30.912 40.488 31.992 37.896C32.112 37.944 32.208 38.016 32.304 38.112ZM33.432 39.096C32.952 41.712 31.944 44.3761 30.528 46.6081H30.288C31.704 44.2561 32.496 41.28 32.928 38.616C33.072 38.76 33.264 38.928 33.432 39.096ZM34.344 40.272C33.696 42.216 33.072 44.1841 32.088 45.9841C31.944 46.0801 31.776 46.176 31.632 46.272C31.584 46.296 31.512 46.3201 31.464 46.3441C32.64 44.3521 33.504 42.024 33.984 39.744C34.128 39.912 34.248 40.08 34.344 40.272ZM34.776 42.12C34.68 43.032 34.128 43.9921 33.408 44.784C33.912 43.632 34.32 42.432 34.728 41.232C34.8 41.52 34.824 41.808 34.776 42.12ZM109.512 40.776C109.152 41.376 108.792 41.952 108.408 42.552C108 42.624 107.616 42.6961 107.208 42.7681C107.904 42 108.672 41.328 109.512 40.776ZM112.704 39.432C112.176 40.368 111.576 41.2801 110.952 42.1441C110.4 42.216 109.848 42.312 109.32 42.4081C109.8 41.64 110.256 40.8721 110.76 40.104C111.36 39.8161 112.032 39.576 112.704 39.432ZM114.6 22.176C114.24 22.176 114.192 22.1761 113.904 22.104C113.76 22.08 113.616 22.0321 113.496 21.9841C113.472 21.9841 113.448 21.96 113.424 21.96C113.352 21.936 113.28 21.8881 113.208 21.864C113.664 21.552 114.192 21.384 114.792 21.432C114.696 21.432 115.344 21.6 115.2 21.528C115.44 21.648 115.56 21.6961 115.656 21.864C115.656 21.864 115.68 21.9121 115.704 21.9841C115.416 22.128 115.08 22.2 114.6 22.176ZM114.816 39.216C114.384 40.128 113.928 41.0161 113.328 41.8081C112.848 41.8801 112.368 41.9521 111.864 42.0241C112.464 41.1361 113.04 40.2241 113.544 39.2881C113.976 39.2401 114.408 39.216 114.816 39.216ZM116.376 39.3841C115.872 40.1281 115.44 40.896 114.888 41.616C114.672 41.64 114.432 41.664 114.216 41.712C114.72 40.944 115.128 40.104 115.536 39.2881C115.824 39.2881 116.112 39.3361 116.376 39.3841ZM117.816 39.7681C117.6 40.32 117.336 40.848 117.024 41.352L115.8 41.496C116.232 40.848 116.64 40.1761 117.096 39.5281C117.336 39.6001 117.576 39.6721 117.816 39.7681ZM119.184 40.3441C119.016 40.632 118.848 40.8961 118.656 41.1841L117.864 41.256C118.08 40.848 118.296 40.416 118.464 39.9841L119.184 40.3441ZM120.336 41.0401C120.048 41.064 119.784 41.088 119.52 41.112C119.616 40.968 119.688 40.8241 119.784 40.68C119.952 40.8 120.144 40.9201 120.336 41.0401ZM150.48 47.8081C147.624 53.0401 144.6 58.248 140.808 62.88C140.16 61.776 139.512 60.672 138.912 59.544C137.976 57.72 136.152 54.6241 136.968 52.4641C137.76 50.3521 140.856 49.464 142.776 48.792C144.6 48.168 146.64 47.688 148.296 46.632C149.04 47.016 149.76 47.4001 150.48 47.8081ZM161.904 58.032C158.28 64.68 154.776 71.4 150.456 77.64C150.36 77.64 150.264 77.616 150.192 77.592C147.912 77.016 146.64 74.52 145.704 72.552C144.744 70.536 144.096 68.352 142.968 66.432C142.56 65.76 142.152 65.064 141.744 64.392C145.776 59.592 148.944 54.168 151.944 48.696C155.76 51.168 159.048 54.408 161.904 58.032ZM164.232 61.224C162.36 65.5441 160.056 69.672 157.944 73.872C157.896 73.992 157.848 74.088 157.848 74.208C156.72 75.048 155.544 75.816 154.272 76.416C153.864 76.608 153.36 76.872 152.832 77.112C156.6 71.472 159.792 65.472 163.008 59.52C163.416 60.072 163.824 60.648 164.232 61.224ZM167.064 65.784C166.968 65.832 166.896 65.904 166.8 65.976C164.856 67.848 162.96 69.792 160.968 71.616C162.456 68.736 163.968 65.856 165.312 62.904C165.936 63.84 166.512 64.8 167.064 65.784ZM166.92 107.64C167.256 107.352 167.568 107.064 167.88 106.776L168.096 107.136C168.24 107.448 167.688 107.592 166.92 107.64ZM164.64 107.568C165.312 106.92 166.008 106.272 166.752 105.696C166.992 105.864 167.232 106.056 167.424 106.248C166.92 106.752 166.368 107.208 165.792 107.64C165.408 107.616 165 107.592 164.64 107.568ZM162.744 107.328C163.656 106.56 164.568 105.768 165.432 104.952L166.152 105.312C165.312 105.984 164.544 106.728 163.776 107.472C163.656 107.448 163.56 107.448 163.512 107.448C163.248 107.4 163.008 107.376 162.744 107.328ZM160.584 106.992C161.616 106.056 162.696 105.216 163.752 104.352C164.088 104.448 164.424 104.544 164.76 104.688C163.824 105.552 162.84 106.392 161.856 107.208C161.448 107.136 161.016 107.064 160.584 106.992ZM158.616 106.656C159.624 105.936 160.632 105.192 161.64 104.448C162 104.4 162.336 104.376 162.696 104.328C161.688 105.144 160.68 105.936 159.744 106.824C159.36 106.8 158.976 106.728 158.616 106.656ZM156.264 106.248C156.912 105.792 157.56 105.312 158.184 104.808C158.88 104.76 159.6 104.688 160.296 104.616C159.432 105.24 158.544 105.888 157.656 106.512C157.224 106.416 156.744 106.344 156.264 106.248ZM154.104 105.792C154.488 105.528 154.872 105.24 155.256 105C155.4 105 155.568 105 155.712 104.976C156.144 104.952 156.576 104.928 157.008 104.88C156.528 105.24 156.024 105.624 155.52 105.96C155.472 105.984 155.448 106.032 155.424 106.056C154.968 105.984 154.536 105.888 154.104 105.792ZM152.352 105.408C152.472 105.312 152.592 105.192 152.688 105.096C153.12 105.096 153.552 105.072 153.984 105.048C153.72 105.24 153.48 105.408 153.216 105.6C152.928 105.552 152.64 105.48 152.352 105.408ZM156.96 116.328C157.248 115.968 157.536 115.608 157.848 115.272C158.112 115.416 158.352 115.584 158.568 115.8C159.336 116.616 157.656 116.424 156.96 116.328ZM154.704 116.088C155.232 115.584 155.736 115.056 156.192 114.504C156.504 114.672 156.864 114.816 157.2 114.96C156.84 115.368 156.504 115.8 156.168 116.232C155.688 116.184 155.208 116.136 154.704 116.088ZM152.736 115.92L154.752 113.904C155.04 114 155.304 114.096 155.592 114.216C155.04 114.84 154.464 115.44 153.84 115.992C153.456 115.968 153.096 115.944 152.736 115.92ZM150.648 115.752C151.488 114.984 152.256 114.168 153.048 113.352C153.36 113.448 153.696 113.544 154.008 113.64L151.824 115.824C151.44 115.8 151.056 115.776 150.648 115.752ZM148.2 115.56C149.328 114.84 150.216 113.856 151.08 112.824C151.512 112.92 151.92 113.04 152.328 113.16C151.488 114.024 150.648 114.912 149.712 115.68C149.208 115.632 148.704 115.608 148.2 115.56ZM145.8 115.32C146.952 114.528 147.936 113.424 148.92 112.368C149.4 112.464 149.856 112.56 150.336 112.656C149.448 113.688 148.488 114.672 147.264 115.32C147.192 115.344 147.168 115.392 147.144 115.44C147.072 115.44 147 115.416 146.928 115.416C146.544 115.392 146.184 115.344 145.8 115.32ZM144.096 115.128C145.272 114.24 146.328 113.184 147.336 112.104C147.6 112.152 147.888 112.2 148.152 112.248C147.264 113.232 146.352 114.216 145.272 114.912C145.128 115.008 145.104 115.128 145.128 115.272C144.768 115.2 144.432 115.152 144.096 115.128ZM142.152 114.888C143.304 113.928 144.384 112.872 145.464 111.816L146.544 111.96C145.512 113.088 144.384 114.168 143.088 115.008C142.776 114.96 142.464 114.936 142.152 114.888ZM140.064 114.624C141.144 113.64 142.224 112.608 143.256 111.552L144.624 111.696C143.544 112.776 142.44 113.832 141.24 114.768C140.832 114.744 140.448 114.672 140.064 114.624ZM137.712 114.336C138.888 113.4 139.992 112.392 141.12 111.384C141.552 111.408 141.96 111.456 142.392 111.48C141.336 112.512 140.28 113.52 139.176 114.504C138.696 114.456 138.192 114.408 137.712 114.336ZM140.928 107.16C140.928 106.992 140.952 106.824 140.952 106.68C141.336 106.944 141.696 107.208 142.008 107.52V107.832C141.648 107.616 141.288 107.376 140.928 107.16ZM142.056 108.624C142.056 108.696 142.056 108.744 142.08 108.816C141.672 108.792 141.264 108.744 140.88 108.72C140.88 108.456 140.904 108.192 140.904 107.928C141.288 108.168 141.672 108.408 142.056 108.624ZM141 105.888C141 105.672 141.024 105.456 141.024 105.264C141.408 105.456 141.744 105.696 142.08 105.96C142.056 106.2 142.056 106.416 142.032 106.656C141.72 106.392 141.36 106.128 141 105.888ZM141.696 104.88C141.84 104.88 142.008 104.904 142.152 104.904C142.152 105 142.152 105.072 142.128 105.168L141.696 104.88ZM136.368 114.168C137.496 113.208 138.576 112.176 139.752 111.288C139.896 111.288 140.04 111.312 140.184 111.312C139.08 112.32 137.976 113.304 136.8 114.216C136.656 114.192 136.512 114.168 136.368 114.168ZM134.76 113.952C135.24 113.688 135.696 113.304 136.08 112.968C136.8 112.392 137.496 111.792 138.192 111.192C138.36 111.192 138.552 111.216 138.72 111.216C137.592 112.128 136.56 113.136 135.432 114.024C135.216 114 135 113.976 134.76 113.952ZM138.168 108.528C136.512 108.432 134.856 108.336 133.2 108.216C128.496 107.904 123.984 107.184 119.352 106.464C116.328 105.984 113.136 105.768 110.088 105.384V100.272C115.104 101.856 120.36 102.696 125.544 103.344C129.792 103.872 134.064 104.328 138.336 104.664C138.312 105.936 138.216 107.232 138.168 108.528ZM132.6 113.64C133.776 112.8 134.928 111.96 136.056 111.072C136.464 111.096 136.848 111.12 137.256 111.144C136.848 111.504 136.416 111.864 135.984 112.2C135.504 112.584 134.712 113.424 134.064 113.496C133.872 113.52 133.776 113.664 133.752 113.808C133.368 113.76 132.984 113.688 132.6 113.64ZM130.752 113.376C131.904 112.584 133.008 111.72 134.184 110.952C134.472 110.976 134.76 110.976 135.024 111C133.992 111.792 132.936 112.56 131.856 113.328C131.784 113.376 131.736 113.448 131.712 113.52C131.424 113.472 131.088 113.424 130.752 113.376ZM128.928 113.112C129.816 112.368 130.704 111.6 131.544 110.808C132.072 110.832 132.576 110.88 133.104 110.904C132 111.672 130.92 112.488 129.792 113.256C129.48 113.184 129.192 113.136 128.928 113.112ZM126.84 112.776C127.704 112.104 128.52 111.36 129.288 110.592C129.48 110.616 129.672 110.64 129.84 110.64C130.104 110.664 130.344 110.688 130.608 110.688C129.768 111.456 128.904 112.2 128.016 112.944C127.632 112.896 127.248 112.848 126.84 112.776ZM125.16 112.512C125.928 111.768 126.696 111.048 127.56 110.424C127.848 110.448 128.136 110.496 128.424 110.52C127.632 111.288 126.816 112.008 125.904 112.632C125.664 112.608 125.424 112.56 125.16 112.512ZM123.024 112.176C123.912 111.6 124.728 110.904 125.496 110.16C125.856 110.208 126.24 110.256 126.6 110.304C125.808 110.952 125.064 111.648 124.32 112.392L123.888 112.32C123.624 112.272 123.312 112.224 123.024 112.176ZM120.72 111.792C121.536 111.096 122.376 110.448 123.216 109.8L124.656 110.016C123.84 110.76 122.976 111.456 122.016 111.984C121.584 111.936 121.152 111.864 120.72 111.792ZM118.176 111.408C119.088 110.832 119.928 110.136 120.768 109.416C121.272 109.512 121.8 109.584 122.304 109.656C121.464 110.304 120.648 110.976 119.856 111.648C119.28 111.576 118.728 111.48 118.176 111.408ZM116.256 111.096C117.12 110.472 117.96 109.824 118.752 109.104C119.136 109.176 119.52 109.224 119.904 109.296C119.04 110.016 118.152 110.712 117.144 111.264C116.832 111.192 116.544 111.144 116.256 111.096ZM114.12 110.736C115.008 110.136 115.848 109.488 116.64 108.768C117.048 108.84 117.48 108.888 117.888 108.96C117.096 109.656 116.28 110.304 115.416 110.88L115.344 110.952L114.12 110.736ZM111.696 110.328C112.56 109.752 113.376 109.104 114.192 108.432C114.504 108.456 114.816 108.504 115.104 108.552C115.32 108.576 115.536 108.6 115.752 108.648C114.936 109.368 114.048 109.992 113.136 110.592C112.68 110.496 112.176 110.4 111.696 110.328ZM109.464 109.92C110.208 109.368 110.928 108.744 111.648 108.168C112.176 108.216 112.728 108.288 113.256 108.336C112.44 108.984 111.6 109.608 110.712 110.16C110.304 110.088 109.872 110.016 109.464 109.92ZM107.064 109.488C107.76 108.984 108.456 108.432 109.128 107.88C109.656 107.952 110.184 108 110.712 108.048C109.992 108.648 109.296 109.224 108.528 109.752C108.048 109.68 107.568 109.584 107.064 109.488ZM104.664 109.008C105.144 108.576 105.696 108.192 106.176 107.736C106.248 107.664 106.272 107.568 106.272 107.496C106.92 107.592 107.568 107.712 108.216 107.784C107.544 108.312 106.872 108.84 106.176 109.32L105.024 109.104C104.904 109.056 104.784 109.032 104.664 109.008ZM107.376 101.328V102.36C106.848 101.688 106.296 101.016 105.792 100.32C105.792 100.008 105.768 99.72 105.768 99.408C106.368 100.008 106.896 100.656 107.376 101.328ZM106.056 98.784C106.488 98.976 106.944 99.144 107.376 99.336V100.248C106.968 99.72 106.536 99.216 106.056 98.784ZM107.4 103.44V104.208C106.92 103.704 106.368 103.248 105.912 102.72C105.888 102.312 105.864 101.88 105.864 101.472C106.344 102.144 106.872 102.792 107.4 103.44ZM107.136 104.952L106.344 104.808L105.984 104.736C105.96 104.4 105.96 104.064 105.936 103.752C106.344 104.136 106.776 104.52 107.136 104.952ZM94.512 105.24C94.2 105.504 93.9119 105.768 93.6 106.032C93.24 105.864 92.88 105.672 92.568 105.456C93.072 105.168 93.864 105.192 94.512 105.24ZM96.6 105.432C96.144 105.84 95.688 106.272 95.184 106.632C94.872 106.536 94.5839 106.416 94.2719 106.32C94.656 105.984 95.04 105.624 95.448 105.312C95.832 105.336 96.216 105.384 96.6 105.432ZM98.496 105.768C97.968 106.224 97.488 106.728 96.936 107.16C96.624 107.064 96.2879 106.968 95.952 106.872C96.4559 106.44 96.936 105.984 97.464 105.576C97.824 105.624 98.16 105.696 98.496 105.768ZM100.104 106.104C99.576 106.656 99.048 107.184 98.4 107.568C98.184 107.52 97.944 107.448 97.728 107.376C98.28 106.896 98.76 106.368 99.336 105.936C99.6 105.984 99.84 106.032 100.104 106.104ZM101.424 106.416C100.896 106.824 100.392 107.256 99.912 107.712C99.84 107.784 99.816 107.856 99.816 107.904C99.624 107.856 99.456 107.808 99.264 107.76C99.84 107.328 100.344 106.776 100.848 106.248C101.04 106.32 101.232 106.368 101.424 106.416ZM103.152 106.848C102.648 107.352 102.096 107.856 101.568 108.336C101.208 108.264 100.872 108.168 100.512 108.096C101.064 107.568 101.64 107.088 102.264 106.632C102.552 106.704 102.864 106.776 103.152 106.848ZM103.56 107.4C103.848 107.832 104.376 108.024 104.856 107.952C104.496 108.24 104.16 108.504 103.848 108.84C103.344 108.744 102.84 108.624 102.36 108.528C102.768 108.144 103.176 107.784 103.56 107.4ZM98.136 95.208L98.712 94.488C98.976 94.704 99.264 94.944 99.528 95.16C99.072 95.16 98.616 95.184 98.136 95.208ZM96.456 95.184C96.936 94.704 97.368 94.2 97.8 93.672C97.944 93.792 98.064 93.912 98.208 94.032L97.2719 95.184C97.0079 95.208 96.72 95.208 96.456 95.184ZM94.944 95.016C95.496 94.392 96.072 93.768 96.696 93.192C96.816 93.192 96.936 93.168 97.056 93.168C97.104 93.168 97.152 93.144 97.2 93.144L97.2719 93.216C96.7439 93.888 96.168 94.488 95.568 95.112C95.376 95.088 95.16 95.064 94.944 95.016ZM93.696 93.888C93.504 94.08 93.312 94.296 93.12 94.488C93 94.44 92.88 94.392 92.784 94.344C93.072 94.152 93.384 94.008 93.696 93.888ZM94.896 93.624C94.944 93.576 94.968 93.528 94.968 93.504C95.16 93.456 95.352 93.408 95.568 93.36C95.088 93.84 94.632 94.344 94.2 94.848C94.08 94.824 93.936 94.776 93.816 94.728C94.152 94.368 94.536 94.008 94.896 93.624ZM23.688 44.9281H24.312C24.336 44.9281 24.36 44.928 24.384 44.904C24.432 44.976 24.48 45.048 24.528 45.1441C26.424 48.0961 29.736 50.736 33.12 48.552C35.832 52.848 41.184 54.648 46.032 55.104C51.408 55.6081 56.88 54.912 62.136 53.76C68.184 52.44 74.04 50.496 80.088 49.2C87.384 47.64 94.776 46.6081 102.24 46.3441C102.456 46.416 102.672 46.4161 102.936 46.3681C103.032 46.3441 103.104 46.344 103.2 46.32H103.608C103.896 46.32 104.136 46.224 104.328 46.104C111.12 44.688 118.032 43.7521 124.968 43.4881C131.448 43.2481 138.312 43.176 144.552 45.192C144.696 45.24 144.84 45.288 145.008 45.336C143.352 45.984 141.504 46.392 139.92 47.064C137.712 47.976 134.88 49.464 134.352 52.056C133.776 54.84 135 57.6961 136.248 60.1441C137.616 62.8801 139.32 65.4 140.832 68.064C143.112 72.144 144.384 79.776 150.192 80.304C153.552 80.616 157.176 78.144 159.72 76.224C163.008 73.752 165.84 70.728 168.792 67.896C168.888 67.8 168.96 67.704 169.032 67.584C169.128 67.584 169.2 67.56 169.296 67.536C177.024 66.312 184.632 73.536 187.752 79.92C188.808 82.104 189.336 84.384 189.312 86.568C188.952 85.752 188.544 84.96 188.016 84.24C187.752 83.904 187.176 84.216 187.44 84.576C188.232 85.656 188.76 86.88 189.216 88.152C189.144 88.704 189.048 89.232 188.904 89.76C188.76 88.56 188.376 87.384 187.728 86.328C187.512 85.944 186.912 86.304 187.152 86.664C188.016 88.104 188.4 89.784 188.28 91.464C188.088 91.872 187.896 92.28 187.656 92.688C187.824 91.512 187.752 90.312 187.464 89.088C187.368 88.656 186.72 88.8481 186.816 89.2561C187.224 90.9361 187.152 92.592 186.6 94.152C186.192 94.632 185.76 95.0881 185.256 95.496C185.664 94.488 185.832 93.384 185.832 92.2561C185.832 91.8241 185.16 91.8241 185.16 92.2561C185.136 93.7681 184.824 95.232 183.984 96.456C183.624 96.696 183.264 96.912 182.856 97.128C183.336 96.12 183.576 94.992 183.6 93.888C183.6 93.456 182.928 93.456 182.928 93.888C182.904 95.208 182.52 96.528 181.8 97.632C181.344 97.848 180.864 98.04 180.408 98.208C181.008 97.248 181.464 96.24 181.8 95.136C181.92 94.7281 181.272 94.536 181.152 94.968C180.744 96.288 180.144 97.512 179.304 98.616C178.92 98.736 178.536 98.88 178.152 98.976C178.8 98.136 179.28 97.2 179.568 96.192C179.688 95.784 179.04 95.592 178.92 96.024C178.536 97.296 177.864 98.4 176.952 99.336L175.8 99.624C176.256 99.048 176.64 98.4 177.024 97.776C177.264 97.416 176.664 97.056 176.448 97.44C175.92 98.28 175.416 99.192 174.672 99.888C174.288 99.96 173.904 100.032 173.544 100.104C173.88 99.648 174.192 99.144 174.504 98.664C174.744 98.304 174.168 97.968 173.928 98.328C173.472 98.976 173.064 99.696 172.56 100.272C172.224 100.32 171.888 100.368 171.552 100.44C171.816 100.056 172.056 99.672 172.296 99.264C172.512 98.88 171.936 98.544 171.72 98.928C171.384 99.504 171.024 100.08 170.592 100.584C170.112 100.656 169.656 100.728 169.176 100.8C169.56 100.416 169.944 100.008 170.328 99.624C170.64 99.312 170.16 98.832 169.848 99.144C169.272 99.72 168.696 100.32 168.144 100.92C167.904 100.944 167.64 100.992 167.4 101.016C167.688 100.704 167.976 100.368 168.24 100.056C168.504 99.72 168.048 99.2401 167.76 99.576C167.28 100.128 166.824 100.704 166.272 101.184C165.672 101.256 165.096 101.352 164.496 101.448C164.952 100.944 165.36 100.416 165.744 99.84C165.984 99.48 165.408 99.144 165.168 99.504C164.688 100.224 164.112 100.92 163.464 101.52C163.2 101.52 162.984 101.592 162.768 101.688C162.432 101.736 162.096 101.76 161.76 101.808C162.312 101.256 162.816 100.656 163.32 100.056C163.584 99.72 163.128 99.2401 162.84 99.576C162.144 100.392 161.448 101.208 160.656 101.928C160.512 101.952 160.368 101.952 160.224 101.976C160.512 101.64 160.776 101.28 161.016 100.872C161.232 100.488 160.656 100.152 160.44 100.536C160.104 101.112 159.696 101.64 159.192 102.072C158.664 102.12 158.112 102.168 157.584 102.192C157.896 101.88 158.184 101.568 158.472 101.232C158.736 100.896 158.28 100.416 157.992 100.752C157.56 101.304 157.056 101.808 156.528 102.24C156.144 102.264 155.736 102.288 155.352 102.288C155.736 101.832 156.096 101.352 156.456 100.848C156.72 100.488 156.12 100.152 155.88 100.512C155.424 101.16 154.968 101.808 154.392 102.336C153.792 102.36 153.192 102.36 152.592 102.384C152.88 102 153.12 101.592 153.36 101.16C153.552 100.776 152.976 100.44 152.784 100.824C152.496 101.4 152.16 101.952 151.728 102.408H150.696C150.984 102.072 151.248 101.736 151.536 101.376C151.8 101.04 151.32 100.56 151.056 100.896C150.648 101.4 150.24 101.904 149.808 102.408H149.088C149.448 101.928 149.736 101.376 149.976 100.8C150.144 100.392 149.472 100.224 149.328 100.632C149.064 101.304 148.704 101.88 148.248 102.408C147.792 102.408 147.36 102.384 146.904 102.384C147.216 101.976 147.48 101.52 147.72 101.04C147.912 100.656 147.336 100.32 147.144 100.704C146.832 101.304 146.496 101.856 146.064 102.36L144.552 102.288C144.888 101.88 145.2 101.472 145.488 101.04C145.728 100.68 145.152 100.344 144.912 100.704C144.552 101.256 144.12 101.76 143.688 102.24L142.248 102.168C142.632 101.784 142.968 101.352 143.28 100.896C143.52 100.536 142.944 100.2 142.704 100.56C142.32 101.136 141.864 101.712 141.288 102.12L140.136 102.048C140.496 101.664 140.832 101.256 141.168 100.824C141.432 100.488 140.952 100.008 140.688 100.344C140.232 100.896 139.776 101.496 139.248 101.976C138.96 101.952 138.672 101.928 138.408 101.904C138.696 101.616 138.984 101.304 139.248 100.968C139.512 100.632 139.056 100.152 138.768 100.488C138.384 100.968 137.976 101.4 137.52 101.832C137.064 101.784 136.608 101.76 136.152 101.712C136.44 101.4 136.68 101.088 136.92 100.752C137.16 100.392 136.584 100.056 136.344 100.416C136.032 100.872 135.672 101.28 135.288 101.64C134.808 101.592 134.352 101.544 133.872 101.52C134.232 101.136 134.592 100.752 134.952 100.392C135.264 100.08 134.784 99.6 134.472 99.912C133.968 100.416 133.512 100.968 132.984 101.448C132.672 101.424 132.336 101.4 132.024 101.352C131.784 101.328 131.52 101.304 131.28 101.28C131.808 100.896 132.36 100.512 132.864 100.08C133.2 99.816 132.72 99.336 132.384 99.6C131.688 100.152 130.992 100.632 130.296 101.16C130.104 101.136 129.936 101.112 129.744 101.112C130.056 100.776 130.344 100.44 130.632 100.08C130.896 99.744 130.44 99.264 130.152 99.6C129.744 100.08 129.336 100.584 128.88 101.016C128.352 100.968 127.824 100.896 127.296 100.848C127.632 100.512 127.92 100.128 128.16 99.696C128.352 99.312 127.776 98.976 127.584 99.36C127.296 99.912 126.888 100.344 126.432 100.752C125.88 100.68 125.328 100.632 124.8 100.56C125.208 100.2 125.616 99.84 126.048 99.48C126.384 99.192 125.904 98.712 125.568 99C125.016 99.48 124.488 99.984 123.888 100.44C123.432 100.392 122.976 100.32 122.52 100.248C122.856 99.9361 123.168 99.624 123.528 99.336C123.864 99.048 123.384 98.592 123.048 98.856C122.568 99.264 122.136 99.72 121.656 100.128C121.152 100.056 120.648 99.96 120.144 99.888C120.672 99.528 121.152 99.096 121.584 98.616C121.872 98.28 121.392 97.8 121.104 98.136C120.552 98.784 119.904 99.288 119.16 99.72C118.872 99.672 118.584 99.6 118.296 99.552C118.8 99.192 119.256 98.784 119.64 98.304C119.904 97.968 119.448 97.488 119.16 97.824C118.656 98.448 118.032 98.952 117.336 99.36C117.024 99.288 116.712 99.24 116.4 99.168C116.808 98.808 117.168 98.4 117.552 98.016C117.864 97.704 117.384 97.2241 117.072 97.536C116.592 98.04 116.112 98.568 115.584 98.976C115.392 98.928 115.176 98.88 114.984 98.832C115.368 98.544 115.728 98.208 116.064 97.848C116.376 97.536 115.896 97.056 115.584 97.368C115.128 97.824 114.648 98.256 114.144 98.616C113.664 98.496 113.16 98.352 112.68 98.208C112.92 97.992 113.16 97.776 113.4 97.536C113.712 97.2241 113.232 96.744 112.92 97.056C112.584 97.368 112.272 97.68 111.912 97.968C111.528 97.848 111.168 97.728 110.784 97.608L111.312 97.08C111.624 96.768 111.144 96.288 110.832 96.6L110.064 97.368C109.824 97.296 109.608 97.2 109.368 97.128C109.584 96.936 109.776 96.72 109.968 96.48C110.232 96.144 109.776 95.664 109.488 96C109.224 96.312 108.936 96.6 108.648 96.84C108.408 96.744 108.192 96.6721 107.952 96.576C107.88 96.552 107.808 96.528 107.76 96.504C108 96.288 108.24 96.096 108.48 95.88C108.816 95.616 108.336 95.136 108 95.4L107.064 96.192C106.776 96.072 106.488 95.928 106.2 95.808C106.344 95.712 106.488 95.592 106.632 95.472C106.968 95.208 106.632 94.632 106.296 94.896L105.504 95.472C105.072 95.256 104.64 95.04 104.208 94.8C104.568 94.584 104.928 94.344 105.288 94.128C105.648 93.912 105.312 93.312 104.952 93.552C104.472 93.84 104.016 94.128 103.536 94.416C103.176 94.2 102.816 93.984 102.48 93.768C102.768 93.552 103.056 93.312 103.344 93.072C103.68 92.808 103.344 92.232 103.008 92.496C102.624 92.784 102.264 93.096 101.88 93.384C101.448 93.096 101.016 92.784 100.584 92.472C100.824 92.376 101.088 92.304 101.328 92.232C101.736 92.112 101.568 91.464 101.16 91.584C100.752 91.68 100.344 91.824 99.96 91.968C99.696 91.752 99.432 91.512 99.168 91.296C99.576 91.104 100.008 90.936 100.416 90.768C100.824 90.6 100.632 89.952 100.248 90.12C99.696 90.336 99.168 90.576 98.64 90.816L97.992 90.168C98.5919 90 99.168 89.784 99.744 89.592C100.152 89.448 99.984 88.8 99.576 88.944C98.88 89.184 98.184 89.424 97.464 89.6161C97.224 89.3521 97.008 89.112 96.768 88.848C97.224 88.632 97.68 88.44 98.136 88.224C98.52 88.032 98.184 87.456 97.8 87.648C97.32 87.888 96.8159 88.104 96.312 88.344C95.976 87.96 95.64 87.552 95.304 87.168C95.688 86.928 96.096 86.712 96.528 86.592C96.936 86.472 96.768 85.824 96.36 85.944C95.808 86.088 95.352 86.352 94.872 86.64C94.632 86.352 94.416 86.088 94.176 85.8C94.44 85.656 94.728 85.512 95.016 85.416C95.424 85.272 95.256 84.624 94.848 84.768C94.464 84.888 94.104 85.056 93.744 85.272C93.456 84.936 93.192 84.6 92.904 84.264C93.12 84.12 93.336 84 93.576 83.88C93.96 83.688 93.624 83.112 93.24 83.304C92.976 83.448 92.736 83.592 92.472 83.76C92.232 83.472 91.992 83.208 91.752 82.92C91.872 82.848 92.016 82.8 92.16 82.752C92.568 82.608 92.3999 81.96 91.992 82.104C91.752 82.176 91.512 82.272 91.296 82.392C90.984 82.056 90.696 81.72 90.36 81.384C90.6 81.216 90.816 81.024 91.008 80.736C91.248 80.376 90.672 80.04 90.432 80.4C90.288 80.616 90.096 80.76 89.88 80.88C89.52 80.52 89.136 80.136 88.752 79.8L89.256 79.296C89.568 78.984 89.088 78.504 88.776 78.816L88.248 79.344C87.936 79.08 87.6479 78.816 87.336 78.552L87.624 78.048C87.816 77.664 87.24 77.328 87.048 77.712C86.976 77.856 86.904 78 86.808 78.12C86.52 77.88 86.208 77.64 85.92 77.4L86.28 76.68C86.472 76.296 85.896 75.96 85.704 76.344C85.608 76.5601 85.488 76.776 85.392 76.992C85.152 76.8 84.888 76.632 84.624 76.44C84.672 76.296 84.696 76.152 84.768 76.008C84.96 75.624 84.36 75.264 84.192 75.672C84.144 75.792 84.096 75.936 84.048 76.056C83.712 75.816 83.352 75.6 82.992 75.384C83.112 75.144 83.184 74.904 83.208 74.616C83.232 74.184 82.56 74.184 82.536 74.616C82.536 74.76 82.488 74.904 82.44 75.048C82.128 74.856 81.792 74.688 81.48 74.52C81.624 74.232 81.792 73.944 81.96 73.68C82.176 73.296 81.6 72.96 81.384 73.344C81.216 73.632 81.048 73.92 80.88 74.232C80.592 74.088 80.3039 73.944 79.992 73.824C80.112 73.56 80.2319 73.272 80.352 73.008C80.52 72.6001 79.872 72.432 79.704 72.84C79.608 73.08 79.488 73.344 79.392 73.584C78.984 73.416 78.576 73.272 78.144 73.104C78.264 72.672 78.336 72.24 78.408 71.784C78.48 71.352 77.832 71.184 77.76 71.616C77.688 72.048 77.616 72.48 77.496 72.912L77.064 72.768C76.944 72.744 76.824 72.696 76.704 72.672C76.728 72.312 76.776 71.952 76.872 71.592C76.992 71.16 76.344 70.992 76.224 71.424C76.128 71.784 76.08 72.144 76.056 72.504C75.648 72.408 75.216 72.288 74.808 72.192C75.024 71.832 75.24 71.448 75.432 71.064C75.624 70.68 75.048 70.344 74.856 70.728C74.64 71.184 74.4 71.64 74.136 72.048C73.8 71.976 73.464 71.904 73.128 71.856C73.224 71.376 73.272 70.872 73.416 70.392C73.536 69.984 72.888 69.792 72.768 70.224C72.624 70.728 72.576 71.256 72.456 71.76C72.048 71.688 71.664 71.616 71.256 71.568C71.4 71.136 71.472 70.656 71.568 70.2C71.64 69.768 70.992 69.6 70.92 70.032C70.824 70.512 70.728 70.992 70.584 71.448C70.128 71.376 69.696 71.328 69.24 71.256C69.384 70.728 69.48 70.2 69.624 69.696C69.744 69.288 69.096 69.096 68.976 69.528C68.832 70.08 68.712 70.632 68.568 71.184C68.208 71.136 67.872 71.088 67.512 71.064C67.56 70.776 67.608 70.512 67.68 70.224C67.776 69.792 67.104 69.624 67.032 70.056C66.96 70.368 66.912 70.68 66.84 70.992C66.576 70.968 66.312 70.92 66.024 70.896C66.12 70.608 66.192 70.32 66.24 70.032C66.312 69.6 65.664 69.432 65.592 69.864C65.544 70.2 65.448 70.512 65.352 70.848C65.016 70.8 64.68 70.776 64.368 70.728H64.272C64.416 70.392 64.536 70.0321 64.608 69.648C64.68 69.216 64.032 69.048 63.96 69.48C63.888 69.912 63.744 70.296 63.576 70.68C63.24 70.656 62.904 70.632 62.592 70.584C62.712 70.248 62.808 69.912 62.88 69.552C62.952 69.12 62.304 68.952 62.232 69.384C62.16 69.768 62.04 70.152 61.896 70.536C61.488 70.512 61.104 70.488 60.696 70.44C60.768 70.2 60.84 69.984 60.936 69.768C61.104 69.36 60.456 69.192 60.288 69.6C60.192 69.864 60.096 70.128 60.024 70.416C59.688 70.392 59.328 70.368 58.992 70.344C59.064 70.08 59.16 69.84 59.208 69.576C59.28 69.144 58.632 68.976 58.56 69.408C58.512 69.72 58.416 70.032 58.32 70.32C58.008 70.296 57.72 70.296 57.408 70.272C57.552 70.008 57.672 69.744 57.792 69.48C57.96 69.072 57.312 68.904 57.144 69.312C57.024 69.624 56.856 69.96 56.664 70.248C56.28 70.224 55.92 70.2 55.536 70.2C55.656 69.96 55.8 69.72 55.92 69.48C56.112 69.096 55.536 68.76 55.344 69.144C55.176 69.48 55.008 69.84 54.792 70.176C54.456 70.152 54.144 70.152 53.808 70.128C53.904 69.96 54 69.816 54.12 69.672C54.384 69.336 53.904 68.856 53.64 69.192C53.424 69.48 53.232 69.768 53.04 70.08C52.656 70.056 52.248 70.0321 51.864 70.008C52.08 69.744 52.272 69.504 52.488 69.24C52.752 68.904 52.296 68.424 52.008 68.76C51.672 69.144 51.36 69.552 51.048 69.936L49.896 69.864C50.088 69.576 50.28 69.264 50.496 68.976C50.736 68.616 50.16 68.28 49.92 68.64C49.656 69.024 49.416 69.432 49.128 69.816C48.816 69.792 48.504 69.768 48.216 69.744C48.408 69.504 48.6 69.24 48.768 68.976C49.008 68.616 48.432 68.28 48.192 68.64C47.952 69 47.688 69.3361 47.424 69.648C47.064 69.6001 46.68 69.576 46.32 69.528C46.584 69.192 46.824 68.832 47.04 68.472C47.256 68.088 46.68 67.752 46.464 68.136C46.176 68.592 45.864 69.024 45.552 69.456L44.472 69.312C44.904 68.952 45.288 68.568 45.648 68.136C45.936 67.8 45.456 67.32 45.168 67.656C44.688 68.232 44.16 68.76 43.512 69.168C43.056 69.096 42.6 69.024 42.12 68.928C42.6 68.568 43.032 68.208 43.488 67.824C43.824 67.536 43.344 67.08 43.008 67.344C42.432 67.8241 41.856 68.304 41.232 68.712L41.208 68.736C41.16 68.712 41.088 68.712 41.04 68.712C40.68 68.64 40.32 68.568 39.96 68.472C40.44 68.088 40.944 67.704 41.424 67.32C41.76 67.032 41.28 66.576 40.944 66.84C40.344 67.344 39.72 67.8 39.12 68.28C38.616 68.16 38.112 68.016 37.584 67.872C38.112 67.464 38.64 67.104 39.192 66.744C39.552 66.504 39.216 65.928 38.856 66.168C38.136 66.624 37.464 67.104 36.792 67.632C36.336 67.488 35.856 67.32 35.4 67.152C35.808 66.936 36.192 66.648 36.624 66.432C37.008 66.24 36.672 65.64 36.288 65.856C35.736 66.144 35.232 66.528 34.656 66.768C34.632 66.792 34.608 66.792 34.584 66.816C33.936 66.528 33.288 66.216 32.688 65.856L34.272 64.992C34.656 64.8 34.32 64.224 33.936 64.416C33.288 64.752 32.688 65.136 32.04 65.448C31.632 65.184 31.248 64.872 30.888 64.56L30.792 64.464C31.128 64.272 31.488 64.08 31.824 63.864C32.184 63.624 31.848 63.048 31.488 63.288C31.104 63.528 30.696 63.744 30.288 63.984C29.928 63.624 29.616 63.216 29.304 62.808C29.664 62.664 30.024 62.496 30.384 62.352C30.792 62.184 30.432 61.608 30.048 61.776C29.664 61.944 29.304 62.112 28.896 62.256C28.656 61.872 28.416 61.464 28.224 61.08C28.632 61.08 29.064 60.984 29.496 60.864C29.904 60.744 29.736 60.096 29.328 60.216C28.824 60.36 28.344 60.48 27.888 60.336C27.624 59.784 27.408 59.208 27.192 58.632C27.768 58.752 28.392 58.656 28.992 58.512C29.424 58.416 29.232 57.768 28.824 57.864C28.176 58.008 27.528 58.104 26.928 57.864C26.712 57.144 26.496 56.424 26.328 55.704C26.904 55.848 27.48 55.968 28.08 55.992C28.512 55.992 28.512 55.32 28.08 55.32C27.408 55.2961 26.784 55.1521 26.136 54.9841C26.112 54.84 26.064 54.72 26.04 54.576C25.968 54.216 25.872 53.832 25.8 53.472C26.304 53.592 26.832 53.616 27.36 53.544C27.792 53.496 27.792 52.824 27.36 52.872C26.76 52.944 26.208 52.896 25.656 52.7281C25.56 52.224 25.464 51.744 25.368 51.24C25.656 51.216 25.968 51.2401 26.256 51.2881C26.688 51.3601 26.856 50.712 26.424 50.64C26.016 50.5681 25.608 50.544 25.224 50.592C25.128 50.184 25.056 49.7521 24.96 49.3441C25.176 49.368 25.392 49.368 25.632 49.368C26.064 49.368 26.064 48.696 25.632 48.696C25.368 48.696 25.08 48.6721 24.816 48.6481C24.696 48.1441 24.552 47.64 24.408 47.136C24.576 47.16 24.744 47.1841 24.936 47.208C25.368 47.28 25.536 46.608 25.104 46.56C24.792 46.512 24.504 46.464 24.192 46.44C23.952 45.744 23.832 45.3361 23.688 44.9281ZM23.16 43.296C23.256 43.296 23.376 43.296 23.472 43.272C23.64 43.584 23.808 43.92 23.976 44.232H23.448L23.16 43.296ZM22.536 41.28C22.728 41.736 22.92 42.1921 23.136 42.6241C23.064 42.6241 22.992 42.6241 22.944 42.6481C22.896 42.5041 22.848 42.336 22.8 42.192C22.704 41.88 22.608 41.568 22.536 41.28ZM22.872 33.912C22.824 33.744 22.752 33.5761 22.704 33.4081C22.8 33.4561 22.92 33.4801 23.016 33.5281C22.968 33.6481 22.92 33.792 22.872 33.912ZM19.728 31.6081C19.992 30.9601 20.184 30.264 20.328 29.5441C20.616 29.8561 20.736 30.288 20.616 30.696C20.4 30.792 20.184 30.96 20.016 31.224C19.92 31.392 19.848 31.5121 19.728 31.6081ZM18.768 29.952C18.792 29.88 18.888 29.6401 19.2 29.5441C19.344 29.496 19.512 29.448 19.68 29.424C19.536 30.0961 19.392 30.7441 19.128 31.3681C18.984 31.1761 18.84 30.936 18.816 30.792C18.672 30.384 18.648 30.288 18.768 29.952ZM16.272 21.576C21.552 20.064 25.08 27.6241 27.144 32.2801C25.872 31.7521 24.576 31.272 23.328 30.792C23.496 29.712 23.208 28.584 22.344 27.744C21.552 26.976 20.376 26.664 19.248 26.784C18.624 25.5121 17.592 23.616 16.272 21.576ZM14.832 26.3041C15 25.8961 15.168 25.488 15.312 25.08C15.456 25.32 15.576 25.536 15.72 25.776C15.624 26.016 15.504 26.2321 15.36 26.4481C15.168 26.4001 15 26.3521 14.832 26.3041ZM13.632 25.944C13.944 25.2241 14.208 24.504 14.496 23.784C14.616 23.976 14.736 24.144 14.832 24.336C14.616 24.936 14.4 25.536 14.136 26.112C13.992 26.04 13.824 25.9921 13.632 25.944ZM12.408 25.584C12.888 24.6 13.272 23.5681 13.752 22.5841C13.872 22.7521 13.992 22.92 14.088 23.112C13.68 23.976 13.392 24.888 12.984 25.776C12.792 25.704 12.6 25.632 12.408 25.584ZM11.232 25.2241C11.856 24.0001 12.312 22.68 12.984 21.456C13.104 21.624 13.2 21.768 13.32 21.936C12.816 22.992 12.384 24.072 11.904 25.128C11.808 25.152 11.712 25.224 11.688 25.344V25.368C11.52 25.32 11.376 25.2721 11.232 25.2241ZM9.86396 24.768C10.608 23.28 11.28 21.744 12.144 20.328C12.288 20.496 12.408 20.688 12.552 20.856C11.76 22.176 11.304 23.64 10.584 25.008C10.344 24.936 10.104 24.864 9.86396 24.768ZM8.20796 24.168C9.33596 22.56 10.32 20.8801 11.208 19.1521C11.376 19.368 11.544 19.56 11.712 19.776C10.752 21.288 10.032 22.944 9.21596 24.552C8.87996 24.432 8.54396 24.288 8.20796 24.168ZM6.88796 23.568C8.01596 21.672 9.04796 19.728 10.008 17.736C10.272 18.024 10.512 18.312 10.728 18.576C9.79196 20.424 8.75996 22.2 7.58396 23.88L7.07996 23.6641C7.03196 23.6401 6.95996 23.616 6.88796 23.568ZM5.11196 22.632C6.21596 20.5201 7.41596 18.4321 8.56796 16.3441C8.90396 16.6321 9.23996 16.92 9.55196 17.232C8.54396 19.296 7.46396 21.312 6.31196 23.28C5.87996 23.088 5.49596 22.848 5.11196 22.632ZM3.55196 21.336C4.07996 20.4 4.75196 19.512 5.23196 18.552C5.78396 17.472 6.31196 16.368 6.93596 15.312C7.29596 15.456 7.65596 15.6721 7.99196 15.9121C6.83996 18.024 5.63996 20.1121 4.53596 22.2241C4.17596 21.9601 3.83996 21.672 3.55196 21.336ZM4.05596 15.936C4.72796 15.168 5.49596 14.976 6.26396 15.12C5.59196 16.296 5.03996 17.52 4.36796 18.72C3.98396 19.416 3.50396 20.0881 3.09596 20.76C3.04796 20.664 2.99996 20.592 2.95196 20.496C2.30396 19.08 3.09596 17.04 4.05596 15.936Z" fill="black"/>
<path d="M88.32 62.2081C86.952 64.2481 85.488 66.576 86.088 69.1681C87.168 73.8481 93.192 75.648 97.224 76.68C101.688 77.808 106.344 78.048 110.808 79.152C116.016 80.448 121.104 82.2001 126.384 83.232C128.016 83.544 130.8 84.192 133.296 84.096C136.392 84.36 139.944 82.656 139.176 79.32C139.392 73.32 134.568 67.5121 131.4 62.9041C129.576 60.2641 128.088 57.3601 125.928 54.9841C123.912 52.7521 121.416 51.1201 118.56 50.0881C115.008 48.8161 110.88 47.8081 107.088 48.0481C102.96 48.3121 99.84 50.112 96.768 52.776C93.6 55.536 90.672 58.7041 88.32 62.2081ZM136.416 77.664C134.136 73.512 130.944 69.9601 128.352 65.952C125.76 61.944 122.904 58.0321 120.456 53.9281C123.168 55.584 125.112 58.0081 126.768 60.7441C128.712 63.9121 130.992 66.888 132.96 70.056C134.304 72.24 135.984 74.928 136.416 77.664ZM132.384 80.664C128.136 75.72 125.424 69.7921 122.064 64.2481C120.216 61.1761 118.32 58.1521 116.424 55.1281C115.944 54.3601 115.44 53.6161 114.96 52.8241C114.72 52.416 114.48 52.008 114.264 51.6C114.24 51.552 114.216 51.528 114.216 51.48C115.464 51.768 116.712 52.152 117.864 52.632C117.888 52.728 117.912 52.824 117.96 52.92C120.6 57.696 123.888 62.232 126.912 66.792C129.864 71.256 133.68 75.288 135.84 80.232C135.792 80.304 135.768 80.4 135.72 80.496C135.528 81.1441 134.568 81.384 133.416 81.4081C133.152 81.3601 132.864 81.312 132.6 81.216C132.6 81.048 132.528 80.856 132.384 80.664ZM92.136 61.5601C93.288 60.0721 94.5359 58.656 95.8559 57.312C99.1199 54.048 102.744 50.736 107.616 50.712C109.104 50.712 110.664 50.832 112.248 51.096C112.44 52.032 113.232 53.2321 113.496 53.6641C115.296 56.5921 117.168 59.472 118.968 62.4001C122.808 68.688 125.952 75.528 130.656 81.216C129.72 81.096 128.904 80.952 128.472 80.8801C124.44 80.1841 120.48 79.08 116.544 77.952C113.976 77.208 111.48 76.4641 108.84 76.08C105.504 75.576 102.168 75.12 98.88 74.328C98.8559 74.2801 98.8559 74.2561 98.8319 74.2081C96.4799 70.0561 94.152 65.8801 92.136 61.5601ZM88.704 67.3201C89.064 65.7601 90.048 64.368 90.984 63.072C92.712 66.72 94.656 70.248 96.648 73.752C93.168 72.84 87.864 70.9681 88.704 67.3201Z" fill="black"/>
</svg>
