<svg width="106" height="192" viewBox="0 0 106 192" fill="none" xmlns="http://www.w3.org/2000/svg">
<path d="M105.872 107.438C105.711 100.637 105.66 93.8349 105.263 87.0425C104.911 81.0146 104.222 74.9915 102.933 69.0883C102.019 64.9064 100.727 59.899 97.0238 57.293C94.5267 55.535 91.5184 56.7332 89.4922 58.5551C88.4927 59.454 87.6502 60.5353 86.9268 61.7148C86.4389 57.1508 85.8063 52.6035 85.0302 48.0796C83.2972 38.04 80.8141 28.3308 76.3691 19.1349C73.0387 12.2453 68.2467 4.59208 61.0079 1.31074C52.6947 -2.45767 45.0993 2.50897 39.4525 8.48084C33.8036 14.4545 30.1066 22.2915 27.385 30.1618C26.8576 30.6441 26.5517 31.3758 26.7346 32.0948C26.2721 33.5118 25.8313 34.9359 25.4126 36.3665C22.5225 46.2359 21.1431 56.5954 20.3707 66.8639C18.684 63.9309 16.492 61.3029 13.3047 59.9581C10.2781 58.6811 6.99194 60.1647 4.92152 62.4263C0.465158 67.2932 0.105867 72.8607 -0.00354004 80.191C0.0511634 81.5038 0.0502882 81.7393 0.0511634 82.215C0.0761082 96.6033 1.28396 110.955 1.42575 125.341C1.4984 132.716 0.981123 140.078 1.01745 147.453C1.05552 155.183 1.49577 163.031 3.24278 170.582C4.54691 176.221 7.04271 183.127 12.7546 185.659C18.4438 188.181 22.9964 185.833 26.8458 182.033C29.5333 179.614 31.7061 176.631 33.6789 173.584C34.5612 172.385 35.4097 171.249 36.2347 170.257C36.236 170.255 36.2281 170.255 36.2167 170.256C36.7309 170.181 37.418 169.973 37.9042 169.674C37.064 175.884 35.8526 182.032 34.6242 188.175C34.4246 189.174 34.896 190.366 36.0001 190.597C47.4419 192.995 59.9025 192.164 71.1823 189.284C72.5311 188.94 72.8436 187.521 72.3591 186.391C70.0344 180.97 67.6769 175.518 66.1798 169.806C67.9035 170.595 69.5485 171.546 71.093 172.645C71.1425 172.661 71.1924 172.672 71.2423 172.695C71.3902 172.76 71.5315 172.811 71.6707 172.852C75.2776 179.183 81.6631 188.542 89.6957 183.237C96.1306 178.988 98.1866 169.354 99.8474 162.382C102.559 150.994 104.88 139.72 105.665 128.006C106.124 121.15 106.035 114.303 105.872 107.438ZM75.7888 27.7071C74.121 29.3649 71.6786 30.5999 69.8475 31.9075C67.4962 33.5862 65.14 35.2392 62.9917 37.1717C61.7787 37.4932 60.5488 37.747 59.3077 37.9319C62.6875 35.3293 66.1553 32.848 69.6716 30.4309C71.5469 29.1421 73.1179 27.1163 75.1148 25.9636C75.3464 26.5421 75.571 27.1233 75.7888 27.7071ZM74.8046 29.5364C72.4401 32.9512 68.9613 35.1648 65.0923 36.5232C67.3539 34.6816 69.7823 33.0536 72.1368 31.3272C72.9888 30.7023 73.9192 30.1456 74.8046 29.5364ZM74.7818 25.1671C72.7451 26.3312 71.0624 28.2866 69.2292 29.6756C65.4074 32.5723 61.3808 35.1853 57.5997 38.1476L57.5988 38.1485C56.741 38.2386 55.8807 38.3019 55.019 38.3384C58.7125 35.9866 62.2031 33.3381 65.7496 30.7675C68.6874 28.6384 71.9407 26.9037 74.3731 24.1886C74.5135 24.5129 74.6457 24.8407 74.7818 25.1671ZM73.9884 23.316C71.4694 26.3369 67.8148 28.1942 64.6708 30.4729C60.93 33.1845 57.2491 35.9691 53.3004 38.3739C52.612 38.3762 51.9237 38.3612 51.2361 38.3288C58.7988 33.1871 66.1238 27.7071 73.5818 22.4158C73.7205 22.7151 73.854 23.0158 73.9884 23.316ZM73.202 21.6167C65.4004 27.1505 57.7467 32.8939 49.8138 38.24C49.3693 38.2039 48.9253 38.161 48.4821 38.1113C52.7087 35.0435 57.0784 32.1793 61.3799 29.217C63.926 27.4621 66.5137 25.7755 68.9994 23.9322C70.3005 22.9676 71.7482 22.197 72.9893 21.1668C73.0624 21.3156 73.1302 21.4666 73.202 21.6167ZM72.5845 20.3611C71.1587 21.6267 69.4025 22.5497 67.8817 23.677C65.4047 25.5142 62.8026 27.1763 60.2631 28.9251C55.9113 31.9228 51.4921 34.819 47.234 37.9494C46.6191 37.8624 46.0063 37.7615 45.396 37.647C50.283 34.1976 55.215 30.8143 60.3055 27.6704C62.8884 26.0748 65.4835 24.5125 68.0266 22.8512C69.3981 21.9554 70.7985 20.636 72.2576 19.7099C72.3696 19.9309 72.4746 20.1432 72.5845 20.3611ZM71.8541 18.9397C70.6147 19.7484 69.4616 20.8565 68.2778 21.6399C65.5137 23.4683 62.6897 25.1873 59.8626 26.9146C54.5043 30.1881 49.3456 33.7801 44.2218 37.408C43.9374 37.3446 43.6516 37.2838 43.368 37.2146C52.0383 29.883 62.3996 24.9002 71.2624 17.8242C71.4672 18.2001 71.6593 18.569 71.8541 18.9397ZM70.837 17.047C61.7921 24.3181 51.1565 29.3662 42.3391 36.9477C41.9667 36.8457 41.5943 36.7437 41.2262 36.6295C46.0953 32.7569 51.1709 29.1605 56.275 25.6048C60.888 22.3908 65.799 19.4228 70.1241 15.8032C70.3683 16.2177 70.6051 16.633 70.837 17.047ZM69.662 15.0488C65.1566 18.8513 59.9874 21.9545 55.1656 25.3138C50.0935 28.8472 45.0638 32.4423 40.2376 36.3057C39.7444 36.1372 39.2551 35.9571 38.7703 35.7656C40.702 34.0948 42.9291 32.8112 45.041 31.374C47.9591 29.3876 50.7849 27.2411 53.6483 25.1755C58.7725 21.4784 63.7812 17.5551 69.1185 14.1626C69.3062 14.4562 69.4804 14.7534 69.662 15.0488ZM68.2948 12.9206C68.4117 13.0895 68.5229 13.261 68.6366 13.4317C63.3151 16.8172 58.3099 20.7235 53.2059 24.4192C50.3425 26.4923 47.4817 28.5728 44.5986 30.6178C42.3431 32.2173 39.9326 33.5486 37.8749 35.3945C37.5757 35.2649 37.2787 35.1304 36.9839 34.991C39.3917 33.3127 41.6595 31.4502 43.9706 29.6384C47.3937 26.9549 51.1468 24.691 54.7586 22.2744C57.8889 20.1799 60.9322 17.9555 64.0682 15.8645C65.322 15.0291 67.2327 14.1569 68.2948 12.9206ZM67.7728 12.1762C66.6446 13.7407 63.8008 14.9923 62.2827 16.0058C59.1397 18.1047 56.0947 20.3414 52.9472 22.4324C49.9674 24.4109 46.9163 26.3067 44.0638 28.4695C41.3965 30.4926 38.8491 32.6571 36.0863 34.5481C35.8025 34.4024 35.5212 34.2518 35.2426 34.0965C37.8206 32.3158 40.0994 30.1487 42.4989 28.1303C46.1557 25.0542 50.1665 22.4223 54.1253 19.7629C57.1957 17.7012 60.3598 15.8094 63.3497 13.6282C64.3868 12.8711 65.9365 12.0834 66.9767 11.1167C67.2493 11.4643 67.5147 11.8175 67.7728 12.1762ZM66.4052 10.4086C65.9929 10.725 65.4507 11.0143 65.1129 11.2624C64.165 11.9582 63.2135 12.6492 62.2639 13.3424C59.2653 15.5315 56.0623 17.4098 52.9822 19.4784C49.5898 21.7567 46.2244 24.0569 43.017 26.5951C40.1116 28.8949 37.4845 31.5478 34.4014 33.6077C34.0361 33.384 33.6767 33.1508 33.3236 32.9083C40.3366 28.0463 46.4843 22.0495 53.5669 17.275C56.7428 15.1341 59.9874 13.1144 63.123 10.9088C63.5317 10.6217 64.6638 10.0138 65.4599 9.32634C65.7837 9.67644 66.0975 10.0392 66.4052 10.4086ZM64.856 8.6979C63.4249 9.72808 60.0333 12.0094 59.7252 12.2212C56.4903 14.447 53.1096 16.4365 49.9438 18.7633C44.0109 23.1247 38.6421 28.1955 32.5687 32.3679C32.3039 32.1701 32.0374 31.9744 31.7814 31.7653C39.3453 26.0687 46.2992 19.5117 54.1621 14.2321C56.4202 12.7158 58.7143 11.2563 60.9466 9.70007C61.428 9.36441 62.9553 8.53073 63.768 7.66598C64.1426 7.9972 64.5054 8.34139 64.856 8.6979ZM53.1087 4.05336C48.5438 6.88481 44.2691 10.2287 40.1422 13.7184C43.4389 9.26463 47.9469 4.90279 53.1087 4.05336ZM37.2872 18.043C37.5922 17.5259 37.906 17.0141 38.2285 16.5078C43.5282 11.9114 49.023 7.43928 55.0535 3.90194C55.4706 3.90807 55.892 3.93782 56.3165 3.99297C55.3358 4.50805 54.296 4.96362 53.5428 5.47434C51.4764 6.8765 49.5154 8.4257 47.5478 9.96133C43.8984 12.8099 40.414 15.8627 36.8473 18.8132C36.994 18.5563 37.1371 18.2981 37.2872 18.043ZM35.7183 20.8618C40.1169 17.3113 44.3496 13.5599 48.806 10.0812C50.9897 8.37668 53.2278 6.46775 55.6741 5.1448C56.2439 4.83671 56.8798 4.547 57.4885 4.21528C57.5196 4.22316 57.552 4.22797 57.583 4.23629C58.0208 4.34792 58.4521 4.48305 58.8753 4.64109C57.5585 5.86951 55.6443 6.83667 54.3262 7.82659C51.8225 9.70707 49.36 11.6396 46.8857 13.5573C42.589 16.8864 38.3629 20.3029 34.2338 23.8359C34.7072 22.834 35.2021 21.8424 35.7183 20.8618ZM33.3546 25.7418C38.3458 21.4075 43.491 17.2601 48.7307 13.2313C51.3061 11.2515 53.8286 9.19242 56.4798 7.31237C57.5156 6.5776 58.7681 5.90015 59.7257 4.99032C60.3538 5.2758 60.961 5.60528 61.5427 5.97629C60.8928 6.74958 59.4176 7.3557 58.6736 7.76969C57.0762 8.65939 55.573 9.73377 54.0155 10.693C51.3 12.3648 48.7508 14.1665 46.2865 16.1892C41.6459 19.9988 37.3458 24.2013 32.5039 27.7518C32.7831 27.0791 33.0606 26.4061 33.3546 25.7418ZM31.9052 29.2428C37.2373 25.512 41.9133 20.9668 46.9067 16.8076C49.9403 14.2807 53.2146 12.2519 56.5423 10.1504C57.9953 9.23312 59.4775 8.37362 60.9313 7.46073C61.3584 7.1929 61.9042 6.87299 62.263 6.46206C62.5653 6.67739 62.8608 6.902 63.1492 7.13557C62.154 8.05984 58.7909 10.1211 58.2797 10.4642C56.5515 11.6252 54.7682 12.714 53.072 13.921C45.5084 19.3038 38.6171 25.5553 31.1879 31.1145C31.4202 30.488 31.6593 29.8641 31.9052 29.2428ZM26.7171 48.0275C27.4655 43.7409 28.4856 39.4443 29.7967 35.2343C36.5559 40.4714 45.8314 42.4022 54.1765 42.3082C62.6893 42.2123 72.0948 39.5161 77.4435 32.5989C79.2552 38.531 80.481 44.6455 81.5147 50.7868C82.042 53.9421 82.4888 57.1104 82.8547 60.2885C82.8282 60.6348 82.8835 60.9824 83.0162 61.3034C83.088 62.0285 83.1527 62.7537 83.2311 63.478C83.2538 63.8324 83.2762 64.1869 83.3042 64.5405C83.3077 64.5567 83.3112 64.5729 83.3133 64.5891C83.4652 66.1982 83.5983 67.8091 83.7125 69.4214L83.7072 69.4376C83.7015 69.4564 83.7007 69.4735 83.6958 69.4923C83.7164 69.8844 83.7295 70.2756 83.7374 70.6682C83.7602 70.7246 83.7785 70.7837 83.8061 70.8367C84.1099 75.555 84.266 80.2816 84.2744 85.0097C84.2621 85.0959 84.2438 85.183 84.2315 85.2696C84.1949 85.5188 84.2086 85.7728 84.2718 86.0167C84.2701 87.335 84.2581 88.6533 84.2359 89.9715C84.0305 90.0435 83.8384 90.149 83.6674 90.2835C80.2119 92.9426 76.0242 94.6813 71.9775 96.2134C66.1426 98.4225 60.0801 100.065 53.9516 101.214C48.0804 102.315 42.0324 102.864 36.0697 102.313C31.7709 101.914 27.2248 100.668 24.1728 97.4987C23.9629 94.481 23.7992 91.4603 23.6818 88.4376C23.6721 87.909 23.6603 87.3803 23.6537 86.8517C23.4896 73.8405 24.48 60.8452 26.7171 48.0275ZM82.2967 103.908C81.8775 104.333 81.4388 104.738 80.9821 105.122C81.6635 101.763 82.6495 98.4794 83.5142 95.164C83.7081 95.0427 83.9028 94.9206 84.0928 94.7946C84.0534 95.7945 84.007 96.794 83.9536 97.7932C83.2197 99.7927 82.4412 101.798 82.2967 103.908ZM83.7707 100.944C83.7379 101.453 83.7099 101.962 83.6748 102.471C83.5433 102.564 83.4233 102.673 83.3173 102.794C83.4313 102.169 83.5827 101.551 83.7707 100.944ZM26.7578 104.155C27.0484 104.291 27.3443 104.418 27.6427 104.54C26.739 105.622 25.8896 106.747 25.073 107.896C25.0275 107.449 24.9859 107.003 24.9417 106.556C25.4913 105.715 26.0981 104.913 26.7578 104.155ZM24.8108 105.218C24.741 104.471 24.6737 103.723 24.6091 102.976C25.044 103.254 25.4907 103.514 25.9478 103.755C25.5486 104.226 25.1693 104.715 24.8108 105.218ZM28.5057 104.871C28.7127 104.946 28.9267 105.007 29.1363 105.076C27.7009 106.594 26.4646 108.284 25.3014 110.026C25.2721 109.756 25.2419 109.486 25.2134 109.216C26.2476 107.72 27.3281 106.259 28.5057 104.871ZM30.0707 105.373C30.4545 105.483 30.8453 105.578 31.2365 105.671C29.3652 107.632 27.613 109.691 26.1867 112.011C26.142 112.083 26.1213 112.167 26.1277 112.252C25.9172 112.135 25.7115 112.009 25.5045 111.885C25.4852 111.718 25.4681 111.55 25.4489 111.383C26.8318 109.253 28.2996 107.183 30.0707 105.373ZM26.9425 112.453C28.4283 110.037 30.275 107.914 32.2396 105.887C32.5358 105.947 32.8356 105.995 33.1354 106.046C31.3144 108.326 29.2869 110.433 27.7701 112.943C27.7491 112.978 27.7447 113.01 27.7337 113.044C27.4156 112.901 27.0979 112.76 26.7876 112.601C26.851 112.566 26.9043 112.515 26.9425 112.453ZM34.047 106.3C34.0732 106.267 34.0925 106.232 34.1078 106.197C34.5498 106.259 34.9949 106.31 35.4421 106.356C33.7336 108.839 32.0334 111.326 30.2856 113.781C30.2424 113.84 30.2158 113.91 30.2085 113.982C29.6418 113.802 29.0816 113.601 28.5289 113.381C30.0873 110.803 32.2019 108.663 34.047 106.3ZM31.0413 114.223C32.8724 111.652 34.6509 109.044 36.4412 106.446C37.0561 106.492 37.674 106.524 38.2937 106.545C36.2294 109.135 34.4229 111.914 32.5148 114.622C32.017 114.505 31.522 114.377 31.0304 114.236C31.0339 114.231 31.0374 114.227 31.0413 114.223ZM39.3987 106.57C39.9422 106.577 40.4867 106.571 41.0306 106.561C40.1479 107.851 39.2276 109.115 38.3541 110.412C37.3187 111.949 36.5406 113.627 35.5682 115.195C34.8563 115.089 34.1475 114.964 33.4426 114.82C35.39 112.039 37.2416 109.193 39.3987 106.57ZM38.6797 111.522C39.6924 109.78 40.9457 108.188 42.0936 106.528C42.7636 106.503 43.4297 106.464 44.0923 106.42C42.0302 109.308 40.2963 112.399 38.5987 115.52C38.26 115.493 37.9204 115.473 37.5821 115.441C37.2249 115.407 36.8682 115.367 36.5121 115.322C37.2723 114.081 37.9436 112.788 38.6797 111.522ZM45.2161 106.338C45.6599 106.302 46.0997 106.26 46.5373 106.217C44.8113 109.32 43.0323 112.391 41.7068 115.693C40.9886 115.672 40.2707 115.639 39.5536 115.593C41.2858 112.41 43.0586 109.252 45.2161 106.338ZM47.599 106.106C48.2407 106.033 48.8817 105.954 49.5219 105.869C47.9329 109.187 45.5434 112.105 44.5802 115.713C43.933 115.721 43.2853 115.722 42.6376 115.711C44.0074 112.368 45.8507 109.263 47.599 106.106ZM50.5416 105.731C51.3222 105.62 52.1018 105.501 52.8803 105.376C51.0239 108.722 49.3324 112.156 47.6747 115.608C46.9478 115.648 46.2205 115.681 45.4927 115.698C46.5334 112.08 48.9941 109.129 50.5416 105.731ZM53.9866 105.188C54.594 105.085 55.1993 104.97 55.8032 104.854C54.1056 108.337 52.3035 111.77 50.8274 115.356C50.1114 115.426 49.3946 115.49 48.676 115.539C50.3591 112.043 52.0838 108.569 53.9866 105.188ZM56.8754 104.644C57.6141 104.494 58.3511 104.336 59.0863 104.17C57.3668 107.706 55.8163 111.316 54.2772 114.934C53.4571 115.055 52.6352 115.165 51.8098 115.257C53.3253 111.639 55.1717 108.176 56.8754 104.644ZM60.1869 103.913C60.7725 103.774 61.3536 103.618 61.9366 103.469C60.3471 107.128 58.5677 110.705 57.1848 114.451C56.5533 114.566 55.9196 114.677 55.2872 114.78C56.8447 111.123 58.4259 107.477 60.1869 103.913ZM62.9982 103.201C63.8389 102.977 64.6769 102.743 65.512 102.499C63.9299 106.173 62.3068 109.827 61.0893 113.645C60.1252 113.865 59.1585 114.073 58.1887 114.259C59.6119 110.498 61.4162 106.897 62.9982 103.201ZM66.5982 102.171C67.0918 102.021 67.5806 101.859 68.0721 101.703C66.3575 105.306 64.8441 109.005 64.0302 112.915C63.3829 113.089 62.7352 113.257 62.084 113.415C63.347 109.571 65.0056 105.886 66.5982 102.171ZM69.2147 101.34C69.925 101.107 70.6327 100.864 71.339 100.618C69.8812 104.302 68.5977 108.04 67.5622 111.864C66.7065 112.144 65.8453 112.408 64.9794 112.655C65.8634 108.708 67.4511 104.98 69.2147 101.34ZM72.4309 100.229C72.4843 100.21 72.5376 100.192 72.5906 100.172C73.0746 99.9945 73.5621 99.8138 74.0505 99.6291C72.7101 103.319 71.2261 106.956 70.4979 110.835C69.8562 111.079 69.2105 111.313 68.5609 111.536C69.6283 107.693 70.9429 103.934 72.4309 100.229ZM75.1275 99.2138C75.8188 98.9447 76.5064 98.6662 77.1901 98.3783C76.7284 99.605 76.194 100.805 75.7126 102.03C74.7919 104.375 74.1901 106.969 73.7958 109.464C73.2755 109.7 72.7521 109.928 72.2317 110.146C71.9784 110.251 71.721 110.348 71.4663 110.45C72.2764 106.576 73.8006 102.93 75.1275 99.2138ZM76.3012 102.974C76.8457 101.233 77.6535 99.6133 78.2671 97.9131C78.7747 97.6873 79.2793 97.4554 79.78 97.2142C78.7296 100.707 77.8014 104.226 77.0846 107.801C76.323 108.232 75.5467 108.636 74.7573 109.014C75.1297 106.97 75.6816 104.955 76.3012 102.974ZM80.8622 96.6685C81.3939 96.395 81.9192 96.1093 82.4377 95.8117C81.5383 99.177 80.5532 102.518 79.9318 105.95C79.3403 106.389 78.7307 106.804 78.1047 107.193C78.8517 103.641 79.7988 100.142 80.8622 96.6685ZM28.9272 173.804C28.1836 174.853 27.4038 175.902 26.5845 176.896C26.0624 177.466 21.1234 183.817 14.8404 182.276C9.17089 180.885 7.54335 172.239 6.57313 167.363C3.44234 151.623 5.66987 135.267 5.25325 119.361C4.93465 107.193 4.04671 95.0449 3.9955 82.8684C3.9885 81.9944 4.11497 76.2252 4.60599 72.9907C5.11014 69.6678 6.36044 65.4333 9.54988 63.7322C13.7883 61.4714 17.534 69.6962 18.6994 72.2668C18.765 72.4121 18.8429 72.5338 18.9256 72.6458C19.1291 73.0585 19.3392 73.4659 19.5685 73.8624C19.5562 74.6992 19.5545 75.5355 19.5501 76.3713C18.9287 75.6081 18.3291 74.8256 17.6407 74.1206C17.246 73.7163 16.6276 74.3355 17.0219 74.7394C17.93 75.6694 18.6849 76.7311 19.5405 77.7057C19.5405 78.2763 19.5488 78.8466 19.5523 79.4177C18.6884 78.5774 17.8512 77.7087 16.9173 76.9442C16.4845 76.5897 15.8613 77.2055 16.2985 77.563C17.4556 78.5105 18.4644 79.6159 19.561 80.6277C19.5672 81.1389 19.5794 81.6496 19.5882 82.1603C18.597 81.4308 17.5917 80.7244 16.537 80.0846C16.0535 79.791 15.6136 80.5481 16.095 80.8404C17.3134 81.5796 18.4665 82.4075 19.607 83.2579C19.6188 83.8294 19.6376 84.4005 19.6529 84.9716C18.7965 84.2014 17.8543 83.5292 16.8285 83.0023C16.327 82.745 15.8845 83.4999 16.3865 83.7581C17.5353 84.3512 18.5875 85.1151 19.5072 86.0237C19.5568 86.0726 19.6175 86.1089 19.684 86.1296C19.6936 86.4372 19.7077 86.744 19.7182 87.0517C18.9265 86.614 18.1655 86.1309 17.4114 85.6285C16.9401 85.3143 16.5025 86.0727 16.9694 86.3843C17.8744 86.9873 18.7891 87.5641 19.7549 88.0639C19.7729 88.5265 19.7952 88.9886 19.8153 89.4507C19.0945 89.0818 18.3816 88.6976 17.7033 88.2542C17.2294 87.9444 16.7909 88.7024 17.2613 89.01C18.0915 89.5527 18.9729 90.0091 19.8591 90.4542C19.8761 90.8227 19.8971 91.1907 19.916 91.5592C19.0722 91.1562 18.214 90.7868 17.3068 90.5444C16.7611 90.3986 16.5296 91.2428 17.0744 91.3885C18.0867 91.6594 19.032 92.0936 19.9667 92.5544C19.9982 93.1452 20.0424 93.7355 20.0774 94.3259C19.3195 94.1666 18.5554 94.0441 17.7742 94.0296C17.2097 94.0191 17.2105 94.8944 17.7742 94.9049C18.5773 94.9198 19.3576 95.0563 20.1339 95.23C20.1794 95.9552 20.2367 96.6799 20.2875 97.4051C19.4635 97.2738 18.6258 97.2396 17.7747 97.2392C17.2101 97.2388 17.2101 98.114 17.7747 98.1144C18.6525 98.1149 19.5085 98.1516 20.3514 98.3053C20.375 98.6291 20.4039 98.9525 20.4284 99.2764C19.7926 99.0457 19.1304 98.879 18.4744 98.7149C17.9269 98.5779 17.6946 99.4212 18.242 99.5586C19.0074 99.7503 19.7816 99.9385 20.5059 100.247C20.5216 100.447 20.5405 100.645 20.5566 100.844C19.7793 100.802 19 100.871 18.242 101.049C17.6919 101.176 17.9252 102.019 18.4744 101.892C19.2009 101.725 19.9142 101.679 20.6319 101.733C20.6608 102.083 20.6941 102.435 20.7256 102.784C19.7926 102.787 18.8473 102.815 17.9501 103.091C17.4123 103.256 17.6416 104.101 18.1825 103.935C19.032 103.675 19.9212 103.66 20.803 103.659L20.8332 104.001C20.049 104.091 19.2945 104.296 18.5335 104.55C18.0005 104.727 18.2289 105.573 18.7659 105.394C19.4783 105.156 20.1781 104.959 20.9103 104.874C20.9483 105.288 20.9917 105.702 21.031 106.116C20.2989 106.29 19.5462 106.368 18.8245 106.593C18.2871 106.76 18.5164 107.605 19.0569 107.437C19.73 107.227 20.4311 107.149 21.1164 106.997C21.1763 107.609 21.242 108.221 21.3054 108.833C20.5549 109.18 19.7799 109.464 18.9409 109.495C18.3781 109.514 18.3764 110.389 18.9409 110.37C19.8114 110.34 20.6175 110.081 21.3986 109.743C21.4573 110.298 21.5225 110.85 21.5851 111.404C20.7689 111.67 19.9497 111.924 19.1164 112.136C18.5694 112.274 18.8013 113.118 19.3488 112.98C20.137 112.78 20.912 112.541 21.6844 112.291C21.7028 112.446 21.7186 112.603 21.7369 112.758C20.9693 113.06 20.2101 113.382 19.4083 113.595C18.863 113.74 19.0945 114.584 19.6407 114.439C20.3987 114.238 21.119 113.94 21.8437 113.652C21.8967 114.096 21.9487 114.539 22.003 114.984C20.9807 115.238 19.9694 115.516 19.0114 115.973C18.5024 116.216 18.9466 116.971 19.4534 116.729C20.3002 116.325 21.2026 116.079 22.1107 115.856C22.1754 116.377 22.2376 116.9 22.3037 117.42C21.3243 117.512 20.3654 117.733 19.4079 117.972C18.8604 118.109 19.0928 118.952 19.6403 118.816C20.5588 118.587 21.4744 118.374 22.4135 118.29C22.4673 118.705 22.5159 119.12 22.571 119.535C21.7334 119.858 20.8661 120.088 19.9908 120.307C19.4433 120.444 19.6757 121.287 20.2232 121.151C21.0617 120.941 21.8857 120.71 22.6897 120.413C22.7767 121.061 22.8629 121.707 22.9531 122.354C22.0415 122.877 21.0639 123.282 20.1781 123.852C19.7055 124.157 20.144 124.915 20.6201 124.608C21.4048 124.103 22.2643 123.732 23.0848 123.29C23.1605 123.824 23.2327 124.357 23.3102 124.89C22.301 125.181 21.3444 125.557 20.47 126.186C20.0166 126.512 20.4525 127.272 20.912 126.942C21.6967 126.378 22.5422 126.033 23.4376 125.765C23.5028 126.208 23.5636 126.65 23.6301 127.092C22.9238 127.649 22.0958 127.986 21.1588 128.185C20.6065 128.302 20.8407 129.145 21.3912 129.029C22.2616 128.845 23.0695 128.537 23.7798 128.071C23.9264 129.031 24.0677 129.992 24.2209 130.951C23.5255 131.361 22.7956 131.715 22.0341 131.979C21.5041 132.162 21.7321 133.008 22.2665 132.823C22.9941 132.567 23.6979 132.248 24.3697 131.87C24.4953 132.646 24.6209 133.424 24.7509 134.2C24.0629 134.488 23.3605 134.736 22.6174 134.896C22.0656 135.015 22.2993 135.858 22.8498 135.74C23.5597 135.587 24.2367 135.36 24.8984 135.09C24.9032 135.118 24.9075 135.144 24.9115 135.171C24.9833 135.596 25.062 136.019 25.1364 136.444C25.1653 136.652 25.1929 136.859 25.2218 137.068C25.2349 137.086 25.2441 137.109 25.2568 137.127C25.2756 137.233 25.2966 137.337 25.3159 137.443C24.4406 137.827 23.543 138.157 22.6174 138.399C22.0717 138.541 22.3032 139.385 22.8498 139.243C23.7496 139.008 24.6244 138.686 25.4791 138.32C25.5937 138.937 25.7058 139.555 25.8244 140.17C25.0003 140.583 24.0949 140.802 23.2008 141.026C22.6533 141.162 22.8857 142.006 23.4332 141.869C24.3027 141.652 25.1841 141.433 25.9994 141.06C26.1548 141.852 26.311 142.643 26.4712 143.433C25.5828 143.726 24.6918 144.005 23.7842 144.235C23.2376 144.374 23.4691 145.218 24.0165 145.079C24.904 144.853 25.7767 144.582 26.6462 144.296C26.7403 144.752 26.8292 145.21 26.9246 145.665C26.108 146.396 25.1382 146.873 24.0756 147.152C23.5303 147.296 23.7618 148.141 24.308 147.996C25.3373 147.726 26.2931 147.276 27.1263 146.633C27.3254 147.575 27.5272 148.518 27.7324 149.459C27.6396 149.451 27.547 149.477 27.4716 149.531C26.6357 150.088 25.8091 150.608 24.7754 150.638C24.2122 150.654 24.2108 151.53 24.7754 151.513C25.9727 151.478 26.9395 150.935 27.9136 150.286C28.0646 150.976 28.2147 151.665 28.3674 152.354C27.4931 152.985 26.6861 153.697 25.7211 154.199C25.22 154.459 25.6629 155.214 26.1631 154.955C27.0423 154.498 27.788 153.868 28.574 153.282C28.7285 153.972 28.8799 154.661 29.0353 155.351C28.9302 155.375 28.8375 155.437 28.774 155.524C28.0278 156.522 27.3036 157.519 26.3049 158.285C25.8638 158.623 26.2988 159.385 26.7469 159.041C27.7513 158.27 28.5062 157.327 29.2549 156.333L29.8221 158.844C28.7876 159.919 27.8502 161.084 26.7999 162.146C26.4029 162.548 27.0213 163.167 27.4187 162.765C28.3368 161.837 29.1696 160.831 30.0545 159.874L30.0978 160.064C30.2252 160.629 30.416 161.442 30.6733 162.367C30.6095 162.405 30.5578 162.461 30.5241 162.528C29.9307 163.676 29.1667 164.729 28.258 165.648C27.8624 166.051 28.4812 166.671 28.8768 166.267C29.7017 165.428 30.4152 164.486 30.9998 163.465C31.1895 164.077 31.4007 164.682 31.633 165.279C31.5685 165.299 31.5096 165.334 31.4613 165.381C31.413 165.428 31.3766 165.486 31.3551 165.55C31.0321 166.463 30.4733 167.271 29.9403 168.071C29.626 168.542 30.3849 168.98 30.6961 168.513C31.1906 167.771 31.6724 167.022 32.0234 166.205C32.3065 166.833 32.619 167.436 32.9656 167.974C31.4247 169.72 30.2365 171.817 28.9272 173.804ZM35.9244 170.287C35.9585 170.286 35.9983 170.281 36.036 170.278C35.9738 170.285 35.9213 170.292 35.9244 170.287ZM46.2139 167.534C47.1333 167.387 48.0572 167.269 48.9841 167.182C46.206 168.977 43.7474 171.219 41.2915 173.441C41.3886 172.814 41.491 172.19 41.5816 171.563C43.0901 170.187 44.5312 168.668 46.2139 167.534ZM41.775 170.195C41.8494 169.653 41.9247 169.111 41.9938 168.568C42.0013 168.511 42.0039 168.457 42.0065 168.402C42.7759 168.207 43.5479 168.031 44.322 167.875C43.4441 168.608 42.6105 169.408 41.775 170.195ZM50.8939 167.05L50.8983 167.047C51.6095 167.015 52.3215 167.003 53.0334 167.011C48.9421 170.179 44.982 173.519 40.7891 176.552C40.8871 175.97 40.9869 175.389 41.0805 174.807C44.1851 172.014 47.2358 169.103 50.8939 167.05ZM54.4111 167.048C55.0225 167.076 55.6325 167.12 56.2413 167.18C56.0711 167.303 55.9046 167.431 55.7419 167.563C54.0085 168.998 52.1831 170.317 50.4037 171.694C46.9115 174.396 43.5636 177.3 40.1615 180.12C40.3033 179.333 40.4512 178.548 40.5873 177.76C45.3391 174.38 49.7753 170.585 54.4111 167.048ZM50.3722 172.816C52.3127 171.291 54.3091 169.839 56.2347 168.295C56.6242 167.982 57.085 167.671 57.4933 167.327C57.8465 167.374 58.197 167.427 58.548 167.486C57.0395 168.808 55.5822 170.19 54.0409 171.473C49.1989 175.508 43.9234 179.029 39.5195 183.555C39.6521 182.853 39.7908 182.153 39.9208 181.451C43.4109 178.585 46.8231 175.607 50.3722 172.816ZM53.3363 173.169C54.7275 172.058 56.0553 170.884 57.3804 169.695C57.8058 169.315 58.6303 168.398 59.4237 167.647C60.0237 167.765 60.6202 167.903 61.2136 168.057C58.025 171.19 54.4658 173.968 51.1026 176.906C47.1828 180.332 43.266 183.779 38.9261 186.668C39.0228 186.163 39.1178 185.657 39.2149 185.152C43.3991 180.572 48.5084 177.022 53.3363 173.169ZM39.6088 187.264C43.4787 184.663 47.0235 181.628 50.5342 178.563C54.2956 175.28 58.2946 172.168 61.8538 168.653C62.0031 169.337 62.1698 170.016 62.3444 170.692C62.0424 171.001 61.7475 171.316 61.4495 171.613C59.2578 173.803 56.6229 175.62 54.1695 177.502C49.9543 180.736 45.6634 183.865 41.8494 187.578C41.0998 187.487 40.3519 187.385 39.6088 187.264ZM42.9803 187.713C46.7946 184.089 51.0488 180.993 55.2185 177.793C57.1261 176.329 59.0338 174.864 60.863 173.302C61.4595 172.792 62.0193 172.186 62.5939 171.608C62.828 172.456 63.0853 173.297 63.3518 174.135C63.2993 174.157 63.2477 174.19 63.1991 174.239C58.0298 179.593 51.3888 183.207 45.6826 187.936C44.7794 187.879 43.8774 187.807 42.9803 187.713ZM46.9741 188.005C52.4593 183.594 58.6994 180.086 63.642 175.035C63.8709 175.727 64.1129 176.414 64.3606 177.101C59.6246 180.863 54.6325 184.29 49.9118 188.071C48.9322 188.07 47.9528 188.048 46.9741 188.005ZM51.3144 188.061C55.6995 184.606 60.2906 181.42 64.6721 177.96C64.8914 178.551 65.119 179.138 65.347 179.726C61.4105 182.154 57.7743 185.016 54.2006 187.952C53.2391 188.004 52.2772 188.045 51.3144 188.061ZM67.9421 186.015C66.052 186.444 64.1269 186.811 62.1834 187.113C63.758 185.946 65.382 184.843 66.9487 183.665C67.2763 184.449 67.6075 185.233 67.9421 186.015ZM66.6034 182.832C64.5693 184.381 62.4306 185.792 60.4184 187.369C58.85 187.578 57.2714 187.742 55.6877 187.86C58.892 185.251 62.1615 182.728 65.6726 180.551C65.9772 181.314 66.2892 182.074 66.6034 182.832ZM71.5508 168.217C61.3046 161.773 41.9536 164.27 36.3288 165.998C36.2902 165.944 36.2531 165.888 36.2176 165.831C33.7187 157.39 31.545 148.846 29.7372 140.228C29.1228 136.8 28.5731 133.358 28.0147 129.924C27.2961 125.505 26.6525 121.074 26.0843 116.633C29.3919 118.097 33.0409 118.828 36.6023 119.272C42.8897 120.056 49.2935 119.617 55.5393 118.704C61.7584 117.794 67.922 116.185 73.7245 113.756C77.015 112.379 80.3856 110.702 83.2026 108.414C81.334 128.66 77.1017 148.67 71.5508 168.217ZM98.4513 151.277C96.6842 159.245 95.2037 168.036 91.3364 175.29C89.8314 178.114 87.0699 181.82 83.4114 180.637C81.2346 179.934 79.4447 177.515 78.1555 175.762C76.9354 174.102 75.8859 172.318 74.8781 170.522C75.1596 170.181 75.4181 169.821 75.6518 169.445C76.1822 170.045 76.7122 170.646 77.275 171.216C77.6719 171.618 78.2903 170.999 77.8938 170.597C77.2723 169.968 76.6899 169.302 76.1043 168.639C76.5669 167.743 76.9297 166.786 77.2264 165.812C78.1914 166.766 79.0495 167.819 79.8999 168.882C80.253 169.323 80.8679 168.699 80.5187 168.264C79.5677 167.075 78.6062 165.9 77.4977 164.861C77.6548 164.271 77.7975 163.681 77.9266 163.102C78.0111 162.724 78.0881 162.346 78.169 161.968C79.2574 162.987 80.137 164.21 81.067 165.382C81.4184 165.824 82.0329 165.2 81.6858 164.763C80.6373 163.441 79.6447 162.094 78.3765 160.998C78.5502 160.154 78.7209 159.311 78.8903 158.471C79.8093 159.269 80.5616 160.238 81.2898 161.209C81.6245 161.656 82.3851 161.22 82.046 160.767C81.155 159.579 80.2526 158.424 79.0872 157.495C79.2329 156.781 79.3813 156.066 79.5375 155.353C80.4049 156.302 81.1401 157.365 81.9418 158.379C82.2915 158.822 82.9068 158.198 82.5606 157.76C81.6416 156.598 80.8123 155.374 79.7686 154.33C79.8811 153.846 79.9966 153.362 80.1196 152.878C80.7611 153.461 81.3482 154.101 81.8736 154.79C82.2105 155.234 82.9711 154.799 82.6298 154.348C81.9615 153.465 81.202 152.654 80.3637 151.93C80.6313 150.931 80.89 149.93 81.1401 148.926C81.8727 149.713 82.674 150.436 83.3322 151.289C83.6713 151.729 84.4333 151.294 84.0884 150.847C83.2713 149.787 82.2416 148.922 81.3904 147.895C81.5834 147.102 81.7777 146.31 81.9615 145.515C82.5777 146.061 83.1142 146.706 83.6932 147.292C84.0897 147.695 84.7085 147.076 84.312 146.674C83.6101 145.961 82.9641 145.179 82.183 144.559C82.3589 143.784 82.5322 143.008 82.6998 142.231C83.3326 142.886 83.9483 143.559 84.5002 144.286C84.8372 144.73 85.5978 144.295 85.2564 143.844C84.5413 142.903 83.7431 142.043 82.9186 141.202C83.0053 140.789 83.0963 140.376 83.1821 139.963C83.7562 140.494 84.3146 141.042 84.7925 141.661C85.1317 142.101 85.8936 141.666 85.5488 141.219C84.9072 140.388 84.1466 139.677 83.3808 138.968C83.5479 138.137 83.7182 137.306 83.877 136.473C84.5355 137.127 85.1565 137.816 85.7369 138.54C86.0923 138.979 86.7072 138.356 86.3558 137.921C85.6536 137.046 84.8888 136.224 84.0674 135.46C84.179 134.862 84.2901 134.264 84.3974 133.664C84.8792 134.134 85.291 134.68 85.6678 135.241C85.9811 135.707 86.7391 135.269 86.424 134.799C85.8958 134.012 85.3041 133.249 84.575 132.648C84.6827 132.033 84.7908 131.417 84.8945 130.802C85.495 131.358 86.0466 131.965 86.543 132.616C86.88 133.059 87.6406 132.624 87.2993 132.174C86.6392 131.301 85.8903 130.499 85.0647 129.781C85.2013 128.95 85.3378 128.118 85.4678 127.285C86.1803 127.932 86.8333 128.642 87.4192 129.407C87.7566 129.849 88.5176 129.414 88.1754 128.965C87.4216 127.977 86.5661 127.071 85.6232 126.262C85.7383 125.509 85.8547 124.757 85.9649 124.001C86.4625 124.577 86.9544 125.159 87.4875 125.702C87.8835 126.105 88.5019 125.486 88.1063 125.083C87.4104 124.376 86.7872 123.601 86.1277 122.861C86.2131 122.257 86.3032 121.654 86.3868 121.047C86.4065 120.906 86.4236 120.764 86.4424 120.622C87.2104 121.209 87.9645 121.814 88.655 122.492C89.0581 122.887 89.6769 122.268 89.2738 121.873C88.4371 121.051 87.5085 120.332 86.5719 119.626C86.6603 118.927 86.7452 118.229 86.8253 117.529C87.5583 118.141 88.2747 118.773 89.0353 119.351C89.4848 119.693 89.9202 118.932 89.4773 118.595C88.603 117.93 87.7868 117.196 86.9365 116.502C86.9982 115.937 87.0634 115.373 87.1194 114.808C88.0511 115.446 89.003 116.054 89.9106 116.725C90.3653 117.062 90.8007 116.301 90.3526 115.969C89.3307 115.213 88.2555 114.536 87.2144 113.808C87.2524 113.403 87.2927 112.999 87.3277 112.595C88.1238 113.194 89.0152 113.652 89.9106 114.099C90.4134 114.351 90.8572 113.597 90.3526 113.343C89.3207 112.826 88.28 112.305 87.4144 111.533C87.4607 110.976 87.5093 110.417 87.5513 109.86C88.4109 110.343 89.3145 110.744 90.202 111.182C90.7062 111.43 91.15 110.676 90.6441 110.426C89.6296 109.925 88.592 109.473 87.6253 108.89C87.6428 108.642 87.6643 108.394 87.6813 108.147C88.48 108.307 89.2126 108.637 89.9115 109.139C90.371 109.47 90.8073 108.71 90.3535 108.383C89.5469 107.804 88.6778 107.435 87.7391 107.266C87.7772 106.681 87.8214 106.095 87.8546 105.509C88.6244 105.966 89.4502 106.318 90.2029 106.804C90.6786 107.112 91.1167 106.355 90.6449 106.049C89.8016 105.503 88.8629 105.135 88.0192 104.59C87.9845 104.568 87.9469 104.55 87.9076 104.538C87.9211 104.285 87.9365 104.032 87.95 103.778C88.7334 103.94 89.5399 103.987 90.3084 104.223C90.8493 104.39 91.0791 103.545 90.5408 103.38C89.7102 103.124 88.834 103.092 87.9912 102.895C88.0144 102.406 88.0389 101.917 88.0594 101.427C89.0331 101.583 90.0209 101.613 91.0077 101.613C91.5723 101.614 91.5723 100.738 91.0077 100.738C90.0322 100.738 89.055 100.714 88.0944 100.546C88.1106 100.121 88.1299 99.6952 88.1443 99.2689C88.1662 99.2654 88.1846 99.2698 88.2069 99.2628C88.8962 99.0497 89.8095 98.9105 90.4953 99.2181C91.006 99.447 91.4519 98.6934 90.9377 98.4624C90.0852 98.0799 89.0695 98.1215 88.1745 98.363C88.1929 97.7924 88.2135 97.223 88.2292 96.6519H91.3005C91.865 96.6519 91.865 95.7762 91.3005 95.7762H88.2533C88.2616 95.4729 88.2712 95.1705 88.2787 94.8668C89.2065 94.6007 90.2638 94.6051 91.185 94.8852C91.7263 95.0497 91.9561 94.2047 91.4173 94.041C90.4353 93.7425 89.3075 93.7163 88.2971 93.9574C88.3106 93.2708 88.3268 92.5855 88.3382 91.8975C89.4804 91.7238 90.6331 91.7085 91.7688 91.968C92.3184 92.0936 92.5517 91.2494 92.0011 91.1238C90.7902 90.8476 89.5697 90.8494 88.3535 91.017L88.3671 89.8853C89.2594 89.656 90.1872 89.7649 91.0926 89.6494C91.6357 89.5803 91.6734 88.7807 91.0926 88.7742H91.0099C90.9801 88.7742 90.9578 88.7855 90.9298 88.7904C90.0817 88.8766 89.2174 88.8131 88.3785 88.9812L88.3951 87.607H91.5933C92.1578 87.607 92.1578 86.7318 91.5933 86.7318H88.4069V86.7169C88.4708 86.7169 88.5373 86.7046 88.6056 86.6718C89.6183 86.1869 90.7587 85.8779 91.8852 85.8565C92.4488 85.846 92.4497 84.9707 91.8852 84.9812C90.6909 85.004 89.5062 85.3147 88.4174 85.8018C88.4209 85.4893 88.4266 85.1773 88.4288 84.8648C88.9736 84.5931 89.5198 84.323 90.0835 84.0911C90.4659 83.934 91.0594 83.6438 91.4769 83.7988C92.0068 83.9961 92.2335 83.1498 91.7092 82.9546C91.1727 82.755 90.5443 82.9905 90.0384 83.1743C89.4909 83.3734 88.9609 83.6242 88.4375 83.8832C88.4389 83.6684 88.4432 83.4539 88.4441 83.2386C88.502 83.2272 88.5569 83.2041 88.6056 83.1708C89.4314 82.6163 90.3088 82.0443 91.0274 81.352C91.4353 80.9599 90.8156 80.3415 90.4086 80.7332C89.8222 81.2977 89.1237 81.7717 88.4432 82.2277C88.4437 81.7292 88.4454 81.2308 88.4423 80.7323C89.2703 79.9284 90.2025 79.3157 91.2314 78.7945C91.7342 78.5394 91.2917 77.7844 90.7889 78.0387C89.9412 78.468 89.1539 78.966 88.4319 79.5656C88.4284 79.2829 88.4292 79.0002 88.4244 78.7175C89.3255 78.1065 90.2458 77.4396 91.0265 76.6838C91.4331 76.2908 90.8139 75.6725 90.4077 76.065C89.7994 76.6536 89.1045 77.1814 88.403 77.672C88.3924 77.1708 88.3785 76.6697 88.3614 76.1687C89.392 75.2217 90.5644 74.4677 91.8134 73.8349C92.3167 73.5797 91.8742 72.8248 91.3714 73.0791C90.2856 73.6292 89.2515 74.272 88.3146 75.0418C88.2975 74.6488 88.2831 74.255 88.2621 73.862C88.2791 73.8532 88.2957 73.8462 88.3124 73.8349L90.9381 72.0844C91.4051 71.7732 90.967 71.0148 90.4961 71.3286L88.1995 72.8598C88.178 72.5167 88.1614 72.1732 88.136 71.8301C88.9399 71.1881 89.7504 70.5176 90.6454 70.0424C91.1443 69.7776 90.7023 69.0218 90.2034 69.2866C89.4419 69.6914 88.7412 70.2371 88.0537 70.7868C88.0336 70.5531 88.0209 70.3185 87.9986 70.0848C88.8419 69.249 89.7027 68.4284 90.6454 67.7081C91.0878 67.3707 90.6528 66.6096 90.2034 66.9523C89.4314 67.5418 88.7137 68.1899 88.013 68.8586C89.0034 65.7738 90.5981 61.6946 93.4094 60.5314C96.8352 59.1135 98.5244 67.5413 98.9638 69.368C102.135 82.555 101.633 96.3911 101.998 109.853C102.372 123.772 101.47 137.664 98.4513 151.277Z" fill="black"/>
<path d="M56.2089 86.5589C64.7474 85.7475 72.6488 79.6046 74.0672 70.9093C75.6466 61.2264 68.8673 50.4598 59.2701 48.108C59.039 47.8726 58.7139 47.6975 58.2727 47.6336C43.4341 45.4718 32.7065 62.9436 37.6526 76.1468C40.481 83.7003 48.4834 87.2937 56.2089 86.5589ZM40.8832 73.9596C40.7417 73.5035 40.6244 73.0403 40.5317 72.5719C42.249 71.7198 44.2796 71.2966 45.8493 70.2516C46.0935 70.0892 46.3684 69.9553 46.6489 69.8262C46.6935 70.0542 46.7465 70.2796 46.8043 70.5023C44.8818 71.7386 42.8945 72.869 40.8832 73.9596ZM41.1759 74.7972C43.1746 73.7158 45.1518 72.5959 47.0664 71.3745C47.1885 71.7242 47.3347 72.0598 47.4931 72.3889C47.1841 72.5885 46.876 72.7889 46.5644 72.9828C44.9474 73.992 43.3859 75.076 41.8061 76.1407C41.5684 75.7064 41.358 75.2577 41.1759 74.7972ZM42.2503 76.8956C44.0358 75.6939 45.8165 74.4979 47.6336 73.3438C47.7128 73.294 47.8112 73.2375 47.9206 73.1771C48.0786 73.4384 48.2546 73.6865 48.4388 73.9281C46.6423 75.279 44.9063 76.714 43.3584 78.3446C42.9508 77.8921 42.5802 77.4075 42.2503 76.8956ZM43.9654 78.9752C45.4988 77.3578 47.2178 75.9333 49.0003 74.5946C49.153 74.7548 49.3154 74.9062 49.4821 75.0532C47.9613 76.6164 46.501 78.2492 45.3373 80.0921C44.8526 79.7548 44.394 79.3815 43.9654 78.9752ZM46.4371 80.784C46.3119 80.7148 46.1938 80.64 46.073 80.5673C47.2222 78.7464 48.669 77.1394 50.1736 75.5968C50.3136 75.6935 50.4633 75.7797 50.6112 75.8676C49.3885 77.591 48.1408 79.2912 47.1417 81.1459C46.9036 81.0316 46.6686 80.9109 46.4371 80.784ZM50.4121 68.614C51.9464 67.4582 53.1402 65.9514 54.5533 64.6587C55.5328 63.7614 56.4979 62.8485 57.4482 61.9204C57.6732 61.7016 57.766 61.4557 57.7721 61.2159C58.2923 61.5655 58.767 61.9786 59.1852 62.4456C58.2031 63.5134 56.7612 64.3436 55.6645 65.2219C53.9231 66.6153 52.356 68.2065 50.6764 69.6704C50.5649 69.3245 50.4766 68.9716 50.4121 68.614ZM47.9298 81.4968C48.9202 79.6592 50.1762 77.9753 51.3906 76.2724C51.43 76.2899 51.4659 76.3118 51.5061 76.3285C50.7372 78.1971 49.9709 80.0908 49.6191 82.0789C49.0452 81.9177 48.4812 81.7234 47.9298 81.4968ZM53.2225 82.6679C52.2929 82.6185 51.369 82.4922 50.4602 82.2903C50.7902 80.331 51.5657 78.4566 52.3241 76.6234C52.6383 76.7175 52.9599 76.8007 53.2995 76.8606C53.2413 78.8015 53.061 80.7336 53.2225 82.6679ZM54.096 82.692C53.914 80.7905 54.1043 78.879 54.1713 76.9709C54.4273 76.9939 54.6841 77.0072 54.9411 77.0107C55.089 77.012 55.2352 77.005 55.3813 77.0002C55.4737 78.8838 55.808 80.7336 56.1774 82.5795C55.4864 82.6579 54.7901 82.6942 54.096 82.692ZM54.9411 73.0721C53.5096 73.1377 52.454 72.5535 51.7096 71.6463C53.5901 70.0739 55.3222 68.333 57.2115 66.7685C58.239 65.9186 59.4075 65.1655 60.3983 64.2495C60.7321 64.9466 60.9524 65.6925 61.0508 66.4591C61.5366 70.3246 58.6653 72.901 54.9411 73.0721ZM57.0434 82.4588C56.6758 80.6317 56.3415 78.8015 56.2531 76.9368C56.6749 76.8853 57.0932 76.8082 57.5056 76.7057C58.0154 78.4798 58.6578 80.2115 59.1922 81.9769C58.4864 82.181 57.7688 82.3419 57.0434 82.4588ZM60.0267 81.713C59.4928 79.9538 58.8539 78.2278 58.3467 76.4606C58.6736 76.3493 58.9946 76.2215 59.3086 76.0777C60.0876 77.7411 60.8981 79.3888 61.6639 81.0583C61.1296 81.304 60.5831 81.5225 60.0267 81.713ZM62.4468 80.6763C61.6801 79.0015 60.8674 77.3486 60.0854 75.6808C60.3493 75.5321 60.6063 75.3714 60.8556 75.1994C62.0919 76.5801 63.2678 78.016 64.5299 79.3722C63.8695 79.8589 63.1731 80.2948 62.4468 80.6763ZM65.2227 78.8326C63.9571 77.4803 62.7834 76.0479 61.5501 74.6659C61.8818 74.3894 62.1948 74.0911 62.4871 73.7732C63.8674 75.0182 65.4118 76.0773 66.7084 77.4125C66.2466 77.9196 65.7502 78.3941 65.2227 78.8326ZM67.2778 76.7433C65.9728 75.4129 64.4245 74.3548 63.0477 73.1031C63.2885 72.7879 63.5098 72.4582 63.7103 72.1159C65.3973 72.9005 66.9557 73.9211 68.5036 74.9517C68.1428 75.5802 67.7329 76.1793 67.2778 76.7433ZM68.9189 74.178C67.3623 73.1434 65.799 72.1443 64.1129 71.3496C64.2131 71.1347 64.3067 70.9154 64.3925 70.6918C66.0494 71.3561 67.7623 71.8695 69.4274 72.5185C69.4782 72.5381 69.5323 72.5473 69.5867 72.5456C69.3998 73.1037 69.1767 73.6489 68.9189 74.178ZM69.8169 71.7758C69.7719 71.732 69.7184 71.6978 69.6598 71.6752C68.0086 71.0314 66.3041 70.5321 64.6625 69.8664C64.7597 69.5185 64.8437 69.1654 64.9015 68.8021C66.6568 69.2577 68.473 69.4748 70.1482 70.1977C70.0683 70.7297 69.9577 71.2566 69.8169 71.7758ZM70.2891 67.3265C70.3206 67.9868 70.3071 68.6481 70.2506 69.3063C68.5539 68.6398 66.7548 68.3973 64.9999 67.923C65.0188 67.6481 65.0288 67.3707 65.0249 67.0897C66.7675 66.9234 68.5369 66.8705 70.2419 67.3234C70.2589 67.3282 70.2725 67.3234 70.2891 67.3265ZM70.2195 66.4223C68.5005 66.0118 66.7273 66.0525 64.9759 66.2197C64.9553 66.0288 64.9305 65.8384 64.9015 65.6486C66.5544 65.2031 68.1968 64.7208 69.8331 64.2145C70.0125 64.9423 70.1408 65.6797 70.2195 66.4223ZM69.6003 63.3703C67.9877 63.8717 66.3662 64.3439 64.7365 64.7865C64.6789 64.5449 64.6137 64.3053 64.5409 64.0679C66.0826 63.4136 67.7167 62.9852 69.2436 62.3034C69.3749 62.6552 69.4913 63.0119 69.6003 63.3703ZM68.9185 61.4946C67.4091 62.1848 65.7864 62.6154 64.2485 63.2508C64.0684 62.8001 63.8583 62.3619 63.6197 61.9393C64.8905 60.8789 66.136 59.7756 67.5316 58.8982C68.065 59.7238 68.5289 60.5922 68.9185 61.4946ZM67.0371 58.1757C65.6555 59.0522 64.4214 60.1467 63.161 61.1979C62.9705 60.9121 62.7666 60.6354 62.5501 60.3686C63.7641 59.2719 64.9632 58.1582 66.1203 57.0019C66.4424 57.3792 66.747 57.7722 67.0371 58.1757ZM65.5321 56.3512C64.3776 57.5061 63.1829 58.619 61.9707 59.7139C61.7409 59.4725 61.5005 59.2414 61.2503 59.0212C62.3369 57.7948 63.495 56.6336 64.7186 55.5438C64.9991 55.8028 65.2691 56.0733 65.5321 56.3512ZM64.0564 54.9626C62.8276 56.0607 61.6655 57.2312 60.5764 58.468C60.3805 58.3197 60.1801 58.1774 59.9755 58.0413C60.8731 56.6698 61.751 55.2816 62.6963 53.9429C63.1672 54.2587 63.6212 54.5991 64.0564 54.9626ZM61.9558 53.479C61.0075 54.8195 60.1278 56.2107 59.2294 57.5849C58.9785 57.4432 58.7224 57.3108 58.4618 57.1879C59.2276 55.7285 60.0263 54.2922 60.9506 52.9311C61.2928 53.0996 61.6263 53.2856 61.9558 53.479ZM58.7852 52.0694C59.2517 52.2112 59.706 52.3823 60.1528 52.5697C59.2329 53.9412 58.4285 55.3814 57.6561 56.847C57.3419 56.7259 57.0227 56.618 56.6995 56.5236C57.2159 54.9547 57.9445 53.4856 58.7852 52.0694ZM57.0062 51.6506C57.3104 51.701 57.6119 51.7627 57.9095 51.8327C57.0789 53.2559 56.3616 54.735 55.8505 56.3061C55.7577 56.2287 55.6574 56.1609 55.5511 56.1035C55.826 54.5613 56.2868 53.0707 56.8106 51.5968C56.8767 51.6143 56.9345 51.6384 57.0062 51.6506ZM54.6251 51.3592C54.9393 51.3325 55.2553 51.3145 55.5752 51.3137C55.7117 51.3132 55.8505 51.322 55.9874 51.3281C55.461 52.823 55.0006 54.3329 54.7131 55.8956C54.6347 55.8943 54.5586 55.8882 54.4781 55.8965C54.4487 54.3862 54.5625 52.8716 54.6251 51.3592ZM54.4667 60.036C54.9752 60.0828 55.4675 60.1905 55.9437 60.3406C55.9301 60.3524 55.9157 60.3603 55.9012 60.3734C55.085 61.1647 54.2603 61.9473 53.4273 62.7209C52.3678 63.7117 51.4024 64.8639 50.3302 65.8617C50.6396 63.3392 52.0234 60.9848 54.3883 60.0207C54.4155 60.0242 54.4382 60.0334 54.4667 60.036ZM53.7481 51.4695C53.6864 53.0195 53.5822 54.5657 53.6229 56.1114L53.5175 56.146C53.0969 54.6983 52.7542 53.2305 52.3438 51.7802C52.8053 51.6487 53.2742 51.5449 53.7481 51.4695ZM51.5114 52.0546C51.9241 53.5202 52.2698 55.0037 52.6978 56.465C52.6173 56.5009 52.5319 56.5302 52.4527 56.5683C51.7556 55.297 51.1101 54.0003 50.5512 52.6611C50.5258 52.5995 50.4874 52.5439 50.4388 52.4983C50.7894 52.3343 51.1473 52.1862 51.5114 52.0546ZM49.7013 52.8747C49.7035 52.8812 49.7044 52.8869 49.707 52.8939C50.2938 54.2916 50.9539 55.6573 51.6847 56.9853C51.5298 57.0794 51.3731 57.1717 51.2243 57.2741L49.1718 53.6252C49.1358 53.5547 49.0789 53.497 49.0089 53.46C48.9389 53.4229 48.8592 53.4084 48.7806 53.4182C49.0806 53.2255 49.3877 53.0442 49.7013 52.8747ZM48.4086 53.6694C48.3748 53.7305 48.3577 53.7993 48.359 53.8691C48.3603 53.9389 48.38 54.007 48.416 54.0668L50.5219 57.8102C50.4309 57.8868 50.3451 57.9691 50.2571 58.0488C49.2891 56.9061 48.4931 55.6313 47.5447 54.4707C47.5189 54.4396 47.4892 54.4119 47.4563 54.3884C47.7644 54.1366 48.0821 53.8968 48.4086 53.6694ZM46.834 54.9118C46.8493 54.9727 46.8787 55.0326 46.925 55.0895C47.8716 56.2479 48.6664 57.5197 49.6326 58.6614C49.3441 58.9734 49.0743 59.3022 48.8248 59.6461C47.6821 58.552 46.4975 57.5048 45.3023 56.468C45.7808 55.9187 46.2923 55.399 46.834 54.9118ZM44.7417 57.1376C45.9609 58.1967 47.1701 59.2667 48.3325 60.3879C48.0865 60.7916 47.8638 61.209 47.6655 61.6382C46.2633 60.7353 44.9102 59.7577 43.4008 59.0395C43.8105 58.3801 44.2582 57.745 44.7417 57.1376ZM42.9518 59.7918C44.498 60.5257 45.8791 61.5331 47.3172 62.4539C47.2751 62.5629 47.2366 62.6732 47.1981 62.783C45.6642 62.1458 44.1422 61.4872 42.6682 60.7174C42.6116 60.6873 42.5493 60.6692 42.4853 60.6645C42.6345 60.3704 42.7886 60.078 42.9518 59.7918ZM42.1313 61.3957C42.1597 61.4229 42.1851 61.4517 42.2262 61.4732C43.7571 62.2723 45.34 62.9532 46.9334 63.6141C46.8069 64.0705 46.704 64.5331 46.6248 65C44.8642 64.4267 43.1089 63.8552 41.2726 63.5664C41.5187 62.8276 41.8053 62.1029 42.1313 61.3957ZM41.0114 64.4049C42.8954 64.6985 44.6931 65.2906 46.4979 65.8779C46.4684 66.1473 46.4465 66.4174 46.4323 66.688C44.5995 66.4713 42.7523 66.3908 40.919 66.1584C40.7348 66.1348 40.6179 66.2188 40.5562 66.3379C40.6763 65.6865 40.8282 65.0414 41.0114 64.4049ZM40.5107 66.5947C40.5317 66.7978 40.6648 67.0013 40.9195 67.0337C42.7466 67.2652 44.5899 67.3361 46.4165 67.5593C46.4191 67.7457 46.4283 67.9313 46.4384 68.1164C44.533 68.1763 42.6302 68.4577 40.7155 68.2976C40.1532 68.2507 40.1576 69.1264 40.7155 69.1728C42.638 69.3339 44.5483 69.049 46.462 68.9908C46.0502 69.1772 45.6262 69.3505 45.2826 69.5798C44.4529 70.1325 43.2192 70.4135 42.2875 70.7863C41.6393 71.0493 41.0035 71.3418 40.3821 71.6629C40.1663 70.0196 40.2193 68.3037 40.5107 66.5947Z" fill="black"/>
</svg>
