<svg width="144" height="192" viewBox="0 0 144 192" fill="none" xmlns="http://www.w3.org/2000/svg">
<path d="M143.147 150.735C143.14 150.582 143.133 150.43 143.117 150.278L143.115 150.259L143.098 150.17C143.072 150.025 143.066 149.878 143.081 149.731C143.04 149.693 143.001 149.654 142.956 149.622C142.621 148.001 141.463 146.506 140.681 145.497C138.506 142.69 135.692 140.277 133.209 138.147C130.861 136.134 128.37 134.22 125.962 132.369C123.246 130.282 120.441 128.127 117.824 125.813C118.211 117.288 115.79 108.743 113.484 101.39C111.41 94.7772 108.822 87.1686 104.342 80.5523C100.617 75.0514 95.8778 70.9353 90.6384 68.649C90.0824 68.4072 89.5181 68.1847 88.9466 67.9821C89.0818 65.5987 88.2872 63.5198 86.6295 61.9243C86.6385 61.8453 86.6431 61.766 86.6433 61.6865C86.6053 52.175 84.9961 42.5768 83.4394 33.2942L83.2138 31.9457L83.3418 31.5006C83.3485 31.4777 83.3535 31.4552 83.3598 31.4322C85.1158 30.7256 86.5182 28.6859 86.9253 26.3534C87.0362 26.2233 87.0767 26.0364 86.9933 25.8796C87.0262 25.6028 87.0444 25.3245 87.0479 25.0458C87.0688 22.1297 85.4654 19.9177 82.7583 19.1285C82.3023 18.9944 81.8296 18.9256 81.3543 18.9242C78.7535 18.9242 76.4744 21.0978 76.054 23.9796C75.6552 26.7121 76.8552 29.2778 79.1886 30.6852C79.2491 30.7306 79.3096 30.7749 79.3713 30.8178C79.2823 31.0982 79.2568 31.3948 79.2966 31.6863C78.059 35.9534 76.577 40.2267 75.1447 44.3603C73.2877 49.7182 71.3668 55.2579 69.9457 60.8686C69.9314 60.9256 69.9196 60.9832 69.9103 61.0413C67.3483 62.6451 65.7946 64.9488 65.4083 67.7222C65.364 68.0235 65.3893 68.331 65.4821 68.6211C60.9773 70.0977 56.9129 72.182 53.3899 74.8228C48.3791 78.5793 43.7938 83.7003 39.7607 90.0438C31.9364 102.348 28.1686 116.277 29.3991 128.305C25.5224 132.762 20.8069 136.483 16.244 140.084C10.9575 144.257 5.49036 148.572 1.23785 154.079C0.818652 154.623 0.73648 155.263 1.00427 155.824C1.05724 156.394 1.34922 156.889 1.83934 157.229C6.11728 160.204 10.4261 162.912 14.6561 165.283C13.8402 167.077 13.3292 168.633 13.0577 170.144C13.0538 170.165 13.0505 170.187 13.0477 170.208C9.75329 170.697 6.54858 172.87 3.94578 174.635L3.25419 175.102C2.80037 175.408 2.51298 175.84 2.42163 176.354C2.33654 176.833 2.43581 177.341 2.69526 177.772L2.69776 177.79C2.70443 178.248 2.87671 178.679 3.19872 179.039C5.83782 181.983 8.62124 184.046 11.7079 185.347C14.8308 186.664 18.6133 186.894 22.8232 186.029C23.6437 185.861 24.2798 185.041 24.2719 184.164C24.2456 181.284 23.69 176.047 20.3322 172.703L21.5973 168.908C25.2283 170.671 28.8793 172.225 32.4624 173.533C41.3265 186.61 58.5359 191.648 70.6202 191.984C70.9497 191.993 71.2796 191.998 71.6096 191.998C75.3107 191.998 79.0326 191.433 82.5043 190.825C87.1593 190.007 91.2695 188.83 95.0682 187.225C99.6532 185.289 104.338 182.091 109.389 177.448C111.065 175.909 113.558 173.616 114.055 170.984C116.526 169.997 118.964 168.927 121.363 167.775C121.527 168.114 121.693 168.451 121.859 168.79C121.953 168.979 122.046 169.174 122.14 169.368C120.931 171.05 120.091 173.031 119.636 174.993C119.592 175.182 119.574 175.376 119.585 175.57C119.104 176.048 118.902 176.751 119.293 177.489C119.423 177.853 119.649 178.175 119.947 178.422C122.772 181.952 127.228 183.158 131.591 181.604C136 180.032 139.193 175.861 138.965 171.113C138.952 170.77 138.845 170.438 138.656 170.151C138.611 169.814 138.472 169.476 138.207 169.16C135.941 166.46 132.827 164.685 129.423 164.962C129.22 164.572 129.015 164.184 128.808 163.797C130.211 162.963 131.592 162.091 132.948 161.182C136.12 159.053 139.695 156.531 142.615 153.372C142.874 152.68 143.068 151.973 143.146 151.247C143.148 151.163 143.149 151.082 143.15 150.999C143.15 150.914 143.151 150.824 143.147 150.735ZM83.5954 64.4908C83.8215 64.666 84.0305 64.8541 84.2165 65.0564C84.7291 65.6137 85.0362 66.2423 85.1346 66.9326C84.1821 66.7429 83.2207 66.6008 82.254 66.5067C82.6858 65.8247 83.133 65.1525 83.5954 64.4908ZM78.6901 62.7539C79.2487 62.8065 79.8339 62.9049 80.4149 63.0497C79.6106 64.0937 78.8891 65.1991 78.2572 66.3557C77.5881 66.3687 76.9136 66.3974 76.2312 66.4479C77.0601 65.2228 77.8321 63.9561 78.6901 62.7539ZM75.158 66.5368C74.6342 66.5895 74.1114 66.6525 73.5901 66.7257C74.476 65.3872 75.3878 64.0324 76.3776 62.7769C76.802 62.7326 77.2282 62.709 77.6549 62.7064L77.7099 62.7068C76.8398 63.9686 76.0389 65.2821 75.158 66.5368ZM79.4105 58.9594C80.4846 58.345 81.5979 57.7957 82.6653 57.1687C82.7099 57.9988 82.7479 58.8289 82.7708 59.6585C81.7243 59.3023 80.5897 59.0683 79.4105 58.9594ZM81.2817 63.3012C81.8536 63.4939 82.405 63.735 82.9043 64.0266C82.3531 64.815 81.824 65.6187 81.3176 66.4367C80.6169 66.3859 79.9148 66.357 79.2124 66.3499C79.825 65.2834 80.5167 64.2643 81.2817 63.3012ZM80.7924 22.9422C81.6299 23.4548 82.4639 23.9732 83.2943 24.4973C83.2955 24.5106 83.2993 24.5219 83.3005 24.5352C83.3377 24.9144 83.3093 25.3065 83.2388 25.6831C82.166 25.057 81.1369 24.3642 80.1204 23.6513C80.2802 23.3544 80.5038 23.0991 80.7924 22.9422ZM79.843 24.4706C80.832 25.1621 81.8335 25.8345 82.8788 26.4406C82.9206 26.4634 82.9661 26.4788 83.0131 26.4861C82.9307 26.7091 82.8284 26.9242 82.7074 27.1288C81.7493 26.4644 80.8108 25.7715 79.8134 25.1726C79.7921 24.9383 79.802 24.7022 79.843 24.4706ZM82.1376 27.7462C82.1163 27.7574 82.0951 27.772 82.075 27.7808C81.348 27.5772 80.5626 27.1685 80.1325 26.358C80.8103 26.8039 81.4702 27.2807 82.1376 27.7462ZM80.679 40.0482C80.7824 40.6964 80.8846 41.3559 80.9855 42.0199C80.5868 42.2118 80.193 42.4141 79.8022 42.6235C80.0973 41.766 80.3896 40.9076 80.679 40.0482ZM78.8232 45.4553C79.0147 44.9047 79.2078 44.3449 79.4005 43.7872C79.9678 43.4777 80.5363 43.1686 81.1136 42.8821C81.1933 43.4189 81.2742 43.9553 81.3509 44.4997C80.4249 44.9777 79.5156 45.4853 78.6259 46.0263C78.6922 45.8365 78.7581 45.6446 78.8232 45.4553ZM78.1934 47.2802C79.2595 46.598 80.3548 45.9624 81.4761 45.3752C81.5753 46.0943 81.6734 46.8172 81.7651 47.5467C80.3127 48.4702 78.7711 49.2485 77.2444 50.054C77.5585 49.1242 77.8759 48.2003 78.1934 47.2802ZM76.8611 51.2019C78.5371 50.2859 80.2522 49.4442 81.8752 48.4485C81.9653 49.1839 82.0542 49.9205 82.133 50.6638C79.8318 51.6086 77.8317 53.2758 75.7303 54.6631C76.0984 53.5065 76.4753 52.3527 76.8611 51.2019ZM75.3545 55.8882C77.6432 54.4838 79.768 52.5805 82.221 51.5247C82.3128 52.4278 82.3983 53.3342 82.4713 54.2443C79.7888 55.3826 77.2452 56.8109 74.665 58.1669C74.8856 57.4057 75.1205 56.6469 75.3545 55.8882ZM74.3475 59.2693C77.0659 57.862 79.7267 56.3316 82.5364 55.1194C82.5626 55.4873 82.5823 55.8561 82.6052 56.2244C81.0744 57.1637 79.4243 57.9049 77.9197 58.8881L77.9068 58.8877C76.6942 58.8877 75.5009 59.017 74.3475 59.2714V59.2693ZM75.1947 62.9546C74.2391 64.2334 73.3477 65.5853 72.4739 66.9047C72.2811 66.9368 72.0901 66.9622 71.8966 66.9973C71.7364 67.026 71.575 67.0607 71.4148 67.0915C71.9762 65.7209 72.6641 64.4007 73.6923 63.3537C74.1782 63.1811 74.6837 63.0563 75.1947 62.9546ZM71.952 64.2005C71.333 65.1544 70.8592 66.2152 70.4425 67.2872C70.0871 67.3631 69.7321 67.4407 69.3768 67.5245C69.8343 66.0441 70.7716 64.9626 71.952 64.2005ZM45.003 89.1015C49.3606 82.9119 54.411 78.1956 60.0125 75.0835C65.9235 71.7999 73.2409 69.9834 79.9448 70.1519C92.807 70.4793 100.27 80.6411 103.574 86.6701C106.789 92.5369 108.801 98.9626 110.746 105.579C112.649 112.053 114.506 119.656 113.904 127.077C112.302 128.359 110.143 129.159 108.23 129.868L108.021 129.946C105.079 131.036 102.026 131.898 99.1635 132.666C97.9911 132.981 96.8168 133.289 95.6409 133.591C95.3156 132.005 95.1784 130.313 95.0445 128.668C94.9806 127.88 94.9143 127.065 94.8288 126.285C94.6036 124.233 94.3354 122.154 94.0772 120.142L93.8202 118.127C93.0961 112.4 92.2535 106.839 89.9377 101.725C87.6089 96.5829 83.4344 93.2743 78.4841 92.6483C77.6621 92.5447 76.8345 92.4927 76.006 92.4927C70.6339 92.4927 65.692 94.5778 62.448 98.213C57.7788 103.444 56.0507 110.926 55.0667 116.861C54.1941 122.124 53.7658 127.91 53.7257 135.016C45.7467 133.6 39.0516 131.526 33.2837 128.684C31.8492 116.138 36.1092 101.733 45.003 89.1015ZM57.5936 132.528C57.6024 132.091 57.6145 131.667 57.6266 131.239C59.5036 133.154 61.6563 134.758 63.7912 136.388C62.9255 136.307 62.0607 136.216 61.1971 136.116C59.8711 135.044 58.5968 133.92 57.5936 132.528ZM59.6959 135.933C58.9828 135.841 58.2705 135.743 57.559 135.639C57.5607 135.029 57.5661 134.431 57.5728 133.842C58.2227 134.598 58.9405 135.284 59.6959 135.933ZM57.6641 130.067C57.6892 129.375 57.7204 128.702 57.7538 128.036C60.3274 131.251 63.4149 133.956 66.5575 136.607C66.1458 136.579 65.7395 136.559 65.3236 136.525C62.6775 134.471 59.9312 132.538 57.6641 130.067ZM57.8239 126.791C57.8618 126.17 57.9052 125.562 57.9519 124.961C61.0574 129.098 64.4677 133.204 68.2731 136.715C68.1667 136.709 68.0628 136.707 67.9565 136.701C64.3267 133.654 60.6841 130.598 57.8239 126.791ZM58.0591 123.716C58.138 122.839 58.2285 121.985 58.3265 121.143C62.1206 126.853 66.9441 131.76 71.5479 136.83C70.8898 136.817 70.2318 136.798 69.5741 136.773C65.2799 132.945 61.4762 128.324 58.0591 123.716ZM58.4892 119.858C58.515 119.657 58.5376 119.45 58.5659 119.251C58.6656 118.542 58.7778 117.805 58.9038 117.05C64.2583 123.612 69.8139 130.035 74.8773 136.83C74.1536 136.843 73.4232 136.849 72.6828 136.844C67.735 131.358 62.4697 126.11 58.4892 119.858ZM59.1916 116.091C59.1621 116.055 59.1266 116.024 59.0865 115.999C59.278 114.948 59.5024 113.864 59.7685 112.769C60.7621 114.576 62.1102 116.243 63.3131 117.9C65.5443 120.974 67.8347 124.007 70.1568 127.012C72.3504 129.851 74.5624 132.68 76.8861 135.415C77.0525 135.611 77.4367 136.149 77.8968 136.708C77.4371 136.737 76.9791 136.767 76.5266 136.785C76.3163 136.794 76.1007 136.796 75.8892 136.803C70.6114 129.675 64.786 122.966 59.1916 116.091ZM76.4569 133.61C74.2453 130.946 72.1193 128.211 70.0104 125.465C67.9097 122.734 65.8461 119.974 63.8204 117.186C62.6107 115.52 61.2501 113.84 60.2995 112.004C60.2302 111.871 60.1243 111.813 60.0133 111.801C60.2135 111.045 60.4392 110.284 60.687 109.526C63.8708 114.908 67.672 119.899 71.6855 124.692C74.964 128.607 78.3965 132.871 82.3115 136.274C81.2398 136.414 80.1651 136.528 79.0881 136.618C79.0023 136.537 78.9184 136.454 78.8365 136.369C78.0098 135.481 77.2323 134.544 76.4569 133.61ZM72.7637 124.679C68.4399 119.606 64.3918 114.253 61.0503 108.477C61.2959 107.798 61.5636 107.127 61.8528 106.465C68.5217 117.34 78.1454 125.901 86.2383 135.67C85.2756 135.841 84.3362 135.993 83.4186 136.125C79.4752 132.802 76.0715 128.56 72.7637 124.679ZM62.2712 105.547C62.6464 104.759 63.0606 103.99 63.5121 103.243C68.0962 109.681 72.8451 115.996 77.8175 122.14C80.0057 124.844 82.2486 127.485 84.5848 130.061C86.0331 131.658 87.6832 133.31 88.9462 135.15C88.3554 135.272 87.7635 135.389 87.1705 135.5C78.9283 125.462 69.0076 116.755 62.2712 105.547ZM86.3722 130.804C84.013 128.133 81.6408 125.498 79.378 122.742C73.9976 116.185 68.9004 109.401 63.988 102.487C64.0235 102.433 64.0569 102.377 64.0927 102.323C64.4054 101.857 64.7483 101.413 65.1193 100.993C68.91 107.571 73.4374 113.688 78.2847 119.525C80.6239 122.342 83.0499 125.07 85.3144 127.95C87.1539 130.289 88.9929 132.727 91.2916 134.643C90.7903 134.756 90.2939 134.865 89.8059 134.97C88.7985 133.476 87.5272 132.113 86.3722 130.804ZM85.905 127.361C83.7969 124.684 81.5682 122.128 79.3705 119.526C74.3063 113.532 69.6191 107.176 65.7174 100.36C66.0396 100.04 66.3782 99.7378 66.7318 99.4535C70.1593 104.839 74.0297 109.912 78.1145 114.818C80.3323 117.482 82.6477 120.059 84.921 122.675C87.0717 125.148 88.9249 127.86 91.3671 130.064C91.4802 131.375 91.6037 132.715 91.8339 134.021C89.5452 132.135 87.7253 129.673 85.905 127.361ZM88.2046 108.294C88.5835 109.715 88.9022 111.152 89.1598 112.599C89.0459 112.458 88.9305 112.318 88.8136 112.18C87.5847 110.714 86.4243 109.196 85.1379 107.779C81.698 103.993 78.1362 100.324 74.9261 96.3376C75.2723 96.3135 75.6218 96.3014 75.9743 96.3014C76.4469 96.3014 76.9212 96.3297 77.3921 96.3735C80.4425 100.83 84.5327 104.374 88.2046 108.294ZM78.5016 96.5162C82.5485 97.2194 85.5621 100.34 87.4554 105.81C87.5409 106.056 87.6135 106.308 87.6932 106.557C84.5231 103.298 81.1557 100.218 78.5016 96.5162ZM85.0887 108.964C86.5357 110.556 87.8438 112.766 89.4651 114.431C89.6745 115.787 89.8564 117.148 90.024 118.501C84.1736 111.148 77.6624 104.335 72.01 96.8194C72.6382 96.6526 73.2835 96.5229 73.9409 96.4357C77.4167 100.823 81.3284 104.826 85.0887 108.964ZM90.218 120.082C90.2209 120.108 90.2247 120.133 90.2267 120.158L90.2847 120.634C90.3782 121.404 90.4737 122.174 90.5696 122.943C90.6727 123.774 90.7774 124.619 90.88 125.468C89.516 123.963 88.3243 122.3 87.128 120.661C85.3757 118.258 83.487 115.984 81.6271 113.665C77.4571 108.466 73.5379 103.071 69.6199 97.6812C70.1224 97.4495 70.6375 97.2465 71.1629 97.073C77.1397 105.049 84.0943 112.225 90.218 120.082ZM80.5421 113.634C82.6515 116.301 84.8163 118.9 86.821 121.648C88.1345 123.449 89.4668 125.265 91.0406 126.848C91.0839 127.225 91.1302 127.603 91.1707 127.978C91.202 128.255 91.2291 128.537 91.2554 128.82C89.4664 127.07 87.951 125.067 86.3751 123.122C84.2311 120.477 81.8865 117.988 79.6825 115.393C75.2502 110.172 71.0711 104.735 67.4005 98.9509C67.8656 98.6214 68.3594 98.3294 68.8666 98.0574C72.6845 103.305 76.5161 108.543 80.5421 113.634ZM13.2541 181.848C11.8163 181.336 10.4007 180.501 8.95826 179.309C11.9628 179.347 15.8699 180.008 18.6737 182.693C16.7813 182.747 14.9702 182.461 13.2541 181.848ZM9.52846 175.533C11.0217 174.674 12.6201 174.005 14.1731 174.005C15.0911 174.005 15.9337 174.228 16.7483 174.687C18.0022 175.394 18.9495 176.677 19.5756 178.51C16.9114 176.686 13.4877 175.669 9.52846 175.533ZM16.891 170.513C17.1296 169.422 17.5004 168.319 18.0331 167.113L18.1382 167.167L17.009 170.554C16.9699 170.539 16.9306 170.526 16.891 170.513ZM107.398 174.066C107.233 174.216 107.088 174.352 106.968 174.466C105.052 176.294 102.756 178.107 99.742 180.172C94.531 183.743 88.268 186.029 80.0328 187.368C77.2877 187.811 74.5113 188.033 71.7306 188.032C59.0189 188.032 47.2825 183.58 39.2989 175.773C40.0664 175.996 40.8343 176.208 41.6022 176.41C41.48 176.648 41.3716 176.893 41.2702 177.145C41.1847 177.356 41.3615 177.603 41.5609 177.658C41.7995 177.724 41.9893 177.578 42.074 177.367C42.1787 177.109 42.2988 176.86 42.4356 176.621C42.615 176.666 42.7935 176.709 42.9729 176.753C42.8675 177.015 42.7842 177.285 42.7239 177.561C42.6121 178.086 43.4163 178.309 43.5289 177.783C43.5898 177.494 43.6807 177.221 43.7929 176.957C43.9648 176.998 44.1366 177.035 44.3085 177.076C44.2701 177.411 44.2409 177.748 44.1787 178.081C44.0816 178.606 44.8849 178.831 44.9834 178.301C45.0472 177.958 45.0768 177.608 45.1173 177.26C45.3959 177.323 45.6737 177.383 45.9523 177.444C45.7885 177.827 45.5778 178.189 45.325 178.52C44.9992 178.938 45.5848 179.534 45.9148 179.109C46.2667 178.655 46.5568 178.155 46.7774 177.624C47.1399 177.702 47.5015 177.772 47.8636 177.843C47.6869 178.224 47.5322 178.616 47.4001 179.015C47.2275 179.527 48.0337 179.743 48.2043 179.236C48.3478 178.811 48.5088 178.399 48.7111 178.004C48.9931 178.056 49.2784 178.1 49.5616 178.151C49.3965 178.674 49.2743 179.205 49.1666 179.742C49.0615 180.268 49.8657 180.491 49.9712 179.964C50.0839 179.401 50.2086 178.846 50.3867 178.301C50.3875 178.299 50.3867 178.297 50.3875 178.294C50.6941 178.346 51.0032 178.39 51.311 178.44C51.2092 178.857 51.0608 179.257 50.871 179.643C50.6349 180.123 51.354 180.546 51.5913 180.064C51.8262 179.586 52.0201 179.091 52.1378 178.571C52.3964 178.61 52.6571 178.644 52.9161 178.682C52.7659 179.162 52.6792 179.661 52.5957 180.158C52.5077 180.684 53.3115 180.91 53.3999 180.38C53.4896 179.847 53.5826 179.314 53.7545 178.801C53.9051 178.821 54.0577 178.838 54.2091 178.859C54.1537 179.188 54.1261 179.522 54.0506 179.847C53.9297 180.37 54.7339 180.592 54.8553 180.068C54.9395 179.704 54.9654 179.33 55.0359 178.965C55.2357 178.989 55.4367 179.01 55.6365 179.035C55.4796 179.5 55.3952 179.987 55.3863 180.478C55.3787 181.015 56.213 181.015 56.2205 180.478C56.2272 180.01 56.3239 179.568 56.482 179.132C56.7794 179.166 57.0793 179.189 57.3772 179.22C57.3767 179.221 57.3759 179.221 57.3759 179.223C57.2695 179.82 57.0852 180.397 56.9605 180.99C56.8495 181.515 57.6537 181.738 57.7647 181.211C57.8894 180.619 58.0742 180.041 58.1801 179.444C58.1897 179.391 58.1843 179.343 58.1772 179.297C58.5075 179.328 58.8404 179.352 59.1716 179.381C59.0962 179.408 59.0312 179.458 58.986 179.524C58.9408 179.591 58.9176 179.67 58.9197 179.75C58.913 180.31 58.8195 180.853 58.7265 181.405C58.6377 181.931 59.4419 182.156 59.5311 181.627C59.6358 181.004 59.7464 180.383 59.7539 179.75C59.7569 179.682 59.7412 179.615 59.7086 179.555C59.6761 179.496 59.6278 179.447 59.5691 179.413C59.8486 179.437 60.1293 179.455 60.4092 179.475C60.386 179.529 60.3742 179.587 60.3746 179.645C60.3741 180.13 60.3741 180.614 60.2853 181.093C60.1881 181.618 60.9915 181.843 61.0899 181.314C61.1921 180.761 61.2084 180.206 61.2088 179.645C61.2088 179.602 61.1959 179.567 61.1858 179.532C61.4136 179.548 61.6418 179.559 61.8699 179.575C61.8616 179.597 61.8486 179.613 61.8441 179.638C61.7427 180.188 61.7381 180.75 61.6363 181.3C61.5396 181.826 62.3433 182.05 62.4414 181.521C62.5427 180.971 62.5473 180.409 62.6491 179.859C62.6654 179.769 62.6491 179.692 62.6207 179.621C62.9565 179.64 63.2923 179.656 63.6285 179.673C63.4041 180.297 63.2878 180.955 63.2848 181.618C63.2789 182.157 64.1132 182.156 64.119 181.618C64.1257 180.949 64.2491 180.331 64.4977 179.712C64.9157 179.729 65.3349 179.74 65.7541 179.753C65.518 180.323 65.3399 180.914 65.1701 181.509C65.0221 182.027 65.8267 182.247 65.9743 181.73C66.1637 181.068 66.3506 180.4 66.648 179.777C66.937 179.784 67.2274 179.784 67.5164 179.787C67.3479 180.351 67.2411 180.927 67.1439 181.507C67.0559 182.034 67.8601 182.259 67.9486 181.729C68.0541 181.097 68.1671 180.469 68.3644 179.859C68.3719 179.836 68.3678 179.819 68.3711 179.798C68.4128 179.798 68.4541 179.799 68.4958 179.799C68.8641 179.799 69.2333 179.793 69.602 179.79C69.4327 180.475 69.2558 181.157 69.0147 181.821C68.8299 182.327 69.6362 182.543 69.8189 182.042C70.088 181.303 70.2761 180.543 70.4633 179.782C70.6928 179.777 70.923 179.77 71.1524 179.765C71.0748 180.528 70.8629 181.273 70.7662 182.035C70.6986 182.567 71.5337 182.561 71.6004 182.035C71.698 181.262 71.9133 180.515 71.9892 179.744C72.1702 179.737 72.3508 179.729 72.5314 179.723C72.4059 180.535 72.1427 181.317 72.0275 182.131C71.9529 182.657 72.7567 182.883 72.8317 182.353C72.951 181.51 73.2322 180.702 73.3519 179.859C73.3595 179.803 73.3564 179.747 73.3427 179.693C73.7615 179.675 74.1824 179.645 74.6016 179.622C74.5699 180.533 74.4164 181.434 74.403 182.346C74.3955 182.883 75.2297 182.883 75.2373 182.346C75.2498 181.418 75.4099 180.501 75.4379 179.575C75.9706 179.543 76.5057 179.497 77.0396 179.459C76.8659 180.213 76.6845 180.965 76.4953 181.715C76.3651 182.237 77.1693 182.458 77.3003 181.937C77.5139 181.092 77.7174 180.245 77.9106 179.396C78.4086 179.356 78.9087 179.305 79.4076 179.259C79.0647 180.081 78.8728 180.936 78.7673 181.825C78.7043 182.358 79.5394 182.353 79.6015 181.825C79.7033 180.965 79.896 180.118 80.2714 179.334C80.2973 179.28 80.3081 179.227 80.3123 179.175C80.5801 179.149 80.8479 179.115 81.1157 179.087C80.933 179.992 80.7565 180.898 80.7419 181.824C80.7332 182.362 81.5674 182.361 81.5762 181.824C81.5908 180.875 81.7906 179.953 81.977 179.026C81.9795 179.014 81.9758 179.004 81.977 178.992C82.3541 178.949 82.7316 178.9 83.1087 178.853C82.9785 179.781 82.7291 180.687 82.6131 181.617C82.5464 182.149 83.381 182.143 83.4474 181.617C83.5671 180.652 83.8353 179.714 83.96 178.749C84.2441 178.712 84.5285 178.671 84.813 178.633C84.8126 178.659 84.8051 178.685 84.8097 178.714C84.9636 179.68 84.5694 180.6 84.2904 181.506C84.1314 182.02 84.9369 182.24 85.095 181.727C85.4249 180.654 85.7895 179.655 85.6176 178.52C85.9913 178.467 86.3643 178.409 86.7384 178.352C86.6833 179.302 86.5732 180.249 86.562 181.2C86.5549 181.739 87.3891 181.738 87.3962 181.2C87.4079 180.205 87.5263 179.216 87.5781 178.223C88.1762 178.128 88.7739 178.02 89.3725 177.916C89.1631 178.869 88.9696 179.825 88.7593 180.778C88.6442 181.302 89.4476 181.525 89.564 180.999C89.7775 180.031 89.9732 179.058 90.1867 178.089C90.199 178.038 90.201 177.984 90.1925 177.932C90.1841 177.88 90.1654 177.83 90.1375 177.785C90.6038 177.701 91.0706 177.609 91.5382 177.519C91.222 178.277 90.9392 179.045 90.7331 179.841C90.5984 180.362 91.4022 180.583 91.5378 180.063C91.7405 179.28 92.0112 178.518 92.3269 177.773C92.3543 177.709 92.366 177.64 92.3608 177.571C92.3557 177.502 92.3339 177.435 92.2973 177.376C92.9105 177.255 93.5228 177.13 94.1364 177C93.8418 177.77 93.4825 178.513 93.0623 179.222C92.7878 179.686 93.509 180.106 93.7827 179.643C94.3184 178.741 94.7582 177.784 95.0949 176.79C95.6776 176.661 96.2616 176.525 96.8447 176.39C96.5043 177.19 96.1744 177.991 95.6597 178.703C95.3444 179.14 96.0685 179.556 96.3809 179.124C96.9778 178.297 97.3257 177.35 97.7307 176.423C97.7651 176.344 97.7742 176.257 97.7565 176.173C98.4068 176.016 99.0563 175.857 99.7053 175.688C99.8 175.663 99.8938 175.636 99.9881 175.611C99.6984 176.316 99.3635 177.001 98.9858 177.663C98.7197 178.132 99.4404 178.552 99.7061 178.085C100.163 177.285 100.559 176.453 100.891 175.595C100.92 175.521 100.924 175.44 100.902 175.364C101.587 175.179 102.271 174.985 102.955 174.786C102.465 175.511 101.919 176.193 101.337 176.851C100.982 177.252 101.57 177.845 101.927 177.441C102.757 176.5 103.532 175.514 104.162 174.428C105.605 173.996 107.04 173.537 108.466 173.051C108.083 173.435 107.707 173.78 107.398 174.066ZM124.761 166.076C124.998 165.949 125.235 165.823 125.471 165.694C125.547 165.836 125.619 165.973 125.693 166.114C125.451 166.249 125.217 166.395 124.989 166.55C124.914 166.391 124.835 166.236 124.761 166.076ZM123.723 177.015C126.813 174.514 131.277 172.989 135.099 172.624C134.168 177.596 127.567 180.431 123.723 177.015ZM132.45 169.235C129.969 169.706 127.419 170.53 125.107 171.696C125.828 170.689 126.749 169.828 127.914 169.191C129.491 168.33 131.054 168.527 132.45 169.235ZM139.063 151.549C136.211 154.399 132.75 156.745 129.716 158.729C128.536 159.498 127.336 160.235 126.118 160.94C126.047 160.943 125.977 160.954 125.908 160.966C125.456 161.25 124.999 161.524 124.536 161.788C124.515 161.815 124.492 161.842 124.474 161.871C122.569 162.918 120.632 163.905 118.667 164.833C111.182 168.374 102.734 171.198 93.5591 173.228C85.3294 175.048 76.9741 175.971 68.729 175.971C59.6838 175.971 50.8084 174.861 42.3484 172.67C39.8044 172.009 37.2893 171.241 34.8099 170.368C34.531 170.164 34.1998 170.044 33.8551 170.021C24.5885 166.66 15.2651 161.749 5.37649 155.015C5.50788 154.856 5.64344 154.701 5.77733 154.546C7.05454 155.55 8.36304 156.488 9.9143 157.04C10.4228 157.221 10.6392 156.415 10.1366 156.235C8.70966 155.728 7.49961 154.85 6.32292 153.921C6.45348 153.775 6.5832 153.628 6.7146 153.483C7.73278 154.212 8.77223 154.912 9.81461 155.607C10.2634 155.907 10.6805 155.183 10.2359 154.887C9.24524 154.226 8.25459 153.563 7.28396 152.872C7.48876 152.655 7.70233 152.444 7.91172 152.228C9.13804 153.155 10.4315 153.947 11.8614 154.536C12.3582 154.741 12.5734 153.934 12.0829 153.732C10.7923 153.2 9.60521 152.469 8.49276 151.632C8.84856 151.277 9.21062 150.929 9.57476 150.583C10.7685 151.327 11.9473 152.098 13.152 152.825C13.6137 153.105 14.0325 152.383 13.5732 152.105C12.4391 151.419 11.3287 150.696 10.2067 149.993C10.4962 149.724 10.7961 149.468 11.0893 149.204C12.2835 150.096 13.5399 150.899 14.9201 151.477C15.4165 151.684 15.6305 150.877 15.1424 150.673C13.919 150.16 12.7866 149.435 11.7183 148.642C12.2207 148.202 12.7275 147.767 13.2387 147.336C14.3387 147.933 15.4161 148.566 16.4893 149.21C16.9519 149.487 17.3707 148.766 16.9106 148.489C15.9259 147.894 14.93 147.319 13.9236 146.762C14.2481 146.491 14.5777 146.23 14.9047 145.962C15.8732 146.616 16.8776 147.217 17.8804 147.818C18.3426 148.096 18.7618 147.375 18.3017 147.098C17.3869 146.55 16.4718 145.999 15.5821 145.41C15.975 145.091 16.3692 144.777 16.7629 144.462C17.8491 145.164 18.9507 145.839 20.1045 146.428C20.5825 146.672 21.005 145.952 20.5257 145.707C19.4658 145.167 18.4506 144.552 17.4503 143.911C17.7244 143.694 17.9984 143.479 18.2725 143.262C19.2264 143.882 20.2308 144.417 21.317 144.801C21.8255 144.98 22.0424 144.174 21.5385 143.996C20.6267 143.673 19.7724 143.231 18.9582 142.719C18.9778 142.704 18.9974 142.689 19.017 142.673C19.4717 142.317 19.928 141.96 20.3839 141.601C21.6382 142.534 22.8833 143.478 24.2756 144.202C24.7524 144.45 25.1741 143.729 24.6969 143.481C23.3984 142.805 22.2276 141.938 21.0584 141.068C21.3954 140.802 21.7316 140.535 22.067 140.267C23.1611 140.861 24.2744 141.42 25.3885 141.977C25.8678 142.216 26.2903 141.498 25.8098 141.257C24.7924 140.747 23.7759 140.237 22.7736 139.7C23.1316 139.411 23.4886 139.121 23.8443 138.829C24.9643 139.574 26.1539 140.185 27.434 140.628C27.9442 140.805 28.1611 139.998 27.6563 139.824C26.5368 139.436 25.4932 138.911 24.5071 138.277C24.812 138.024 25.1119 137.762 25.4143 137.505C26.6594 138.074 27.907 138.633 29.0032 139.474C29.4299 139.801 29.8454 139.076 29.4245 138.753C28.4092 137.975 27.2643 137.439 26.1118 136.911C26.5606 136.522 27.005 136.128 27.4449 135.728C28.4868 136.471 29.5722 137.145 30.6717 137.805C31.1343 138.083 31.553 137.361 31.093 137.084C30.0648 136.467 29.0441 135.842 28.0647 135.153C28.3492 134.889 28.6249 134.616 28.9048 134.348C30.0493 135.024 31.2077 135.669 32.4398 136.178C32.9375 136.383 33.1519 135.577 32.6622 135.374C31.5722 134.923 30.5424 134.35 29.5284 133.751C29.7478 133.534 29.9647 133.315 30.1803 133.096C31.153 133.758 32.1721 134.334 33.2737 134.788C33.7713 134.993 33.9857 134.186 33.496 133.983C32.5308 133.586 31.6256 133.073 30.7626 132.494C30.9328 132.316 31.1042 132.138 31.2715 131.958C37.4286 135.02 44.5934 137.258 53.1543 138.795C61.5154 140.296 69.6379 140.903 77.186 140.589C85.0983 140.261 92.7695 138.35 100.588 136.253C104.311 135.254 107.288 134.316 109.958 133.303C112.274 132.423 114.684 131.429 116.606 129.806C118.745 131.611 120.994 133.338 123.172 135.011C125.159 136.536 127.212 138.112 129.159 139.731C131.647 141.801 134.277 144.072 136.65 146.658C137.603 147.696 138.285 148.594 138.797 149.482C138.909 149.672 139.004 149.871 139.082 150.077C139.272 150.466 139.265 150.957 139.053 151.334C139.049 151.409 139.054 151.48 139.063 151.549ZM70.7887 17.43C71.117 17.6586 71.4657 17.7746 71.8248 17.7746C72.5994 17.7746 73.2947 17.219 73.5546 16.3918C73.8216 15.5443 73.5287 14.6725 72.8088 14.1711C70.9255 12.8589 69.6537 10.8229 68.6093 9.01764C68.2631 8.42033 67.6879 8.07788 67.0296 8.07788C66.3164 8.07788 65.6244 8.47831 65.2669 9.09773C64.9353 9.67293 64.9449 10.3474 65.2932 10.9493C66.4907 13.0178 68.1972 15.6235 70.7887 17.43ZM80.2614 9.41974C80.2439 10.1455 80.2264 10.8709 80.2222 11.5958C80.2193 12.1185 80.3982 12.5761 80.7394 12.9198C81.0911 13.2731 81.5991 13.4754 82.133 13.4754C83.0845 13.4754 84.0518 12.8322 84.0589 11.6029C84.0626 10.9493 84.0734 10.2969 84.0847 9.64582C84.1306 6.96626 84.179 4.19619 83.6789 1.44906C83.5187 0.568947 82.8509 0 81.977 0C81.6699 0.0015843 81.3667 0.0698378 81.0885 0.200044C80.8103 0.330251 80.5637 0.519306 80.3657 0.754147C79.9936 1.20004 79.8481 1.77066 79.9557 2.36046C80.3757 4.67337 80.3173 7.08598 80.2614 9.41974ZM90.5947 18.9888C91.0672 18.9888 91.5127 18.8078 91.8819 18.4662C94.8359 15.732 97.5484 12.6991 100.172 9.76637C100.867 8.98969 101.562 8.21219 102.262 7.43969C102.792 6.85614 102.918 6.08364 102.603 5.37329C102.28 4.64418 101.566 4.15406 100.827 4.15406C100.329 4.15406 99.8726 4.36763 99.5068 4.77098C98.8043 5.54515 98.1077 6.32474 97.4116 7.10349C94.8067 10.0146 92.1146 13.0253 89.2032 15.7199C88.6284 16.2521 88.4482 16.9887 88.7235 17.6895C89.0229 18.4545 89.7925 18.9888 90.5947 18.9888Z" fill="black"/>
<path d="M76.1453 145.639C75.9447 145.088 75.5025 144.685 74.8994 144.514C73.9625 144.247 73.0303 144.112 72.1281 144.112C68.3636 144.112 65.0312 146.513 63.2155 150.536C61.4027 154.55 61.1375 160.373 64.63 164.334C66.3969 166.339 69.1519 167.536 71.9983 167.537H71.9996C74.2141 167.537 76.2492 166.787 77.7295 165.427C81.8802 161.614 80.9146 154.908 80.5192 152.943C79.8902 149.816 78.2634 147.105 76.1453 145.639ZM70.2068 148.321C69.0744 149.549 67.9102 150.747 66.6872 151.884C67.4272 150.257 68.6093 148.934 70.2068 148.321ZM66.1208 153.508C67.9844 151.885 69.7063 150.118 71.3635 148.286C71.424 148.285 71.4845 148.283 71.5483 148.276C71.6938 148.259 71.8369 148.252 71.9779 148.25C71.1808 149.023 70.503 150.054 69.8031 150.813C68.5217 152.201 67.2261 153.609 65.8525 154.922C65.913 154.444 66.0015 153.971 66.1208 153.508ZM65.7683 156.133C67.3183 154.694 68.7161 153.108 70.2022 151.601C71.1399 150.65 71.9783 149.165 73.1008 148.405C73.2401 148.448 73.3732 148.503 73.5041 148.563C72.8084 149.288 72.1581 150.242 71.6859 150.753C69.7701 152.819 67.745 154.779 65.7796 156.798C65.7689 156.577 65.7651 156.355 65.7683 156.133ZM65.8838 157.886C67.8401 155.852 69.8656 153.885 71.8111 151.84C72.3512 151.271 72.8789 150.69 73.4128 150.116C73.6109 149.903 73.9429 149.434 74.2858 149.047C74.4914 149.211 74.6825 149.396 74.8623 149.596C72.3633 153.009 68.9405 155.696 66.0732 158.798C65.9955 158.497 65.9323 158.193 65.8838 157.886ZM66.3606 159.721C69.2633 156.5 72.7738 153.751 75.3853 150.277C75.6018 150.604 75.7895 150.958 75.9589 151.323C75.9067 151.354 75.8615 151.395 75.8262 151.444C73.2797 154.894 69.33 156.918 66.5249 160.127C66.4667 159.993 66.4118 159.857 66.3606 159.721ZM66.9283 160.924C69.6629 157.595 73.6551 155.567 76.3105 152.165C76.3818 152.362 76.441 152.56 76.5015 152.758C75.1551 154.163 73.6172 155.381 72.184 156.694C70.4988 158.24 69.0039 159.955 67.2478 161.419C67.1341 161.259 67.0275 161.093 66.9283 160.924ZM67.7759 162.061C69.5599 160.594 71.1078 158.883 72.7742 157.284C74.066 156.045 75.4783 154.941 76.7493 153.685C76.8102 153.952 76.8603 154.213 76.902 154.466C74.2896 157.411 71.3047 159.989 68.3335 162.566C68.136 162.411 67.9497 162.242 67.7759 162.061ZM73.2201 163.628C74.237 162.642 75.3007 161.706 76.3439 160.748C75.7712 162.167 74.7968 163.317 73.2201 163.628ZM76.8131 159.163C75.2081 160.714 73.4841 162.14 71.9258 163.741C71.4879 163.741 71.051 163.698 70.6214 163.613C71.7806 162.318 73.1709 161.273 74.4823 160.129C75.4133 159.318 76.1933 158.352 77.04 157.458C77.0028 158.031 76.927 158.6 76.8131 159.163ZM73.8925 159.54C72.491 160.816 70.961 161.902 69.7409 163.363C69.5034 163.274 69.2724 163.169 69.0497 163.048C71.8065 160.657 74.5749 158.264 77.0375 155.57C77.053 155.784 77.063 156.01 77.0676 156.245C75.9584 157.287 75.0191 158.513 73.8925 159.54ZM111.524 137.98C110.88 138.006 110.343 138.307 110.012 138.817C105.612 140.071 102.186 143.379 100.818 147.714C100.027 150.219 100.236 152.678 101.424 154.827C102.712 157.158 105.109 158.926 108.001 159.681C109.131 159.976 110.262 160.125 111.364 160.125C115.431 160.125 118.743 158.105 120.446 154.584C122.45 150.445 122.077 145.287 119.52 141.748C117.707 139.239 114.768 137.854 111.524 137.98ZM110.515 142.686C110.182 143.037 109.888 143.363 109.666 143.57C107.984 145.135 106.29 146.684 104.615 148.256C105.546 145.635 107.926 143.614 110.515 142.686ZM104.201 150.441C104.208 150.2 104.229 149.963 104.261 149.728C106.024 148.044 107.811 146.385 109.619 144.751C110.205 144.221 110.776 143.675 111.361 143.143C111.541 142.979 111.942 142.544 112.311 142.229C112.603 142.184 112.898 142.154 113.193 142.14C113.334 142.133 113.474 142.111 113.611 142.074C113.822 142.14 114.022 142.221 114.217 142.311C113.911 142.562 113.619 142.862 113.383 143.056C112.139 144.072 110.91 145.106 109.68 146.14C107.855 147.672 106.059 149.257 104.208 150.763C104.205 150.656 104.198 150.55 104.201 150.441ZM104.332 151.729C106.015 150.377 107.641 148.941 109.292 147.552C110.523 146.516 111.755 145.481 112.994 144.452C113.481 144.047 114.428 143.024 115.005 142.758C115.335 142.988 115.64 143.254 115.913 143.55C114.53 144.613 113.147 145.676 111.762 146.736C111.127 147.222 110.475 147.688 109.853 148.189C108.824 149.018 107.784 149.831 106.747 150.648C106.023 151.218 105.341 151.943 104.602 152.547C104.488 152.283 104.398 152.009 104.332 151.729ZM105.011 153.324C106.264 152.411 107.402 151.185 108.582 150.259C109.78 149.319 110.974 148.382 112.183 147.457C113.601 146.371 115.018 145.283 116.434 144.193C116.598 144.426 116.742 144.671 116.877 144.924C115.181 146.24 113.401 147.45 111.755 148.831C110.53 149.86 109.326 150.911 108.098 151.935C107.266 152.63 106.498 153.469 105.612 154.109C105.389 153.865 105.188 153.603 105.011 153.324ZM106.223 154.69C106.722 154.305 107.175 153.864 107.648 153.412C108.931 152.18 110.388 151.092 111.741 149.935C113.501 148.431 115.412 147.117 117.24 145.701C117.406 146.114 117.53 146.545 117.631 146.98C117.12 147.303 116.558 147.596 116.153 147.905C115.147 148.675 114.125 149.423 113.134 150.212C111.123 151.815 109.085 153.742 106.887 155.164C106.656 155.019 106.435 154.861 106.223 154.69ZM107.705 155.618C109.817 154.192 111.765 152.37 113.723 150.802C115.013 149.768 116.335 148.696 117.732 147.811L117.78 147.781C117.819 148.053 117.844 148.327 117.861 148.598C117.583 148.793 117.303 148.979 117.08 149.168C116.227 149.894 115.333 150.572 114.464 151.279C112.54 152.849 110.642 154.45 108.714 156.015C108.369 155.905 108.032 155.772 107.705 155.618ZM113.222 156.161C114.14 155.442 115.039 154.699 115.944 153.961C116.227 153.734 116.516 153.514 116.811 153.303C116.076 154.604 114.922 155.692 113.222 156.161ZM117.456 151.811C116.891 152.213 116.326 152.603 115.826 152.994C114.377 154.125 112.995 155.33 111.508 156.41C111.424 156.413 111.342 156.418 111.257 156.418C110.733 156.418 110.215 156.365 109.709 156.269C111.498 154.812 113.27 153.333 115.054 151.87C115.98 151.111 116.903 150.297 117.866 149.571C117.822 150.332 117.685 151.084 117.456 151.811ZM42.8469 146.475C43.023 145.966 42.996 145.409 42.7714 144.92C42.4702 144.261 41.8767 143.852 41.143 143.798C40.5077 143.753 39.8704 143.69 39.2334 143.628C37.9512 143.504 36.6252 143.376 35.3109 143.376C33.8935 143.376 32.6513 143.528 31.5143 143.843C28.4764 144.682 25.781 147.362 24.4796 150.836C23.4677 153.539 23.7125 156.519 25.1695 159.231C26.7971 162.261 29.7036 164.515 32.9437 165.262C33.5782 165.408 34.2222 165.482 34.8595 165.482C38.7066 165.482 42.4214 162.682 44.1012 158.516C45.7046 154.538 45.2774 150.125 43.02 146.808C43.0148 146.743 42.9968 146.681 42.9671 146.624C42.9373 146.567 42.8965 146.516 42.8469 146.475ZM30.474 148.712C29.7799 149.559 29.0762 150.398 28.4159 151.27C28.8781 150.282 29.5934 149.401 30.474 148.712ZM27.8532 153.323C27.907 153.312 27.9579 153.29 28.0028 153.259C28.0478 153.227 28.0859 153.187 28.1148 153.14C29.3832 151.182 30.9837 149.478 32.3927 147.625C32.7005 147.508 33.0171 147.412 33.3404 147.339C33.4476 147.316 33.559 147.296 33.6703 147.277C31.6077 149.441 29.7841 151.839 27.8132 154.088C27.8124 153.831 27.8274 153.576 27.8532 153.323ZM27.907 155.238C30.2996 152.58 32.4332 149.661 34.9751 147.142C35.1315 147.135 35.2892 147.132 35.4539 147.132C35.6537 147.132 35.8548 147.138 36.0562 147.145C33.1402 149.838 30.7776 153.088 28.071 155.999C28.0041 155.748 27.9494 155.494 27.907 155.238ZM28.3684 156.901C31.3754 153.725 33.9277 150.103 37.22 147.224C37.6096 147.26 38.0013 147.302 38.3971 147.348C38.423 147.374 38.4501 147.399 38.478 147.424C38.4993 147.442 38.5181 147.462 38.5389 147.481C35.4702 151.142 32.1887 154.623 29.0157 158.195C28.7628 157.783 28.5462 157.35 28.3684 156.901ZM29.5046 158.898C32.7097 155.286 36.027 151.77 39.1291 148.07C39.3127 148.272 39.4812 148.483 39.6409 148.699C36.0329 151.902 33.0835 155.779 30.1123 159.593C29.8962 159.374 29.6932 159.142 29.5046 158.898ZM30.7234 160.153C33.6474 156.392 36.5526 152.551 40.1044 149.389C40.2871 149.7 40.4451 150.023 40.584 150.353C37.3977 153.639 34.8053 157.45 31.727 160.834C31.3729 160.638 31.037 160.41 30.7234 160.153ZM32.5108 161.208C35.4147 157.978 37.8999 154.38 40.8927 151.231C40.964 151.481 41.0203 151.735 41.0683 151.991C38.2048 154.941 35.8014 158.292 33.1264 161.408C32.9183 161.352 32.7122 161.287 32.5108 161.208ZM37.0899 161.066C38.272 159.673 39.4491 158.276 40.6333 156.886C40.0155 158.582 38.7829 160.232 37.0899 161.066ZM41.0892 155.079C39.2426 157.229 37.4202 159.4 35.5791 161.556C35.1999 161.618 34.8053 161.643 34.3953 161.621C34.2827 161.614 34.1721 161.601 34.0603 161.588C36.4571 158.754 38.6557 155.75 41.2001 153.047C41.2402 153.709 41.1985 154.389 41.0892 155.079ZM43.7137 100.699C44.8545 98.5068 46.1273 96.3862 47.5249 94.3484C48.2844 94.6859 49.0402 95.04 49.8002 95.3766C48.606 97.2837 47.5958 99.2641 46.8195 101.275C46.2376 102.783 48.6582 103.43 49.2325 101.941C49.9738 100.021 50.9652 98.1263 52.1407 96.3026C52.5373 96.4344 52.9378 96.5537 53.3432 96.6513C54.9116 97.0292 55.5765 94.6162 54.0085 94.2379C53.8876 94.2091 53.7678 94.1757 53.6477 94.1428C55.1623 92.121 56.895 90.2215 58.7536 88.5092C58.9063 88.6335 59.0619 88.7532 59.2112 88.8825C60.425 89.9333 62.2036 88.1709 60.9806 87.1127C60.8768 87.0226 60.7687 86.9404 60.6636 86.8524C62.2603 85.5519 63.9242 84.3964 65.6069 83.4287C67.0055 82.6241 65.7449 80.4614 64.3438 81.2676C62.3684 82.4043 60.4367 83.7733 58.6026 85.3166C57.9268 84.8667 57.2333 84.444 56.5237 84.0494C58.1865 82.5465 59.933 81.139 61.7548 79.8336C63.0541 78.9026 61.8065 76.7303 60.4922 77.6725C58.2815 79.2584 56.1748 80.9844 54.185 82.8398C53.8008 82.655 53.4141 82.4731 53.0241 82.2946C51.5676 81.6285 50.2949 83.7854 51.7611 84.4557C51.9342 84.5345 52.1052 84.6159 52.2779 84.6955C50.2445 86.7594 48.357 88.9513 46.6356 91.2864C46.2726 91.1464 45.9055 91.0174 45.5348 90.8997C43.9911 90.4138 43.3362 92.8301 44.8695 93.3127C44.9604 93.3411 45.0509 93.3732 45.141 93.4032C43.833 95.3451 42.6352 97.3591 41.5534 99.4356C40.8085 100.865 42.9679 102.131 43.7137 100.699ZM54.6279 85.8476C55.3288 86.2143 56.0151 86.6084 56.6852 87.0289C54.6759 88.9322 52.8214 91.0424 51.213 93.2856C50.4697 92.9744 49.7335 92.6345 48.9964 92.2987C50.7127 90.013 52.5949 87.8568 54.6279 85.8476Z" fill="black"/>
</svg>
