<svg width="192" height="102" viewBox="0 0 192 102" fill="none" xmlns="http://www.w3.org/2000/svg">
<path d="M0.671967 25.296C0.743967 25.704 0.791967 26.112 0.863967 26.52C1.36797 29.736 1.87197 33.048 3.04797 36.072C4.34397 39.432 6.31197 42.336 8.90397 44.736C9.26397 45.072 9.93597 45.648 10.752 46.368C9.14397 48.48 7.65597 50.688 6.38397 53.016C5.03997 55.44 3.59997 58.32 3.91197 61.176C4.53597 67.272 12.6 65.952 16.584 64.656C21.36 63.096 25.536 60.576 29.376 57.552C33.312 59.256 41.304 62.4 41.328 62.376C47.352 64.872 53.76 66.168 60.048 67.824C58.584 69.096 57.096 70.368 55.536 71.592C51.672 74.64 47.784 77.688 44.136 81C40.848 84 37.416 87.264 35.04 91.08C33.792 93.048 32.424 95.928 33.792 98.184C34.968 100.128 37.272 100.776 39.408 100.992C45.912 101.664 52.68 99.48 58.68 97.248C67.92 93.816 76.44 89.016 84.024 83.016C84.096 82.992 84.168 82.944 84.216 82.872C86.136 81.336 88.008 79.704 89.808 78.024C102.504 81.144 115.248 83.664 127.44 85.992C129.408 86.376 148.296 89.376 155.016 89.592C156.912 89.64 158.352 89.688 159.72 89.688C164.952 89.688 171.72 89.328 177.528 86.568C181.152 84.84 187.704 81.024 190.68 74.88C192 72.168 192.336 69.696 191.712 67.488C191.064 65.232 189.624 63.288 187.32 61.56C187.2 61.392 187.056 61.224 186.864 61.104C181.008 57.456 176.976 51.816 173.064 46.368C170.856 43.296 168.6 40.128 166.008 37.32C161.928 32.904 157.344 29.424 152.736 27.312C147.936 25.104 142.584 23.76 136.824 23.352C135.336 23.232 133.752 23.184 132.168 23.184H131.184C134.88 19.032 137.808 13.632 136.584 8.03996C135.384 2.66396 130.32 -0.312035 125.016 1.51197C118.848 3.64797 113.4 8.75996 108.912 13.32C104.664 17.616 100.464 22.176 97.08 27.192C96.984 27.36 96.912 27.504 96.864 27.648C91.872 28.368 86.712 29.064 81.528 29.592C72.192 30.576 63.912 31.056 56.256 31.056C54.72 31.056 53.184 31.032 51.696 30.984C53.112 29.928 54.144 28.512 53.952 26.688C53.64 23.928 51.312 22.032 48.672 21.48C44.976 20.688 41.208 21.768 37.8 23.184C34.848 24.408 31.536 26.184 29.76 28.992C29.16 28.896 28.56 28.8 27.96 28.68C27.528 28.608 22.944 28.2 22.656 28.2H22.608C20.328 28.2 18.528 26.76 16.92 23.64C16.032 21.936 15.312 20.088 14.592 18.288C13.368 15.216 12.12 12.048 10.056 9.38397C9.09597 8.13597 7.60797 6.50397 5.71197 6.50397C5.32797 6.50397 4.94397 6.57596 4.58397 6.69596C1.99197 7.53596 0.647967 11.064 0.239967 14.064C-0.312032 18.144 0.167967 22.2 0.671967 25.296ZM6.67197 9.95996C5.83197 10.464 4.94397 10.92 4.03197 11.208C4.24797 10.776 4.53597 10.368 4.84797 9.98397C5.13597 9.67197 5.39997 9.50397 5.71197 9.50397C5.99997 9.50397 6.33597 9.67196 6.67197 9.95996ZM7.63197 10.992C6.31197 11.904 4.84797 12.48 3.35997 12.984C3.45597 12.648 3.55197 12.336 3.67197 12.024C4.94397 11.712 6.09597 11.136 7.19997 10.464C7.34397 10.608 7.48797 10.776 7.63197 10.992ZM8.32797 12C6.67197 13.08 4.91997 13.944 3.04797 14.52C3.07197 14.28 3.11997 14.016 3.16797 13.776C4.87197 13.2 6.55197 12.552 8.03997 11.544C8.13597 11.712 8.23197 11.856 8.32797 12ZM8.90397 12.984C7.22397 14.568 4.99197 15.264 2.90397 16.152C2.92797 15.864 2.92797 15.576 2.95197 15.288C4.99197 14.688 6.91197 13.776 8.68797 12.6C8.75997 12.744 8.83197 12.864 8.90397 12.984ZM34.2 28.248C34.152 28.704 34.104 29.16 34.08 29.616C33.672 29.568 33.264 29.496 32.856 29.448C33.288 29.016 33.72 28.608 34.2 28.248ZM36.6 26.76C36.528 27.816 36.432 28.848 36.192 29.88H36.168C35.688 29.832 35.232 29.76 34.776 29.712C34.824 29.064 34.872 28.392 34.968 27.744V27.72C35.496 27.36 36.048 27.048 36.6 26.76ZM38.616 25.824C38.376 27.24 38.376 28.68 38.136 30.096C37.704 30.048 37.296 30 36.888 29.952C37.176 28.8 37.248 27.6 37.32 26.4C37.68 26.232 38.016 26.064 38.352 25.92C38.448 25.896 38.544 25.872 38.616 25.824ZM40.728 24.984C40.44 26.736 40.272 28.512 39.936 30.264C39.576 30.24 39.216 30.192 38.856 30.168C39.096 28.632 39.072 27.048 39.408 25.512C39.84 25.32 40.272 25.152 40.728 24.984ZM42.912 24.336C42.552 26.376 42.264 28.416 41.76 30.432C41.376 30.408 41.016 30.36 40.632 30.336C40.992 28.488 41.16 26.592 41.472 24.744C41.952 24.6 42.432 24.456 42.912 24.336ZM44.352 24.072C43.992 26.232 43.56 28.368 43.368 30.552C43.056 30.528 42.768 30.504 42.456 30.48C42.96 28.392 43.248 26.28 43.632 24.168C43.872 24.144 44.112 24.096 44.352 24.072ZM46.248 23.976C45.984 26.232 45.744 28.464 45.336 30.696C44.904 30.672 44.496 30.648 44.064 30.624C44.256 28.392 44.688 26.208 45.072 24.024C45.48 23.952 45.864 23.952 46.248 23.976ZM48.24 24.264C47.88 26.256 47.544 28.248 47.016 30.192C46.704 30.384 46.392 30.576 46.08 30.744H46.032C46.44 28.536 46.68 26.28 46.944 24.048C47.376 24.072 47.808 24.144 48.24 24.264ZM49.992 25.032C49.848 26.424 49.704 27.888 49.296 29.232C48.816 29.52 48.288 29.76 47.832 29.952C48.288 28.152 48.6 26.328 48.936 24.504C49.32 24.624 49.68 24.792 49.992 25.032ZM50.208 28.56C50.424 27.6 50.544 26.616 50.64 25.632C50.784 25.824 50.904 26.04 50.976 26.28C51.24 27.216 50.856 27.96 50.208 28.56ZM102.624 24.312C102.6 25.104 102.6 25.92 102.6 26.736C101.904 26.832 101.232 26.952 100.536 27.048C101.208 26.112 101.904 25.2 102.624 24.312ZM104.568 22.032C104.544 23.496 104.496 24.984 104.472 26.448C104.088 26.52 103.68 26.568 103.296 26.64C103.296 25.56 103.296 24.504 103.368 23.424C103.776 22.944 104.16 22.488 104.568 22.032ZM106.656 26.088C106.176 26.16 105.672 26.256 105.192 26.328C105.216 24.624 105.264 22.92 105.288 21.216C105.768 20.688 106.248 20.16 106.752 19.608C106.704 21.768 106.92 23.928 106.656 26.088ZM108.384 17.832C108.24 18.792 108.288 19.872 108.264 20.592C108.216 22.344 108.24 24.072 108.312 25.824L107.376 25.968C107.616 23.592 107.328 21.192 107.448 18.816C107.76 18.504 108.072 18.168 108.384 17.832ZM110.616 25.44C110.088 25.536 109.536 25.608 108.984 25.704C108.936 24.408 108.912 23.112 108.936 21.816C108.96 20.616 108.6 17.712 109.536 16.776C109.608 16.704 109.632 16.608 109.632 16.512C109.968 16.152 110.328 15.792 110.688 15.432C110.712 16.512 110.904 17.616 110.928 18.696C110.976 20.952 110.76 23.208 110.616 25.44ZM112.92 13.248C112.896 17.208 112.728 21.144 112.8 25.104C112.608 25.128 112.392 25.176 112.2 25.2L111.336 25.344C111.48 23.28 111.672 21.192 111.624 19.128C111.6 17.712 111.264 16.2 111.384 14.76C111.888 14.232 112.392 13.728 112.92 13.248ZM114.672 15.816C114.672 18.816 114.576 21.816 114.552 24.792C114.192 24.84 113.832 24.912 113.472 24.96C113.424 20.976 113.592 16.968 113.616 12.984C113.616 12.84 113.544 12.768 113.472 12.696C113.856 12.336 114.24 12 114.624 11.64C114.408 13.032 114.696 14.544 114.672 15.816ZM116.664 9.91197C116.664 10.032 116.664 10.152 116.64 10.248C116.544 11.448 116.496 12.672 116.448 13.872C116.328 17.448 116.424 21.024 116.016 24.576C115.752 24.624 115.512 24.648 115.248 24.696C115.272 21.96 115.344 19.224 115.368 16.488C115.368 14.832 114.84 12.408 115.56 10.848C115.944 10.512 116.304 10.2 116.664 9.91197ZM118.56 14.376C118.464 17.688 118.056 21 117.888 24.312C117.504 24.36 117.144 24.408 116.76 24.48C117.12 21.048 117.048 17.616 117.168 14.16C117.192 13.104 117.24 12.048 117.312 10.992C117.336 10.608 117.288 9.93596 117.336 9.35996C117.648 9.09596 117.984 8.85597 118.32 8.59197C118.128 10.488 118.608 12.504 118.56 14.376ZM119.856 24.024C119.424 24.072 119.016 24.144 118.584 24.192C118.752 20.904 119.208 17.64 119.256 14.352C119.28 12.336 118.704 10.032 119.112 7.99196C119.568 7.65596 120.048 7.31996 120.528 7.00796C120.144 8.78396 120.504 10.896 120.6 12.552C120.864 16.368 120 20.208 119.856 24.024ZM122.448 5.80796C121.968 7.79996 122.4 10.128 122.424 12.096C122.472 15.984 122.088 19.944 121.656 23.808C121.296 23.856 120.936 23.904 120.576 23.928C120.72 20.376 121.56 16.824 121.368 13.296C121.248 11.304 120.648 8.44796 121.44 6.43196C121.776 6.21596 122.112 6.02396 122.448 5.80796ZM124.416 4.75197C124.008 6.76796 124.248 8.99996 124.2 11.016C124.056 15.24 123.456 19.44 123.192 23.64C122.928 23.664 122.64 23.688 122.376 23.712C122.808 19.992 123.192 16.152 123.144 12.408C123.12 10.248 122.472 7.36796 123.36 5.27996C123.696 5.11196 124.056 4.91997 124.416 4.75197ZM126.048 12.432C125.976 16.128 125.736 19.8 125.184 23.448C124.752 23.496 124.32 23.52 123.864 23.568C124.128 19.824 124.656 16.104 124.824 12.336C124.944 9.88796 124.464 6.83996 125.184 4.39197C125.448 4.27197 125.736 4.17597 126.024 4.10397C125.784 6.86397 126.096 9.67197 126.048 12.432ZM127.584 3.74397C127.56 10.272 127.392 16.824 126.696 23.304C126.432 23.328 126.168 23.352 125.904 23.352C126.384 19.944 126.672 16.512 126.744 13.08C126.816 10.032 126.432 6.91197 126.744 3.86397C127.032 3.83997 127.296 3.79197 127.584 3.74397ZM129.144 3.79197C128.448 5.51997 128.88 8.23197 128.952 9.71996C129.144 13.8 128.856 17.976 128.352 22.032C128.064 22.344 127.752 22.632 127.464 22.92C128.136 16.536 128.304 10.128 128.328 3.71996C128.568 3.71996 128.856 3.74397 129.144 3.79197ZM130.392 19.632C129.984 20.16 129.576 20.664 129.144 21.144C129.552 17.592 129.84 13.944 129.672 10.392C129.624 9.09597 129.528 7.79997 129.576 6.50397C129.6 5.78397 129.552 4.72796 129.864 3.93596C129.96 3.95996 130.08 4.00796 130.176 4.05596C130.176 9.26396 130.296 14.448 130.392 19.632ZM133.056 15.024C132.912 11.76 132.48 8.49596 132.096 5.25596C132.888 5.99996 133.44 6.98396 133.68 8.13596C134.232 10.56 133.896 12.864 133.056 15.024ZM131.088 18.696C130.992 13.92 130.896 9.14396 130.896 4.39197C131.04 4.46397 131.184 4.55996 131.328 4.65596C131.808 8.59196 132.36 12.528 132.408 16.512C132.024 17.256 131.568 17.976 131.088 18.696ZM167.4 52.296C165.576 52.584 163.752 52.848 161.928 53.136C159.096 49.296 156.552 45.24 153.456 41.616C154.848 39.504 156.888 37.968 159.288 37.056C159.384 37.152 159.48 37.224 159.624 37.272C159.744 37.392 159.84 37.536 159.936 37.656C160.272 38.088 160.608 38.544 160.92 39C161.688 40.08 162.456 41.136 163.2 42.24C165.24 45.24 166.08 48.912 167.4 52.296ZM151.68 45.984C151.8 45.384 151.968 44.808 152.136 44.256C152.208 44.04 152.28 43.824 152.376 43.608C154.968 46.752 157.176 50.184 159.552 53.472C159.096 53.544 158.616 53.616 158.16 53.688C155.952 51.24 153.336 49.08 151.752 46.128C151.752 46.08 151.728 46.032 151.68 45.984ZM155.64 54.048L150.528 54.768V54.696C150.264 52.992 150.72 51.024 151.056 49.368C151.08 49.272 151.104 49.152 151.104 49.056C152.448 50.856 154.08 52.416 155.64 54.048ZM173.16 51.408C172.176 51.552 171.216 51.696 170.232 51.864C170.232 51.84 170.208 51.792 170.208 51.768C169.008 48.768 168.144 45.624 166.704 42.72C167.928 44.232 169.08 45.792 170.184 47.328L170.4 47.616C171.312 48.888 172.224 50.16 173.16 51.408ZM189 68.688C188.136 67.344 187.296 65.976 186.504 64.584C187.92 65.88 188.76 67.248 189 68.688ZM188.808 71.448C187.584 69 186.12 66.672 184.776 64.272C184.416 63.648 184.032 63.048 183.672 62.424C183.888 62.592 184.104 62.736 184.344 62.88C184.44 63.024 184.584 63.12 184.728 63.216C184.848 63.312 184.968 63.384 185.112 63.48C186.312 65.736 187.656 67.92 189.072 70.032C189 70.512 188.928 70.968 188.808 71.448ZM188.04 73.512C185.568 69 183.096 64.512 180.672 59.976C181.248 60.48 181.824 60.984 182.4 61.464C182.496 61.656 182.568 61.824 182.616 61.92C183.36 63.192 184.056 64.464 184.8 65.712C186.12 67.896 187.416 70.104 188.52 72.408C188.376 72.792 188.232 73.152 188.04 73.512ZM181.128 64.512C180.432 63.264 179.76 61.992 179.064 60.768C178.776 60.288 178.176 59.52 177.816 58.824C178.104 58.56 178.392 58.296 178.68 58.056L179.04 58.416C181.848 63.744 184.776 69 187.656 74.28C187.44 74.64 187.224 74.976 186.984 75.336C186.96 75.384 186.912 75.432 186.864 75.48C185.232 71.64 183.144 68.112 181.128 64.512ZM185.832 76.776C184.032 73.488 182.136 70.248 180.264 67.008C178.968 64.776 178.08 62.16 176.496 60.096C176.784 59.832 177.048 59.544 177.336 59.28C177.576 59.712 177.888 60.096 178.08 60.456C178.704 61.56 179.304 62.664 179.928 63.768C182.184 67.824 184.632 71.808 186.408 76.104C186.192 76.32 186 76.536 185.832 76.776ZM184.176 78.528C181.68 72.648 178.608 66.936 174.792 61.776C175.176 61.368 175.584 60.96 175.992 60.552C177.672 62.736 178.608 65.568 180 67.92C181.824 71.04 183.624 74.16 185.352 77.328C184.968 77.736 184.584 78.144 184.176 78.528ZM182.592 79.944C181.656 76.752 180.072 73.8 178.488 70.896C177.024 68.208 175.824 65.304 173.784 62.976C173.76 62.952 173.736 62.952 173.736 62.928C173.928 62.712 174.12 62.496 174.312 62.304C178.104 67.44 181.176 73.152 183.648 79.032C183.288 79.344 182.928 79.632 182.592 79.944ZM181.344 80.904C180.384 77.784 178.632 74.952 176.976 72.168C175.44 69.576 173.928 67.008 172.392 64.416C172.68 64.104 172.944 63.768 173.232 63.456C173.232 63.456 173.232 63.48 173.256 63.504C175.248 65.76 176.4 68.664 177.84 71.28C179.448 74.232 181.056 77.208 181.968 80.448C181.776 80.568 181.56 80.736 181.344 80.904ZM180.072 81.792C177.744 78.336 176.472 74.4 174.312 70.872C173.664 69.792 172.968 68.736 172.32 67.656C172.08 67.272 171.504 66.552 171.144 65.904C171.408 65.592 171.648 65.28 171.912 64.968C173.4 67.488 174.888 70.008 176.376 72.504C178.056 75.312 179.832 78.168 180.744 81.336C180.504 81.48 180.288 81.624 180.072 81.792ZM178.632 82.656C175.896 77.448 173.136 72.24 170.16 67.128C170.328 66.888 170.52 66.672 170.688 66.432C170.904 66.792 171.168 67.128 171.312 67.368C172.032 68.592 172.8 69.792 173.544 70.992C175.752 74.616 177.072 78.648 179.448 82.152C179.184 82.32 178.92 82.488 178.632 82.656ZM177 83.52C175.56 80.712 174.072 77.928 172.632 75.096C171.528 72.936 169.872 70.704 169.248 68.328C169.392 68.112 169.56 67.92 169.704 67.704C172.608 72.72 175.32 77.856 178.008 82.992C177.696 83.184 177.336 83.352 177 83.52ZM175.512 84.216C174.192 81.264 172.512 78.528 170.952 75.696C170.352 74.616 169.8 73.512 169.2 72.432C168.792 71.688 168.288 70.872 168.024 70.008C168.24 69.696 168.456 69.36 168.696 69.048C169.368 71.088 170.712 72.984 171.672 74.856C173.208 77.856 174.816 80.832 176.328 83.832C176.088 83.976 175.8 84.096 175.512 84.216ZM173.712 84.888C172.632 82.344 171.408 79.896 170.16 77.424C169.488 76.08 168.816 74.736 168.12 73.392C168 73.176 167.4 72.288 166.992 71.568C167.184 71.28 167.352 71.016 167.544 70.728C168.072 72.192 169.08 73.632 169.752 74.856C171.456 78.048 173.4 81.12 174.888 84.432L174.528 84.576C174.24 84.72 173.976 84.792 173.712 84.888ZM172.128 85.344C171.096 83.28 170.016 81.216 168.984 79.152C168.312 77.808 167.64 76.464 167.016 75.096C166.896 74.856 166.296 73.656 166.056 73.056C166.248 72.744 166.44 72.456 166.632 72.144C167.352 73.416 168 74.76 168.672 76.056C170.16 79.056 171.72 82.008 173.04 85.104C172.728 85.176 172.44 85.272 172.128 85.344ZM170.568 85.68C169.56 83.064 168.312 80.568 167.184 78C166.656 76.824 166.224 75.168 165.432 74.088C165.504 73.968 165.576 73.848 165.648 73.704L165.84 74.088C166.416 75.48 167.088 76.824 167.736 78.168C168.936 80.616 170.208 83.04 171.432 85.488C171.144 85.56 170.856 85.632 170.568 85.68ZM168.792 85.968C167.04 82.656 166.056 79.032 164.472 75.672C164.64 75.36 164.832 75.048 165.024 74.736C165.696 75.768 166.104 77.304 166.56 78.36C167.664 80.856 168.888 83.256 169.848 85.8C169.512 85.872 169.152 85.92 168.792 85.968ZM167.208 86.184C166.032 83.352 164.208 80.808 163.248 77.904C163.512 77.4 163.776 76.92 164.04 76.416C165.48 79.584 166.44 82.968 168.048 86.064C167.76 86.112 167.496 86.136 167.208 86.184ZM165.48 86.352C164.472 84 163.704 81.576 162.528 79.296C162.624 79.104 162.72 78.936 162.816 78.744C163.8 81.336 165.408 83.688 166.488 86.256C166.152 86.304 165.816 86.328 165.48 86.352ZM163.848 86.472C163.032 84.744 162.528 82.848 161.616 81.168C161.784 80.808 161.952 80.448 162.12 80.112C163.128 82.152 163.848 84.336 164.736 86.424C164.448 86.448 164.16 86.448 163.848 86.472ZM161.232 85.176C161.088 84.792 160.944 84.408 160.824 84.024C160.776 83.88 160.656 83.376 160.632 83.472C160.656 83.424 160.656 83.352 160.632 83.304C160.824 82.848 161.04 82.392 161.256 81.936C161.976 83.4 162.432 85.008 163.104 86.496C162.672 86.52 162.24 86.544 161.784 86.568C161.568 86.136 161.4 85.656 161.232 85.176ZM159.744 85.44C159.888 85.104 160.008 84.768 160.152 84.456C160.296 84.816 160.464 85.152 160.56 85.368C160.728 85.776 160.872 86.208 161.04 86.616C160.728 86.616 160.392 86.64 160.08 86.64C159.936 86.256 159.816 85.848 159.744 85.44ZM135.36 74.76C135.432 74.784 135.48 74.808 135.552 74.808C143.76 76.224 152.064 77.136 160.392 77.304C158.832 80.328 157.44 83.448 156.24 86.664C155.832 86.664 155.4 86.64 154.992 86.616C155.328 86.016 155.616 85.392 155.832 84.72C155.976 84.288 155.28 84.096 155.16 84.528C154.944 85.248 154.608 85.92 154.224 86.592C153.936 86.568 153.672 86.568 153.384 86.544H153.264C153.552 85.92 153.816 85.296 154.104 84.672C154.272 84.264 153.672 83.904 153.504 84.312C153.192 85.032 152.88 85.776 152.52 86.496L151.656 86.424C151.872 85.776 152.136 85.152 152.424 84.528C152.592 84.12 151.992 83.76 151.824 84.168C151.512 84.888 151.2 85.632 150.936 86.376C150.624 86.352 150.288 86.328 149.976 86.304C150.288 85.704 150.6 85.104 150.984 84.528C151.224 84.144 150.624 83.784 150.384 84.168C149.952 84.84 149.592 85.512 149.232 86.232C148.872 86.208 148.536 86.16 148.176 86.136C148.536 85.368 148.824 84.576 149.304 83.88C149.568 83.496 148.944 83.16 148.704 83.52C148.176 84.312 147.864 85.2 147.432 86.064C147.168 86.04 146.88 85.992 146.616 85.968C147 85.32 147.336 84.648 147.744 84C147.984 83.616 147.384 83.256 147.144 83.64C146.664 84.36 146.304 85.152 145.848 85.872C145.464 85.824 145.08 85.776 144.72 85.728C145.056 85.128 145.344 84.48 145.656 83.856C145.848 83.448 145.248 83.088 145.056 83.496C144.696 84.216 144.36 84.936 143.952 85.632C143.736 85.608 143.544 85.584 143.328 85.56C143.544 85.128 143.76 84.696 143.952 84.24C144.12 83.832 143.52 83.472 143.352 83.88C143.112 84.408 142.872 84.936 142.584 85.44C142.2 85.392 141.84 85.344 141.456 85.296C141.768 84.624 142.032 83.928 142.296 83.232C142.464 82.8 141.768 82.632 141.624 83.04C141.36 83.76 141.072 84.48 140.736 85.2L140.232 85.128C140.544 84.552 140.808 83.928 141.072 83.328C141.24 82.92 140.64 82.56 140.472 82.968C140.184 83.664 139.872 84.36 139.488 85.008C139.08 84.936 138.672 84.888 138.264 84.816C138.48 84.288 138.696 83.76 138.888 83.232C139.056 82.8 138.36 82.632 138.216 83.04C138 83.592 137.784 84.168 137.544 84.72C136.992 84.624 136.416 84.552 135.864 84.456C135.6 81.264 135.456 78.024 135.36 74.76ZM121.896 80.064C121.92 78.48 122.016 76.872 122.136 75.288C122.496 70.608 123.072 65.952 123.816 61.32C123.864 61.08 123.888 60.816 123.936 60.576C124.128 60.696 124.368 60.768 124.632 60.768C125.184 60.768 125.712 60.816 126.24 60.936C126.456 60.984 126.648 61.032 126.864 61.104C126.768 61.08 127.056 61.272 126.888 61.104H126.912C127.488 61.536 128.256 61.56 128.808 61.032C129.312 60.528 129.384 59.544 128.808 59.04C127.704 58.104 126.024 57.936 124.632 57.912C124.536 57.912 124.44 57.912 124.368 57.936C125.112 53.568 126.024 49.176 127.608 45.048C128.136 43.632 128.928 41.928 129.888 41.304C131.304 40.392 132.888 39.552 133.512 41.568C133.824 42.552 133.992 43.56 134.064 44.616C133.56 44.496 133.032 44.472 132.504 44.664C132.072 44.808 132.264 45.504 132.696 45.336C133.176 45.168 133.656 45.216 134.112 45.36C134.136 45.864 134.136 46.344 134.112 46.848C133.704 46.8 133.272 46.752 132.84 46.752C132.384 46.752 132.384 47.448 132.84 47.448C133.248 47.448 133.68 47.496 134.088 47.568C134.064 47.952 134.04 48.36 134.016 48.744C133.656 48.624 133.32 48.552 132.96 48.456C132.528 48.336 132.336 49.032 132.768 49.128C133.152 49.224 133.56 49.32 133.944 49.44C133.896 49.92 133.848 50.424 133.776 50.904C133.368 50.832 132.96 50.736 132.552 50.664C132.12 50.568 131.928 51.264 132.36 51.336C132.792 51.432 133.248 51.504 133.68 51.6C133.632 52.008 133.56 52.392 133.512 52.8C133.272 52.752 133.032 52.68 132.816 52.632C132.384 52.512 132.192 53.208 132.624 53.304C132.888 53.376 133.152 53.424 133.416 53.496C133.344 54.024 133.272 54.552 133.2 55.056C133.008 55.056 132.816 55.056 132.624 55.104C132.168 55.2 132.36 55.872 132.816 55.776C132.912 55.752 133.032 55.752 133.128 55.728C133.08 56.256 133.008 56.784 132.96 57.312C132.792 57.288 132.624 57.288 132.432 57.288C131.976 57.288 131.976 57.984 132.432 57.984C132.576 57.984 132.744 57.984 132.888 58.008C132.84 58.56 132.816 59.112 132.768 59.664C132.432 59.64 132.096 59.616 131.76 59.616C131.304 59.616 131.304 60.312 131.76 60.312C132.072 60.312 132.408 60.312 132.72 60.336C132.696 60.888 132.672 61.44 132.648 62.016C132.336 61.944 132.024 61.896 131.712 61.848C131.256 61.776 131.088 62.448 131.52 62.52L132.6 62.736C132.576 63.408 132.576 64.056 132.552 64.728L131.832 64.584C131.4 64.488 131.208 65.184 131.64 65.256C131.952 65.304 132.24 65.376 132.528 65.448C132.528 65.928 132.528 66.408 132.504 66.888C132.192 66.816 131.856 66.744 131.544 66.672C131.112 66.576 130.92 67.272 131.352 67.344C131.736 67.416 132.12 67.512 132.48 67.584C132.48 68.064 132.456 68.52 132.456 69V69.12C132.168 69.048 131.88 69 131.568 69C131.112 69 131.112 69.696 131.568 69.696C131.88 69.696 132.168 69.768 132.456 69.84V71.616H131.952C131.496 71.616 131.496 72.312 131.952 72.312H132.456C132.456 72.936 132.48 73.536 132.48 74.16C132.096 74.16 131.712 74.208 131.328 74.352C130.896 74.52 131.088 75.192 131.52 75.024C131.856 74.904 132.168 74.856 132.48 74.856C132.48 75.432 132.504 76.008 132.528 76.584C132.24 76.56 131.976 76.56 131.688 76.56C131.232 76.56 131.232 77.256 131.688 77.256C131.976 77.256 132.264 77.256 132.552 77.28C132.576 77.832 132.6 78.408 132.6 78.96C132.168 78.888 131.736 78.912 131.328 79.032C130.896 79.152 131.088 79.848 131.52 79.704C131.88 79.608 132.264 79.584 132.624 79.68C132.648 80.208 132.672 80.712 132.696 81.24H131.688C131.232 81.24 131.232 81.936 131.688 81.936H132.72C132.744 82.56 132.792 83.208 132.816 83.832C131.328 83.568 129.888 83.304 128.496 83.04C126.312 82.632 124.152 82.2 121.968 81.792C121.92 81.696 121.848 81.6 121.776 81.528V81.456C121.896 81.096 121.896 80.592 121.896 80.064ZM119.928 69.216C113.544 68.448 107.04 66.744 101.088 64.296C100.944 63.864 100.56 63.552 100.08 63.408C99.96 63.288 99.84 63.192 99.672 63.096C91.944 59.328 76.032 55.248 74.424 54.864C68.64 52.944 62.424 52.584 56.424 51.888C50.376 51.168 38.16 45.888 37.728 45.696C34.032 44.208 30.384 42.624 26.64 41.328C24.312 40.536 21.408 39.312 18.864 39.624C18.816 39.576 18.768 39.528 18.72 39.504C17.304 38.472 15.696 37.8 14.136 37.032C15.792 34.752 16.992 32.208 17.52 29.256C18.72 30.264 20.16 30.96 21.936 31.104C22.152 31.152 22.584 31.176 23.568 31.2C24.624 31.248 26.064 31.296 26.664 31.392C28.92 31.8 30.912 32.112 32.784 32.376C40.392 33.432 48.168 33.96 55.92 33.96H56.184C73.224 33.936 90.24 31.632 103.152 29.616C105.192 29.304 107.304 28.944 109.368 28.584C116.904 27.312 124.704 25.992 132.36 25.992C140.688 25.992 147.6 27.6 153.48 30.912C155.304 31.92 156.96 33.072 158.544 34.32C154.632 35.736 151.344 38.616 149.832 42.576C148.992 44.784 148.632 47.232 148.248 49.56C147.936 51.504 147.576 53.472 147.888 55.44C147.912 55.56 147.936 55.656 147.96 55.752C147.48 56.64 147.84 57.96 149.088 57.792C157.8 56.64 166.464 55.248 175.152 53.952C175.704 54.624 176.256 55.296 176.832 55.968C170.784 61.248 165.864 67.584 161.952 74.496C153.384 74.424 144.816 73.536 136.368 72.096C135.984 72.024 135.648 72.12 135.384 72.264C135.288 66.048 135.528 59.808 136.296 53.712C136.656 50.904 136.992 48.024 136.92 45.192C136.848 43.056 136.728 40.056 134.952 38.52C131.64 35.64 127.2 39.288 125.76 42.456C123.6 47.232 122.592 52.536 121.68 57.648C120.936 61.488 120.36 65.328 119.928 69.216ZM32.952 46.776C33.264 46.896 33.576 47.04 33.888 47.16C33.624 48.192 33.408 49.224 33.264 50.256L32.328 51.192C32.568 49.704 32.712 48.24 32.952 46.776ZM34.56 47.424C34.92 47.568 35.256 47.712 35.616 47.856C35.136 48.36 34.632 48.888 34.128 49.392C34.248 48.72 34.392 48.072 34.56 47.424ZM94.008 63.72C94.248 63.816 94.488 63.888 94.728 63.984C94.704 65.664 94.632 67.344 94.44 69C94.2 69.288 93.936 69.576 93.696 69.864C93.768 67.824 93.96 65.76 94.008 63.72ZM95.424 64.272C95.664 64.368 95.904 64.464 96.144 64.584C96.144 65.328 96.168 66.072 96.24 66.84C95.904 67.248 95.592 67.656 95.256 68.064C95.352 66.792 95.4 65.544 95.424 64.272ZM97.512 65.184C97.32 65.448 97.104 65.712 96.888 65.976C96.864 65.616 96.864 65.256 96.864 64.872C97.08 64.992 97.296 65.088 97.512 65.184ZM92.208 75.576C94.92 72.816 97.44 69.888 99.816 66.792C106.08 69.408 112.896 71.16 119.64 72C119.544 73.008 119.448 74.016 119.376 75.024C119.232 76.944 119.064 78.864 119.112 80.784V81.384C118.536 81.264 117.984 81.168 117.408 81.048C117.792 80.352 118.056 79.608 118.32 78.864C118.464 78.432 117.792 78.24 117.648 78.672C117.408 79.416 117.144 80.16 116.736 80.856C116.712 80.88 116.712 80.904 116.712 80.928C116.52 80.88 116.304 80.856 116.112 80.808C116.4 80.28 116.616 79.704 116.856 79.128C117.024 78.696 116.352 78.528 116.184 78.936C115.944 79.512 115.704 80.112 115.392 80.64C114.96 80.544 114.528 80.472 114.096 80.376C114.408 79.824 114.648 79.224 114.768 78.6C114.864 78.168 114.192 77.976 114.096 78.408C113.952 79.056 113.688 79.656 113.376 80.232C113.016 80.16 112.632 80.088 112.272 80.016C112.56 79.488 112.824 78.96 113.088 78.432C113.28 78.024 112.68 77.664 112.488 78.072L111.552 79.872C111.336 79.824 111.096 79.776 110.88 79.728C111.192 79.2 111.408 78.624 111.48 78C111.528 77.544 110.832 77.568 110.784 78C110.712 78.576 110.472 79.104 110.16 79.584C109.824 79.512 109.488 79.44 109.176 79.368C109.44 78.888 109.728 78.408 109.968 77.904C110.184 77.496 109.56 77.136 109.368 77.544C109.08 78.12 108.768 78.648 108.456 79.224C108.072 79.152 107.688 79.056 107.304 78.984C107.64 78.312 107.928 77.616 108.024 76.872C108.072 76.416 107.376 76.416 107.328 76.872C107.232 77.568 106.944 78.216 106.608 78.84C106.296 78.768 105.96 78.696 105.648 78.624C105.888 78.12 106.104 77.592 106.416 77.112C106.656 76.728 106.056 76.368 105.816 76.752C105.48 77.28 105.216 77.88 104.952 78.456C104.664 78.384 104.376 78.336 104.088 78.264C104.28 77.856 104.472 77.448 104.64 77.016C104.808 76.584 104.112 76.416 103.968 76.824C103.8 77.256 103.608 77.688 103.392 78.096C103.104 78.024 102.816 77.976 102.528 77.904C102.696 77.52 102.864 77.136 103.008 76.728C103.152 76.296 102.48 76.104 102.336 76.536C102.192 76.944 102.024 77.352 101.856 77.736L100.848 77.52C101.088 77.136 101.328 76.728 101.52 76.296C101.712 75.888 101.088 75.528 100.92 75.936C100.704 76.44 100.416 76.896 100.128 77.352C99.648 77.256 99.168 77.136 98.688 77.016C99 76.344 99.24 75.648 99.336 74.88C99.3839 74.424 98.688 74.424 98.64 74.88C98.568 75.576 98.3039 76.224 97.992 76.848C97.584 76.752 97.152 76.656 96.744 76.56C96.912 76.152 97.056 75.744 97.152 75.312C97.272 74.88 96.576 74.688 96.48 75.12C96.36 75.552 96.216 75.984 96.048 76.392C95.496 76.272 94.944 76.128 94.368 76.008C94.584 75.696 94.8 75.384 94.944 75.048C95.136 74.64 94.512 74.28 94.344 74.688C94.152 75.096 93.912 75.48 93.624 75.816C93.048 75.768 92.64 75.672 92.208 75.576ZM92.16 63.048C92.544 63.192 92.928 63.312 93.312 63.456C93.264 65.88 93.024 68.28 92.976 70.704C92.76 70.968 92.52 71.208 92.28 71.472C92.112 68.664 92.28 65.856 92.16 63.048ZM90.672 62.544C90.936 62.64 91.2 62.712 91.44 62.808C91.608 65.928 91.344 69.072 91.632 72.192C91.224 72.624 90.816 73.056 90.384 73.488C90.336 69.816 90.84 66.168 90.672 62.544ZM88.392 75.48C88.992 70.992 88.7999 66.456 88.752 61.92C89.16 62.04 89.568 62.184 89.952 62.304C90.168 66.264 89.568 70.224 89.712 74.184C89.28 74.616 88.848 75.048 88.392 75.48ZM86.592 77.16C87.168 71.904 86.784 66.6 86.832 61.32C87.24 61.44 87.624 61.56 88.032 61.704C88.0799 66.576 88.344 71.472 87.576 76.296C87.24 76.56 86.928 76.848 86.592 77.16ZM84.48 79.032C84.84 72.936 84.96 66.816 84.96 60.72C85.344 60.84 85.752 60.96 86.136 61.08C86.064 66.696 86.544 72.312 85.8 77.88C85.368 78.264 84.912 78.648 84.48 79.032ZM82.488 80.688C82.944 73.8 83.136 66.936 82.824 60.048C83.304 60.192 83.784 60.36 84.264 60.504C84.264 60.528 84.24 60.576 84.24 60.6C84.24 66.96 84.1199 73.32 83.712 79.656C83.3279 79.992 82.896 80.328 82.488 80.688ZM80.592 82.152C81 74.592 81.048 67.008 81.048 59.424L82.128 59.784C82.464 66.936 82.248 74.112 81.768 81.24C81.36 81.576 80.976 81.864 80.592 82.152ZM78.24 83.856C78.912 75.552 79.512 67.248 79.56 58.92C79.8 59.016 80.064 59.112 80.304 59.184C80.304 67.032 80.28 74.856 79.824 82.704C79.32 83.112 78.792 83.472 78.24 83.856ZM76.416 85.128C76.584 76.176 77.712 67.248 77.832 58.272C78.192 58.416 78.528 58.536 78.888 58.68C78.864 67.272 78.216 75.84 77.52 84.408C77.136 84.648 76.776 84.888 76.416 85.128ZM75.24 85.896C75.24 81.024 75.312 76.2 75.72 71.328C76.104 66.72 76.44 62.088 75.888 57.504C76.296 57.672 76.728 57.84 77.136 58.008C77.04 67.224 75.84 76.392 75.72 85.608C75.552 85.704 75.384 85.8 75.24 85.896ZM73.704 86.856C74.136 82.656 73.56 78.36 73.872 74.16C74.28 68.784 74.808 63.408 74.784 58.032C74.928 57.936 75.048 57.84 75.192 57.744C75.768 62.472 75.336 67.224 74.952 71.952C74.544 76.752 74.52 81.528 74.52 86.352C74.256 86.52 73.968 86.688 73.704 86.856ZM71.688 88.08C73.176 78.552 71.712 68.832 73.152 59.28C73.464 59.016 73.776 58.776 74.088 58.536C74.064 63.528 73.608 68.496 73.224 73.488C72.864 78.072 73.536 82.776 72.936 87.336C72.528 87.576 72.096 87.816 71.688 88.08ZM70.248 75.648C70.512 70.656 71.4 65.736 71.472 60.744C71.76 60.48 72.048 60.216 72.36 59.952C71.088 69.432 72.528 79.056 70.92 88.512H70.896C70.632 88.656 70.344 88.8 70.08 88.968C70.08 84.528 70.008 80.064 70.248 75.648ZM67.944 90.096C68.112 85.848 67.944 81.576 68.016 77.328C68.112 72.408 69.408 67.704 69.384 62.784L70.752 61.416C70.584 66.408 69.624 71.328 69.504 76.296C69.408 80.64 69.384 84.984 69.36 89.328C68.904 89.616 68.424 89.856 67.944 90.096ZM67.728 64.512V64.488C68.04 64.176 68.352 63.84 68.688 63.528C68.592 68.184 67.392 72.672 67.32 77.352C67.272 81.72 67.416 86.136 67.224 90.48C66.72 90.744 66.192 91.008 65.688 91.248C65.424 82.32 66 73.248 67.728 64.512ZM64.368 82.176C64.608 77.184 64.896 72.192 64.92 67.2C65.328 66.816 65.76 66.432 66.168 66.024C66.384 65.808 66.624 65.592 66.864 65.352C65.256 73.944 64.728 82.848 65.016 91.584C64.44 91.848 63.888 92.112 63.312 92.376C62.976 89.064 64.2 85.44 64.368 82.176ZM60.744 93.48C61.44 85.344 62.232 77.232 63.024 69.096C63.024 69.024 63 68.952 62.976 68.904L64.2 67.824C64.176 72.936 64.008 78.12 63.6 83.232C63.36 86.256 62.28 89.592 62.616 92.664C61.992 92.952 61.368 93.216 60.744 93.48ZM58.008 94.56C58.824 90.576 59.016 86.424 59.616 82.416C60.192 78.504 60.72 74.592 61.008 70.632C61.44 70.272 61.872 69.888 62.304 69.528C61.512 77.616 60.72 85.68 60.048 93.792C59.352 94.056 58.68 94.32 58.008 94.56ZM38.064 91.32C37.704 93.408 37.488 95.496 37.128 97.584C36.24 97.104 35.808 96.312 36.168 95.064C36.552 93.768 37.224 92.52 38.064 91.32ZM40.488 88.392C39.912 91.632 39.6 94.92 39.336 98.208C38.76 98.136 38.256 98.04 37.776 97.872C38.232 95.28 38.472 92.664 39 90.072C39.48 89.496 39.984 88.944 40.488 88.392ZM43.608 85.296C42.696 89.616 41.664 93.912 41.16 98.28C40.776 98.28 40.416 98.28 40.032 98.256C40.344 94.632 40.656 91.008 41.376 87.456C42.144 86.712 42.888 85.992 43.608 85.296ZM45.696 83.352C45.768 88.344 44.112 93.216 43.536 98.184C42.984 98.232 42.432 98.28 41.856 98.304C42.408 93.648 43.56 89.064 44.496 84.48C44.904 84.072 45.288 83.712 45.696 83.352ZM48.408 80.928C47.592 86.616 46.416 92.232 45.576 97.92C45.168 97.968 44.712 98.04 44.256 98.088C44.856 92.952 46.608 87.912 46.368 82.704C47.04 82.128 47.712 81.528 48.408 80.928ZM50.832 78.864C50.184 85.08 48.864 91.224 48.24 97.44C47.976 97.488 47.712 97.56 47.448 97.608C47.184 97.656 46.8 97.728 46.296 97.8C47.16 91.92 48.384 86.112 49.2 80.232C49.752 79.776 50.28 79.32 50.832 78.864ZM52.992 77.112C52.632 81.648 51.6 86.088 50.976 90.6C50.688 92.736 50.448 94.872 50.088 97.008C49.704 97.104 49.344 97.176 48.96 97.272C49.632 90.888 51 84.624 51.6 78.24C52.056 77.88 52.536 77.496 52.992 77.112ZM55.728 74.952C55.488 79.944 54.072 84.864 53.256 89.784C52.992 91.368 52.704 92.952 52.488 94.536C52.416 95.112 52.248 95.808 52.224 96.48C51.768 96.6 51.312 96.744 50.832 96.864C51.192 94.632 51.408 92.4 51.768 90.168C52.464 85.632 53.448 81.144 53.76 76.56C54.384 76.056 55.008 75.576 55.632 75.072C55.632 75 55.68 74.976 55.728 74.952ZM57.744 73.32C57.384 77.088 57.144 80.856 56.808 84.624C56.472 88.296 55.704 91.896 55.248 95.544C54.456 95.808 53.664 96.048 52.872 96.288C52.896 95.208 53.256 93.96 53.376 93.12C53.616 91.704 53.856 90.288 54.072 88.872C54.84 84.024 56.28 79.272 56.448 74.352C56.88 74.016 57.312 73.68 57.744 73.32ZM60.24 71.28C59.928 75.192 59.4 79.056 58.824 82.92C58.248 86.88 58.08 90.96 57.24 94.872C56.832 95.016 56.4 95.16 55.992 95.304C56.472 91.512 57.24 87.792 57.576 83.952C57.888 80.208 58.128 76.44 58.512 72.696C59.088 72.216 59.664 71.76 60.24 71.28ZM31.872 55.416C33.984 53.568 36.72 50.328 38.664 48.288C48.504 54.768 60.84 54.048 72 57.072C69.648 58.8 67.488 60.888 65.4 62.88C64.44 63.816 63.456 64.704 62.472 65.616C62.376 65.568 62.28 65.496 62.184 65.472C62.64 64.728 62.976 63.912 63.168 63.048C63.264 62.616 62.592 62.424 62.496 62.856C62.304 63.72 61.968 64.536 61.488 65.256C61.152 65.16 60.792 65.064 60.456 64.992C60.792 64.416 61.104 63.84 61.416 63.24C61.608 62.832 61.008 62.472 60.816 62.88C60.48 63.528 60.144 64.2 59.76 64.824C59.304 64.704 58.824 64.584 58.368 64.464C58.752 63.768 59.112 63.048 59.352 62.28C59.496 61.848 58.8 61.656 58.68 62.088C58.44 62.856 58.056 63.576 57.648 64.272C57.408 64.224 57.168 64.152 56.928 64.104C57.336 63.456 57.72 62.808 58.008 62.088C58.176 61.68 57.504 61.488 57.336 61.896C57.048 62.616 56.64 63.264 56.208 63.912C55.8 63.816 55.368 63.72 54.96 63.6C55.416 62.856 55.728 62.064 55.896 61.2C55.992 60.768 55.296 60.576 55.224 61.008C55.056 61.872 54.72 62.664 54.24 63.408L52.512 62.976C52.968 62.136 53.4 61.248 53.688 60.336C53.832 59.904 53.136 59.712 53.016 60.144C52.728 61.08 52.296 61.944 51.84 62.784L50.76 62.496C51.168 61.752 51.456 60.96 51.696 60.12C51.816 59.688 51.144 59.496 51.024 59.928C50.784 60.744 50.496 61.536 50.064 62.28C49.512 62.136 48.96 61.968 48.408 61.8C48.816 60.888 49.104 59.952 49.224 58.968C49.272 58.512 48.576 58.512 48.528 58.968C48.432 59.88 48.12 60.768 47.736 61.608C47.328 61.488 46.92 61.344 46.512 61.224C46.824 60.384 47.112 59.544 47.4 58.704C47.544 58.272 46.872 58.08 46.728 58.512C46.44 59.352 46.176 60.192 45.864 61.008C45.288 60.816 44.712 60.6 44.16 60.384C44.568 59.592 44.904 58.776 45.216 57.912C45.36 57.48 44.688 57.312 44.544 57.72C44.232 58.536 43.92 59.352 43.512 60.12H43.488L43.512 60.096C43.032 59.904 42.576 59.712 42.096 59.544C42.432 58.968 42.696 58.32 42.84 57.648C42.936 57.216 42.264 57.024 42.168 57.456C42.024 58.104 41.808 58.728 41.448 59.28C41.016 59.112 40.584 58.92 40.152 58.752C40.656 57.912 41.088 57 41.04 56.016C41.016 55.56 40.32 55.56 40.344 56.016C40.392 56.928 39.984 57.744 39.504 58.488C39.024 58.296 38.568 58.104 38.088 57.912C38.424 57.192 38.784 56.448 38.736 55.632C38.712 55.176 38.016 55.176 38.04 55.632C38.088 56.352 37.776 57 37.464 57.648C36.96 57.456 36.48 57.24 35.976 57.048C36.192 56.688 36.384 56.304 36.576 55.92C36.768 55.512 36.168 55.152 35.976 55.56C35.76 55.968 35.568 56.4 35.328 56.784C34.728 56.544 34.152 56.28 33.576 56.04C33.84 55.512 34.104 54.984 34.392 54.48C34.608 54.072 34.008 53.736 33.792 54.12L32.928 55.776C32.448 55.656 32.16 55.536 31.872 55.416ZM30.672 52.728C30.96 50.544 31.32 48.384 31.608 46.224C31.824 46.32 32.064 46.416 32.28 46.488C31.992 48.312 31.8 50.136 31.488 51.96C31.224 52.224 30.96 52.464 30.672 52.728ZM28.824 54.36C29.016 51.408 29.472 48.456 29.808 45.504C30.192 45.648 30.576 45.792 30.936 45.96C30.624 48.456 30.168 50.952 29.88 53.448C29.544 53.736 29.184 54.048 28.824 54.36ZM27.24 55.656C27.672 52.08 28.08 48.504 28.296 44.904C28.44 44.952 28.584 45.024 28.728 45.072C28.872 45.12 28.992 45.192 29.136 45.24C28.8 48.48 28.272 51.72 28.08 54.984C27.792 55.2 27.528 55.44 27.24 55.656ZM25.2 57.168C25.92 52.896 25.92 48.48 26.352 44.16C26.76 44.328 27.192 44.472 27.6 44.64C27.36 48.528 26.928 52.392 26.448 56.256C26.04 56.568 25.632 56.856 25.2 57.168ZM23.088 58.56C23.664 53.52 23.784 48.456 24.216 43.392C24.72 43.56 25.2 43.728 25.704 43.92C25.2 48.504 25.248 53.184 24.408 57.72C23.952 58.008 23.52 58.272 23.088 58.56ZM20.616 59.928C21.48 54.24 21.504 48.48 21.816 42.744V42.72C22.392 42.84 22.944 42.984 23.52 43.152C23.064 48.408 22.992 53.736 22.32 58.968C21.768 59.328 21.192 59.64 20.616 59.928ZM19.056 60.672C19.416 58.392 19.416 55.968 19.704 53.76C20.16 50.016 20.664 46.272 20.448 42.48C20.688 42.504 20.928 42.552 21.168 42.6C21.144 42.648 21.144 42.696 21.12 42.744C20.784 48.6 20.808 54.504 19.848 60.312L19.056 60.672ZM17.088 61.464C17.952 55.224 18.36 48.912 18.432 42.6C18.84 42.432 19.272 42.36 19.728 42.408H19.752C19.968 46.2 19.464 49.992 19.008 53.76C18.768 55.752 18.672 57.792 18.336 59.76C18.264 60.168 18.24 60.6 18.216 61.032C17.832 61.2 17.448 61.344 17.088 61.464ZM15.408 62.04C16.032 55.776 16.632 49.488 17.304 43.224C17.424 43.128 17.568 43.032 17.688 42.96C17.616 49.248 17.184 55.512 16.32 61.728C16.032 61.848 15.72 61.944 15.408 62.04ZM13.536 62.52C15.048 56.808 14.712 50.76 15.48 44.904C15.816 44.52 16.152 44.16 16.536 43.824C15.864 49.92 15.288 56.016 14.688 62.112V62.208C14.592 62.232 14.52 62.256 14.424 62.28C14.184 62.376 13.872 62.448 13.536 62.52ZM11.64 62.904C12.024 61.248 12.024 59.424 12.192 57.816C12.552 54.528 12.792 51.24 13.008 47.952C13.296 47.592 13.584 47.208 13.872 46.848C14.112 46.56 14.376 46.224 14.664 45.888C14.04 51.48 14.256 57.24 12.744 62.688C12.408 62.784 12.024 62.856 11.64 62.904ZM7.58397 62.424C7.51197 62.376 7.46397 62.328 7.39197 62.28C5.99997 61.008 6.67197 58.728 7.48797 56.904C7.55997 58.752 7.77597 60.6 7.58397 62.424ZM10.056 52.248C9.71997 55.824 9.74397 59.448 9.23997 63C8.87997 62.952 8.54397 62.88 8.23197 62.784C8.49597 60.384 8.03997 57.936 8.18397 55.512C8.23197 55.44 8.27997 55.344 8.30397 55.272C8.87997 54.264 9.45597 53.256 10.056 52.248ZM10.92 50.928C11.352 50.28 11.808 49.608 12.264 48.984C12.096 51.72 11.904 54.456 11.592 57.168C11.376 59.016 11.424 61.152 10.92 63C10.584 63.024 10.272 63.048 9.95997 63.048C10.488 59.04 10.392 54.96 10.92 50.928ZM9.86397 41.544C9.95997 41.496 10.056 41.424 10.152 41.328C10.92 40.632 11.64 39.912 12.312 39.168C12.408 39.264 12.528 39.36 12.672 39.432C13.68 39.936 14.712 40.392 15.696 40.92C14.472 41.832 13.392 43.032 12.48 44.136C12.36 44.04 12.24 43.92 12.144 43.824C12.312 43.512 12.456 43.176 12.624 42.864C12.816 42.456 12.216 42.096 12.024 42.504C11.88 42.768 11.76 43.056 11.616 43.32C11.424 43.128 11.232 42.96 11.064 42.768C11.208 42.528 11.328 42.288 11.472 42.024C11.664 41.616 11.064 41.256 10.872 41.664C10.776 41.856 10.68 42.048 10.56 42.24C10.32 42.048 10.08 41.808 9.86397 41.544ZM7.87197 39.024C8.20797 38.904 8.51997 38.808 8.85597 38.688C8.61597 38.904 8.39997 39.144 8.15997 39.36C8.13597 39.384 8.13597 39.384 8.13597 39.408C8.03997 39.264 7.96797 39.144 7.87197 39.024ZM7.19997 37.92C8.23197 37.68 9.28797 37.464 10.32 37.2C10.176 37.344 10.032 37.512 9.88797 37.656C9.07197 37.872 8.27997 38.136 7.48797 38.4C7.39197 38.256 7.29597 38.088 7.19997 37.92ZM6.79197 37.152C8.37597 36.696 9.98397 36.288 11.544 35.712C11.4 35.88 11.28 36.072 11.136 36.24C9.71997 36.648 8.27997 36.912 6.86397 37.248C6.81597 37.248 6.81597 37.2 6.79197 37.152ZM6.11997 35.76C7.03197 35.496 7.94397 35.232 8.87997 35.04C10.056 34.824 11.376 34.68 12.528 34.248C12.432 34.392 12.36 34.536 12.264 34.68C10.392 35.472 8.39997 35.952 6.45597 36.504C6.33597 36.264 6.23997 36.024 6.11997 35.76ZM5.54397 34.272C5.99997 34.128 6.67197 33.936 6.91197 33.864C7.91997 33.552 8.92797 33.288 9.93597 33C11.184 32.64 12.504 32.376 13.752 31.944C13.56 32.376 13.368 32.808 13.176 33.192C11.664 34.128 9.64797 34.128 7.94397 34.536C7.24797 34.704 6.55197 34.92 5.85597 35.112C5.73597 34.824 5.63997 34.536 5.54397 34.272ZM5.03997 32.64C8.18397 31.608 11.4 30.912 14.472 29.712C14.352 30.168 14.232 30.624 14.064 31.056C12.336 31.728 10.44 32.112 8.66397 32.616C7.96797 32.808 6.31197 33.024 5.25597 33.504C5.20797 33.216 5.13597 32.928 5.03997 32.64ZM4.82397 31.656C8.35197 30.672 11.52 28.776 14.928 27.48C14.904 27.6 14.904 27.72 14.88 27.84C14.856 27.888 14.856 27.96 14.832 28.008C14.784 28.32 14.736 28.608 14.664 28.896C11.472 30.192 8.11197 30.912 4.87197 31.968C4.84797 31.848 4.84797 31.752 4.82397 31.656ZM4.43997 29.808C7.91997 28.56 11.328 27.144 14.736 25.728C14.856 25.92 14.952 26.112 15.072 26.28C15.048 26.424 15.048 26.568 15.024 26.712C14.976 26.712 14.928 26.712 14.88 26.736C11.448 28.032 8.23197 29.976 4.67997 30.96C4.58397 30.6 4.51197 30.192 4.43997 29.808ZM4.17597 28.512C5.51997 27.864 7.12797 27.528 8.47197 26.952C10.344 26.136 12.144 25.224 13.92 24.24C14.064 24.528 14.208 24.84 14.376 25.128C11.04 26.52 7.70397 27.888 4.29597 29.136C4.24797 28.92 4.22397 28.704 4.17597 28.512ZM3.81597 26.592C5.27997 26.016 6.98397 25.752 8.37597 25.152C10.056 24.456 11.664 23.664 13.32 22.896C13.416 23.112 13.512 23.352 13.632 23.568C11.472 24.744 9.28797 25.896 6.98397 26.784C6.02397 27.144 4.99197 27.384 4.03197 27.792C3.95997 27.408 3.88797 27 3.81597 26.592ZM3.62397 25.344C5.23197 24.888 6.86397 24.144 8.39997 23.52C9.91197 22.896 11.352 22.224 12.576 21.144C12.72 21.504 12.888 21.888 13.056 22.272C10.872 23.304 8.66397 24.408 6.35997 25.176C5.49597 25.464 4.58397 25.632 3.71997 25.92C3.67197 25.728 3.64797 25.536 3.62397 25.344ZM3.40797 24.048C6.43197 22.968 9.21597 21.384 12.024 19.872C12.096 20.064 12.192 20.256 12.264 20.472C10.824 21.816 9.02397 22.56 7.19997 23.232C5.97597 23.688 4.75197 24.264 3.50397 24.648C3.47997 24.432 3.43197 24.24 3.40797 24.048ZM3.23997 22.608C6.07197 21.384 9.02397 20.496 11.544 18.672C11.592 18.768 11.616 18.864 11.664 18.936C11.712 19.032 11.736 19.104 11.784 19.2C9.02397 20.688 6.28797 22.248 3.33597 23.328C3.28797 23.088 3.26397 22.848 3.23997 22.608ZM3.11997 21.648C4.39197 21.096 5.63997 20.28 6.83997 19.68C8.27997 18.96 9.64797 18.192 10.944 17.232C11.064 17.496 11.16 17.736 11.28 18.024C8.85597 19.848 5.92797 20.736 3.16797 21.888C3.14397 21.792 3.14397 21.72 3.11997 21.648ZM2.99997 20.136C5.56797 19.176 8.13597 17.496 10.392 15.984C10.488 16.176 10.56 16.368 10.656 16.56C9.21597 17.688 7.60797 18.504 5.97597 19.32C5.03997 19.8 4.05597 20.424 3.07197 20.88C3.04797 20.664 3.02397 20.472 3.02397 20.256C2.99997 20.232 2.99997 20.184 2.99997 20.136ZM2.90397 18.36C3.81597 17.928 4.82397 17.664 5.73597 17.256C7.19997 16.608 8.59197 15.84 9.88797 14.904C9.95997 15.048 10.032 15.192 10.104 15.36C7.94397 16.824 5.44797 18.48 2.95197 19.44C2.92797 19.08 2.90397 18.72 2.90397 18.36ZM2.87997 17.592V16.944C5.06397 15.984 7.43997 15.264 9.23997 13.632C9.33597 13.824 9.45597 14.04 9.55197 14.256C8.25597 15.216 6.83997 16.008 5.35197 16.656C4.58397 16.968 3.69597 17.232 2.87997 17.592Z" fill="black"/>
<path d="M106.776 51.84C110.088 51.192 112.632 48.024 112.368 44.592C112.104 41.352 109.896 39.216 106.824 38.928C106.536 38.712 106.128 38.616 105.672 38.736C102.264 39.624 99.072 42.984 99.192 46.68C99.312 50.592 103.152 52.536 106.776 51.84ZM109.56 44.52C109.056 43.68 108.48 42.864 107.88 42.048C108.816 42.504 109.464 43.32 109.56 44.52ZM108.912 47.184C107.784 45.336 106.296 43.752 105.192 41.904C105.36 41.832 105.504 41.736 105.672 41.664C105.72 41.664 105.768 41.688 105.84 41.664H106.248C107.376 43.104 108.456 44.616 109.32 46.248C109.224 46.608 109.08 46.896 108.912 47.184ZM102.048 46.152C102.336 44.664 103.152 43.368 104.304 42.48C105.48 44.448 107.088 46.104 108.216 48.096C107.712 48.576 107.088 48.912 106.368 49.056C104.424 49.416 101.544 48.672 102.048 46.152ZM89.784 42.6C89.544 40.08 88.176 37.92 85.752 37.776C85.536 37.464 85.176 37.2 84.696 37.176C80.64 36.816 77.472 40.536 77.76 44.472C78.024 48.048 82.32 51.168 85.824 49.752C88.584 48.6 90.072 45.528 89.784 42.6ZM81.792 40.992C83.184 42.6 84.744 44.04 86.424 45.312C86.088 46.104 85.656 46.728 85.152 46.968C83.28 47.88 80.544 46.2 80.544 44.136C80.52 42.888 81 41.736 81.792 40.992ZM86.88 43.752C86.856 43.92 86.808 44.088 86.784 44.232C85.296 43.08 83.88 41.784 82.656 40.368C82.992 40.2 83.352 40.08 83.76 40.008C84.816 41.232 85.944 42.432 86.88 43.752ZM86.952 42.096C86.52 41.568 86.064 41.04 85.608 40.536C86.448 40.536 86.856 41.208 86.952 42.096ZM65.064 37.128C64.776 36.696 64.248 36.408 63.576 36.552C60.432 37.32 56.736 40.488 57.6 44.112C58.272 46.992 62.16 49.488 65.112 48.504C70.248 46.776 70.152 38.736 65.064 37.128ZM60.96 41.448C62.352 42.72 63.648 44.112 64.944 45.528C64.8 45.624 64.656 45.696 64.488 45.768C63.144 46.344 60.36 44.928 60.336 43.416C60.312 42.672 60.552 42.024 60.96 41.448ZM62.232 40.224C62.904 40.8 63.576 41.4 64.2 42.024C64.824 42.648 65.544 43.296 66.024 44.04C65.952 44.304 65.832 44.544 65.664 44.784C64.368 43.368 63.072 41.952 61.656 40.68C61.824 40.512 62.04 40.344 62.232 40.224ZM66.144 42.456C65.76 42.024 65.352 41.64 64.968 41.28C64.392 40.728 63.84 40.2 63.24 39.672C63.312 39.648 63.384 39.6 63.456 39.576C63.576 39.624 63.672 39.672 63.816 39.72C65.112 39.984 65.952 41.184 66.144 42.456Z" fill="black"/>
</svg>
